<?xml version="1.0" encoding="utf-8" standalone="no"?>
<!DOCTYPE svg PUBLIC "-//W3C//DTD SVG 1.1//EN"
  "http://www.w3.org/Graphics/SVG/1.1/DTD/svg11.dtd">
<svg height="432pt" version="1.1" viewBox="0 0 576 432" width="576pt" xmlns="http://www.w3.org/2000/svg" xmlns:xlink="http://www.w3.org/1999/xlink">
 <metadata>
  <rdf:RDF xmlns:cc="http://creativecommons.org/ns#" xmlns:dc="http://purl.org/dc/elements/1.1/" xmlns:rdf="http://www.w3.org/1999/02/22-rdf-syntax-ns#">
   <cc:Work>
    <dc:type rdf:resource="http://purl.org/dc/dcmitype/StillImage"/>
    <dc:date>2024-09-12T17:39:19.339583</dc:date>
    <dc:format>image/svg+xml</dc:format>
    <dc:creator>
     <cc:Agent>
      <dc:title>Matplotlib v3.4.2, https://matplotlib.org/</dc:title>
     </cc:Agent>
    </dc:creator>
   </cc:Work>
  </rdf:RDF>
 </metadata>
 <defs>
  <style type="text/css">*{stroke-linecap:butt;stroke-linejoin:round;}</style>
 </defs>
 <g id="figure_1">
  <g id="patch_1">
   <path d="M 0 432 
L 576 432 
L 576 0 
L 0 0 
z
" style="fill:#ffffff;"/>
  </g>
  <g id="axes_1">
   <g id="patch_2">
    <path d="M 68.26 374.9 
L 549.81 374.9 
L 549.81 16.56 
L 68.26 16.56 
z
" style="fill:#ffffff;"/>
   </g>
   <g id="matplotlib.axis_1">
    <g id="xtick_1">
     <g id="line2d_1">
      <defs>
       <path d="M 0 0 
L 0 10 
" id="maa44565acf" style="stroke:#000000;stroke-width:0.8;"/>
      </defs>
      <g>
       <use style="stroke:#000000;stroke-width:0.8;" x="68.26" xlink:href="#maa44565acf" y="374.9"/>
      </g>
     </g>
     <g id="text_1">
      <!-- 150 -->
      <g transform="translate(52.99 400.5575)scale(0.16 -0.16)">
       <defs>
        <path d="M 794 531 
L 1825 531 
L 1825 4091 
L 703 3866 
L 703 4441 
L 1819 4666 
L 2450 4666 
L 2450 531 
L 3481 531 
L 3481 0 
L 794 0 
L 794 531 
z
" id="DejaVuSans-31" transform="scale(0.015625)"/>
        <path d="M 691 4666 
L 3169 4666 
L 3169 4134 
L 1269 4134 
L 1269 2991 
Q 1406 3038 1543 3061 
Q 1681 3084 1819 3084 
Q 2600 3084 3056 2656 
Q 3513 2228 3513 1497 
Q 3513 744 3044 326 
Q 2575 -91 1722 -91 
Q 1428 -91 1123 -41 
Q 819 9 494 109 
L 494 744 
Q 775 591 1075 516 
Q 1375 441 1709 441 
Q 2250 441 2565 725 
Q 2881 1009 2881 1497 
Q 2881 1984 2565 2268 
Q 2250 2553 1709 2553 
Q 1456 2553 1204 2497 
Q 953 2441 691 2322 
L 691 4666 
z
" id="DejaVuSans-35" transform="scale(0.015625)"/>
        <path d="M 2034 4250 
Q 1547 4250 1301 3770 
Q 1056 3291 1056 2328 
Q 1056 1369 1301 889 
Q 1547 409 2034 409 
Q 2525 409 2770 889 
Q 3016 1369 3016 2328 
Q 3016 3291 2770 3770 
Q 2525 4250 2034 4250 
z
M 2034 4750 
Q 2819 4750 3233 4129 
Q 3647 3509 3647 2328 
Q 3647 1150 3233 529 
Q 2819 -91 2034 -91 
Q 1250 -91 836 529 
Q 422 1150 422 2328 
Q 422 3509 836 4129 
Q 1250 4750 2034 4750 
z
" id="DejaVuSans-30" transform="scale(0.015625)"/>
       </defs>
       <use xlink:href="#DejaVuSans-31"/>
       <use x="63.623047" xlink:href="#DejaVuSans-35"/>
       <use x="127.246094" xlink:href="#DejaVuSans-30"/>
      </g>
     </g>
    </g>
    <g id="xtick_2">
     <g id="line2d_2">
      <g>
       <use style="stroke:#000000;stroke-width:0.8;" x="128.45375" xlink:href="#maa44565acf" y="374.9"/>
      </g>
     </g>
     <g id="text_2">
      <!-- 200 -->
      <g transform="translate(113.18375 400.5575)scale(0.16 -0.16)">
       <defs>
        <path d="M 1228 531 
L 3431 531 
L 3431 0 
L 469 0 
L 469 531 
Q 828 903 1448 1529 
Q 2069 2156 2228 2338 
Q 2531 2678 2651 2914 
Q 2772 3150 2772 3378 
Q 2772 3750 2511 3984 
Q 2250 4219 1831 4219 
Q 1534 4219 1204 4116 
Q 875 4013 500 3803 
L 500 4441 
Q 881 4594 1212 4672 
Q 1544 4750 1819 4750 
Q 2544 4750 2975 4387 
Q 3406 4025 3406 3419 
Q 3406 3131 3298 2873 
Q 3191 2616 2906 2266 
Q 2828 2175 2409 1742 
Q 1991 1309 1228 531 
z
" id="DejaVuSans-32" transform="scale(0.015625)"/>
       </defs>
       <use xlink:href="#DejaVuSans-32"/>
       <use x="63.623047" xlink:href="#DejaVuSans-30"/>
       <use x="127.246094" xlink:href="#DejaVuSans-30"/>
      </g>
     </g>
    </g>
    <g id="xtick_3">
     <g id="line2d_3">
      <g>
       <use style="stroke:#000000;stroke-width:0.8;" x="188.6475" xlink:href="#maa44565acf" y="374.9"/>
      </g>
     </g>
     <g id="text_3">
      <!-- 250 -->
      <g transform="translate(173.3775 400.5575)scale(0.16 -0.16)">
       <use xlink:href="#DejaVuSans-32"/>
       <use x="63.623047" xlink:href="#DejaVuSans-35"/>
       <use x="127.246094" xlink:href="#DejaVuSans-30"/>
      </g>
     </g>
    </g>
    <g id="xtick_4">
     <g id="line2d_4">
      <g>
       <use style="stroke:#000000;stroke-width:0.8;" x="248.84125" xlink:href="#maa44565acf" y="374.9"/>
      </g>
     </g>
     <g id="text_4">
      <!-- 300 -->
      <g transform="translate(233.57125 400.5575)scale(0.16 -0.16)">
       <defs>
        <path d="M 2597 2516 
Q 3050 2419 3304 2112 
Q 3559 1806 3559 1356 
Q 3559 666 3084 287 
Q 2609 -91 1734 -91 
Q 1441 -91 1130 -33 
Q 819 25 488 141 
L 488 750 
Q 750 597 1062 519 
Q 1375 441 1716 441 
Q 2309 441 2620 675 
Q 2931 909 2931 1356 
Q 2931 1769 2642 2001 
Q 2353 2234 1838 2234 
L 1294 2234 
L 1294 2753 
L 1863 2753 
Q 2328 2753 2575 2939 
Q 2822 3125 2822 3475 
Q 2822 3834 2567 4026 
Q 2313 4219 1838 4219 
Q 1578 4219 1281 4162 
Q 984 4106 628 3988 
L 628 4550 
Q 988 4650 1302 4700 
Q 1616 4750 1894 4750 
Q 2613 4750 3031 4423 
Q 3450 4097 3450 3541 
Q 3450 3153 3228 2886 
Q 3006 2619 2597 2516 
z
" id="DejaVuSans-33" transform="scale(0.015625)"/>
       </defs>
       <use xlink:href="#DejaVuSans-33"/>
       <use x="63.623047" xlink:href="#DejaVuSans-30"/>
       <use x="127.246094" xlink:href="#DejaVuSans-30"/>
      </g>
     </g>
    </g>
    <g id="xtick_5">
     <g id="line2d_5">
      <g>
       <use style="stroke:#000000;stroke-width:0.8;" x="309.035" xlink:href="#maa44565acf" y="374.9"/>
      </g>
     </g>
     <g id="text_5">
      <!-- 350 -->
      <g transform="translate(293.765 400.5575)scale(0.16 -0.16)">
       <use xlink:href="#DejaVuSans-33"/>
       <use x="63.623047" xlink:href="#DejaVuSans-35"/>
       <use x="127.246094" xlink:href="#DejaVuSans-30"/>
      </g>
     </g>
    </g>
    <g id="xtick_6">
     <g id="line2d_6">
      <g>
       <use style="stroke:#000000;stroke-width:0.8;" x="369.22875" xlink:href="#maa44565acf" y="374.9"/>
      </g>
     </g>
     <g id="text_6">
      <!-- 400 -->
      <g transform="translate(353.95875 400.5575)scale(0.16 -0.16)">
       <defs>
        <path d="M 2419 4116 
L 825 1625 
L 2419 1625 
L 2419 4116 
z
M 2253 4666 
L 3047 4666 
L 3047 1625 
L 3713 1625 
L 3713 1100 
L 3047 1100 
L 3047 0 
L 2419 0 
L 2419 1100 
L 313 1100 
L 313 1709 
L 2253 4666 
z
" id="DejaVuSans-34" transform="scale(0.015625)"/>
       </defs>
       <use xlink:href="#DejaVuSans-34"/>
       <use x="63.623047" xlink:href="#DejaVuSans-30"/>
       <use x="127.246094" xlink:href="#DejaVuSans-30"/>
      </g>
     </g>
    </g>
    <g id="xtick_7">
     <g id="line2d_7">
      <g>
       <use style="stroke:#000000;stroke-width:0.8;" x="429.4225" xlink:href="#maa44565acf" y="374.9"/>
      </g>
     </g>
     <g id="text_7">
      <!-- 450 -->
      <g transform="translate(414.1525 400.5575)scale(0.16 -0.16)">
       <use xlink:href="#DejaVuSans-34"/>
       <use x="63.623047" xlink:href="#DejaVuSans-35"/>
       <use x="127.246094" xlink:href="#DejaVuSans-30"/>
      </g>
     </g>
    </g>
    <g id="xtick_8">
     <g id="line2d_8">
      <g>
       <use style="stroke:#000000;stroke-width:0.8;" x="489.61625" xlink:href="#maa44565acf" y="374.9"/>
      </g>
     </g>
     <g id="text_8">
      <!-- 500 -->
      <g transform="translate(474.34625 400.5575)scale(0.16 -0.16)">
       <use xlink:href="#DejaVuSans-35"/>
       <use x="63.623047" xlink:href="#DejaVuSans-30"/>
       <use x="127.246094" xlink:href="#DejaVuSans-30"/>
      </g>
     </g>
    </g>
    <g id="xtick_9">
     <g id="line2d_9">
      <g>
       <use style="stroke:#000000;stroke-width:0.8;" x="549.81" xlink:href="#maa44565acf" y="374.9"/>
      </g>
     </g>
     <g id="text_9">
      <!-- 550 -->
      <g transform="translate(534.54 400.5575)scale(0.16 -0.16)">
       <use xlink:href="#DejaVuSans-35"/>
       <use x="63.623047" xlink:href="#DejaVuSans-35"/>
       <use x="127.246094" xlink:href="#DejaVuSans-30"/>
      </g>
     </g>
    </g>
    <g id="text_10">
     <!-- CRSS (MPa) -->
     <g transform="translate(262.67875 420.0425)scale(0.16 -0.16)">
      <defs>
       <path d="M 4122 4306 
L 4122 3641 
Q 3803 3938 3442 4084 
Q 3081 4231 2675 4231 
Q 1875 4231 1450 3742 
Q 1025 3253 1025 2328 
Q 1025 1406 1450 917 
Q 1875 428 2675 428 
Q 3081 428 3442 575 
Q 3803 722 4122 1019 
L 4122 359 
Q 3791 134 3420 21 
Q 3050 -91 2638 -91 
Q 1578 -91 968 557 
Q 359 1206 359 2328 
Q 359 3453 968 4101 
Q 1578 4750 2638 4750 
Q 3056 4750 3426 4639 
Q 3797 4528 4122 4306 
z
" id="DejaVuSans-43" transform="scale(0.015625)"/>
       <path d="M 2841 2188 
Q 3044 2119 3236 1894 
Q 3428 1669 3622 1275 
L 4263 0 
L 3584 0 
L 2988 1197 
Q 2756 1666 2539 1819 
Q 2322 1972 1947 1972 
L 1259 1972 
L 1259 0 
L 628 0 
L 628 4666 
L 2053 4666 
Q 2853 4666 3247 4331 
Q 3641 3997 3641 3322 
Q 3641 2881 3436 2590 
Q 3231 2300 2841 2188 
z
M 1259 4147 
L 1259 2491 
L 2053 2491 
Q 2509 2491 2742 2702 
Q 2975 2913 2975 3322 
Q 2975 3731 2742 3939 
Q 2509 4147 2053 4147 
L 1259 4147 
z
" id="DejaVuSans-52" transform="scale(0.015625)"/>
       <path d="M 3425 4513 
L 3425 3897 
Q 3066 4069 2747 4153 
Q 2428 4238 2131 4238 
Q 1616 4238 1336 4038 
Q 1056 3838 1056 3469 
Q 1056 3159 1242 3001 
Q 1428 2844 1947 2747 
L 2328 2669 
Q 3034 2534 3370 2195 
Q 3706 1856 3706 1288 
Q 3706 609 3251 259 
Q 2797 -91 1919 -91 
Q 1588 -91 1214 -16 
Q 841 59 441 206 
L 441 856 
Q 825 641 1194 531 
Q 1563 422 1919 422 
Q 2459 422 2753 634 
Q 3047 847 3047 1241 
Q 3047 1584 2836 1778 
Q 2625 1972 2144 2069 
L 1759 2144 
Q 1053 2284 737 2584 
Q 422 2884 422 3419 
Q 422 4038 858 4394 
Q 1294 4750 2059 4750 
Q 2388 4750 2728 4690 
Q 3069 4631 3425 4513 
z
" id="DejaVuSans-53" transform="scale(0.015625)"/>
       <path id="DejaVuSans-20" transform="scale(0.015625)"/>
       <path d="M 1984 4856 
Q 1566 4138 1362 3434 
Q 1159 2731 1159 2009 
Q 1159 1288 1364 580 
Q 1569 -128 1984 -844 
L 1484 -844 
Q 1016 -109 783 600 
Q 550 1309 550 2009 
Q 550 2706 781 3412 
Q 1013 4119 1484 4856 
L 1984 4856 
z
" id="DejaVuSans-28" transform="scale(0.015625)"/>
       <path d="M 628 4666 
L 1569 4666 
L 2759 1491 
L 3956 4666 
L 4897 4666 
L 4897 0 
L 4281 0 
L 4281 4097 
L 3078 897 
L 2444 897 
L 1241 4097 
L 1241 0 
L 628 0 
L 628 4666 
z
" id="DejaVuSans-4d" transform="scale(0.015625)"/>
       <path d="M 1259 4147 
L 1259 2394 
L 2053 2394 
Q 2494 2394 2734 2622 
Q 2975 2850 2975 3272 
Q 2975 3691 2734 3919 
Q 2494 4147 2053 4147 
L 1259 4147 
z
M 628 4666 
L 2053 4666 
Q 2838 4666 3239 4311 
Q 3641 3956 3641 3272 
Q 3641 2581 3239 2228 
Q 2838 1875 2053 1875 
L 1259 1875 
L 1259 0 
L 628 0 
L 628 4666 
z
" id="DejaVuSans-50" transform="scale(0.015625)"/>
       <path d="M 2194 1759 
Q 1497 1759 1228 1600 
Q 959 1441 959 1056 
Q 959 750 1161 570 
Q 1363 391 1709 391 
Q 2188 391 2477 730 
Q 2766 1069 2766 1631 
L 2766 1759 
L 2194 1759 
z
M 3341 1997 
L 3341 0 
L 2766 0 
L 2766 531 
Q 2569 213 2275 61 
Q 1981 -91 1556 -91 
Q 1019 -91 701 211 
Q 384 513 384 1019 
Q 384 1609 779 1909 
Q 1175 2209 1959 2209 
L 2766 2209 
L 2766 2266 
Q 2766 2663 2505 2880 
Q 2244 3097 1772 3097 
Q 1472 3097 1187 3025 
Q 903 2953 641 2809 
L 641 3341 
Q 956 3463 1253 3523 
Q 1550 3584 1831 3584 
Q 2591 3584 2966 3190 
Q 3341 2797 3341 1997 
z
" id="DejaVuSans-61" transform="scale(0.015625)"/>
       <path d="M 513 4856 
L 1013 4856 
Q 1481 4119 1714 3412 
Q 1947 2706 1947 2009 
Q 1947 1309 1714 600 
Q 1481 -109 1013 -844 
L 513 -844 
Q 928 -128 1133 580 
Q 1338 1288 1338 2009 
Q 1338 2731 1133 3434 
Q 928 4138 513 4856 
z
" id="DejaVuSans-29" transform="scale(0.015625)"/>
      </defs>
      <use xlink:href="#DejaVuSans-43"/>
      <use x="69.824219" xlink:href="#DejaVuSans-52"/>
      <use x="139.306641" xlink:href="#DejaVuSans-53"/>
      <use x="202.783203" xlink:href="#DejaVuSans-53"/>
      <use x="266.259766" xlink:href="#DejaVuSans-20"/>
      <use x="298.046875" xlink:href="#DejaVuSans-28"/>
      <use x="337.060547" xlink:href="#DejaVuSans-4d"/>
      <use x="423.339844" xlink:href="#DejaVuSans-50"/>
      <use x="479.142578" xlink:href="#DejaVuSans-61"/>
      <use x="540.421875" xlink:href="#DejaVuSans-29"/>
     </g>
    </g>
   </g>
   <g id="matplotlib.axis_2">
    <g id="ytick_1">
     <g id="line2d_10">
      <defs>
       <path d="M 0 0 
L -10 0 
" id="m9ed775b9a2" style="stroke:#000000;stroke-width:0.8;"/>
      </defs>
      <g>
       <use style="stroke:#000000;stroke-width:0.8;" x="68.26" xlink:href="#m9ed775b9a2" y="374.9"/>
      </g>
     </g>
     <g id="text_11">
      <!-- 0.0 -->
      <g transform="translate(29.315 380.97875)scale(0.16 -0.16)">
       <defs>
        <path d="M 684 794 
L 1344 794 
L 1344 0 
L 684 0 
L 684 794 
z
" id="DejaVuSans-2e" transform="scale(0.015625)"/>
       </defs>
       <use xlink:href="#DejaVuSans-30"/>
       <use x="63.623047" xlink:href="#DejaVuSans-2e"/>
       <use x="95.410156" xlink:href="#DejaVuSans-30"/>
      </g>
     </g>
    </g>
    <g id="ytick_2">
     <g id="line2d_11">
      <g>
       <use style="stroke:#000000;stroke-width:0.8;" x="68.26" xlink:href="#m9ed775b9a2" y="303.232"/>
      </g>
     </g>
     <g id="text_12">
      <!-- 0.2 -->
      <g transform="translate(29.315 309.31075)scale(0.16 -0.16)">
       <use xlink:href="#DejaVuSans-30"/>
       <use x="63.623047" xlink:href="#DejaVuSans-2e"/>
       <use x="95.410156" xlink:href="#DejaVuSans-32"/>
      </g>
     </g>
    </g>
    <g id="ytick_3">
     <g id="line2d_12">
      <g>
       <use style="stroke:#000000;stroke-width:0.8;" x="68.26" xlink:href="#m9ed775b9a2" y="231.564"/>
      </g>
     </g>
     <g id="text_13">
      <!-- 0.4 -->
      <g transform="translate(29.315 237.64275)scale(0.16 -0.16)">
       <use xlink:href="#DejaVuSans-30"/>
       <use x="63.623047" xlink:href="#DejaVuSans-2e"/>
       <use x="95.410156" xlink:href="#DejaVuSans-34"/>
      </g>
     </g>
    </g>
    <g id="ytick_4">
     <g id="line2d_13">
      <g>
       <use style="stroke:#000000;stroke-width:0.8;" x="68.26" xlink:href="#m9ed775b9a2" y="159.896"/>
      </g>
     </g>
     <g id="text_14">
      <!-- 0.6 -->
      <g transform="translate(29.315 165.97475)scale(0.16 -0.16)">
       <defs>
        <path d="M 2113 2584 
Q 1688 2584 1439 2293 
Q 1191 2003 1191 1497 
Q 1191 994 1439 701 
Q 1688 409 2113 409 
Q 2538 409 2786 701 
Q 3034 994 3034 1497 
Q 3034 2003 2786 2293 
Q 2538 2584 2113 2584 
z
M 3366 4563 
L 3366 3988 
Q 3128 4100 2886 4159 
Q 2644 4219 2406 4219 
Q 1781 4219 1451 3797 
Q 1122 3375 1075 2522 
Q 1259 2794 1537 2939 
Q 1816 3084 2150 3084 
Q 2853 3084 3261 2657 
Q 3669 2231 3669 1497 
Q 3669 778 3244 343 
Q 2819 -91 2113 -91 
Q 1303 -91 875 529 
Q 447 1150 447 2328 
Q 447 3434 972 4092 
Q 1497 4750 2381 4750 
Q 2619 4750 2861 4703 
Q 3103 4656 3366 4563 
z
" id="DejaVuSans-36" transform="scale(0.015625)"/>
       </defs>
       <use xlink:href="#DejaVuSans-30"/>
       <use x="63.623047" xlink:href="#DejaVuSans-2e"/>
       <use x="95.410156" xlink:href="#DejaVuSans-36"/>
      </g>
     </g>
    </g>
    <g id="ytick_5">
     <g id="line2d_14">
      <g>
       <use style="stroke:#000000;stroke-width:0.8;" x="68.26" xlink:href="#m9ed775b9a2" y="88.228"/>
      </g>
     </g>
     <g id="text_15">
      <!-- 0.8 -->
      <g transform="translate(29.315 94.30675)scale(0.16 -0.16)">
       <defs>
        <path d="M 2034 2216 
Q 1584 2216 1326 1975 
Q 1069 1734 1069 1313 
Q 1069 891 1326 650 
Q 1584 409 2034 409 
Q 2484 409 2743 651 
Q 3003 894 3003 1313 
Q 3003 1734 2745 1975 
Q 2488 2216 2034 2216 
z
M 1403 2484 
Q 997 2584 770 2862 
Q 544 3141 544 3541 
Q 544 4100 942 4425 
Q 1341 4750 2034 4750 
Q 2731 4750 3128 4425 
Q 3525 4100 3525 3541 
Q 3525 3141 3298 2862 
Q 3072 2584 2669 2484 
Q 3125 2378 3379 2068 
Q 3634 1759 3634 1313 
Q 3634 634 3220 271 
Q 2806 -91 2034 -91 
Q 1263 -91 848 271 
Q 434 634 434 1313 
Q 434 1759 690 2068 
Q 947 2378 1403 2484 
z
M 1172 3481 
Q 1172 3119 1398 2916 
Q 1625 2713 2034 2713 
Q 2441 2713 2670 2916 
Q 2900 3119 2900 3481 
Q 2900 3844 2670 4047 
Q 2441 4250 2034 4250 
Q 1625 4250 1398 4047 
Q 1172 3844 1172 3481 
z
" id="DejaVuSans-38" transform="scale(0.015625)"/>
       </defs>
       <use xlink:href="#DejaVuSans-30"/>
       <use x="63.623047" xlink:href="#DejaVuSans-2e"/>
       <use x="95.410156" xlink:href="#DejaVuSans-38"/>
      </g>
     </g>
    </g>
    <g id="ytick_6">
     <g id="line2d_15">
      <g>
       <use style="stroke:#000000;stroke-width:0.8;" x="68.26" xlink:href="#m9ed775b9a2" y="16.56"/>
      </g>
     </g>
     <g id="text_16">
      <!-- 1.0 -->
      <g transform="translate(29.315 22.63875)scale(0.16 -0.16)">
       <use xlink:href="#DejaVuSans-31"/>
       <use x="63.623047" xlink:href="#DejaVuSans-2e"/>
       <use x="95.410156" xlink:href="#DejaVuSans-30"/>
      </g>
     </g>
    </g>
    <g id="text_17">
     <!-- Proportion -->
     <g transform="translate(21.9875 237.00375)rotate(-90)scale(0.16 -0.16)">
      <defs>
       <path d="M 2631 2963 
Q 2534 3019 2420 3045 
Q 2306 3072 2169 3072 
Q 1681 3072 1420 2755 
Q 1159 2438 1159 1844 
L 1159 0 
L 581 0 
L 581 3500 
L 1159 3500 
L 1159 2956 
Q 1341 3275 1631 3429 
Q 1922 3584 2338 3584 
Q 2397 3584 2469 3576 
Q 2541 3569 2628 3553 
L 2631 2963 
z
" id="DejaVuSans-72" transform="scale(0.015625)"/>
       <path d="M 1959 3097 
Q 1497 3097 1228 2736 
Q 959 2375 959 1747 
Q 959 1119 1226 758 
Q 1494 397 1959 397 
Q 2419 397 2687 759 
Q 2956 1122 2956 1747 
Q 2956 2369 2687 2733 
Q 2419 3097 1959 3097 
z
M 1959 3584 
Q 2709 3584 3137 3096 
Q 3566 2609 3566 1747 
Q 3566 888 3137 398 
Q 2709 -91 1959 -91 
Q 1206 -91 779 398 
Q 353 888 353 1747 
Q 353 2609 779 3096 
Q 1206 3584 1959 3584 
z
" id="DejaVuSans-6f" transform="scale(0.015625)"/>
       <path d="M 1159 525 
L 1159 -1331 
L 581 -1331 
L 581 3500 
L 1159 3500 
L 1159 2969 
Q 1341 3281 1617 3432 
Q 1894 3584 2278 3584 
Q 2916 3584 3314 3078 
Q 3713 2572 3713 1747 
Q 3713 922 3314 415 
Q 2916 -91 2278 -91 
Q 1894 -91 1617 61 
Q 1341 213 1159 525 
z
M 3116 1747 
Q 3116 2381 2855 2742 
Q 2594 3103 2138 3103 
Q 1681 3103 1420 2742 
Q 1159 2381 1159 1747 
Q 1159 1113 1420 752 
Q 1681 391 2138 391 
Q 2594 391 2855 752 
Q 3116 1113 3116 1747 
z
" id="DejaVuSans-70" transform="scale(0.015625)"/>
       <path d="M 1172 4494 
L 1172 3500 
L 2356 3500 
L 2356 3053 
L 1172 3053 
L 1172 1153 
Q 1172 725 1289 603 
Q 1406 481 1766 481 
L 2356 481 
L 2356 0 
L 1766 0 
Q 1100 0 847 248 
Q 594 497 594 1153 
L 594 3053 
L 172 3053 
L 172 3500 
L 594 3500 
L 594 4494 
L 1172 4494 
z
" id="DejaVuSans-74" transform="scale(0.015625)"/>
       <path d="M 603 3500 
L 1178 3500 
L 1178 0 
L 603 0 
L 603 3500 
z
M 603 4863 
L 1178 4863 
L 1178 4134 
L 603 4134 
L 603 4863 
z
" id="DejaVuSans-69" transform="scale(0.015625)"/>
       <path d="M 3513 2113 
L 3513 0 
L 2938 0 
L 2938 2094 
Q 2938 2591 2744 2837 
Q 2550 3084 2163 3084 
Q 1697 3084 1428 2787 
Q 1159 2491 1159 1978 
L 1159 0 
L 581 0 
L 581 3500 
L 1159 3500 
L 1159 2956 
Q 1366 3272 1645 3428 
Q 1925 3584 2291 3584 
Q 2894 3584 3203 3211 
Q 3513 2838 3513 2113 
z
" id="DejaVuSans-6e" transform="scale(0.015625)"/>
      </defs>
      <use xlink:href="#DejaVuSans-50"/>
      <use x="58.552734" xlink:href="#DejaVuSans-72"/>
      <use x="97.416016" xlink:href="#DejaVuSans-6f"/>
      <use x="158.597656" xlink:href="#DejaVuSans-70"/>
      <use x="222.074219" xlink:href="#DejaVuSans-6f"/>
      <use x="283.255859" xlink:href="#DejaVuSans-72"/>
      <use x="324.369141" xlink:href="#DejaVuSans-74"/>
      <use x="363.578125" xlink:href="#DejaVuSans-69"/>
      <use x="391.361328" xlink:href="#DejaVuSans-6f"/>
      <use x="452.542969" xlink:href="#DejaVuSans-6e"/>
     </g>
    </g>
   </g>
   <g id="line2d_16">
    <path clip-path="url(#pd6460d50d2)" d="M 80.22411 374.9 
L 80.22411 358.611818 
L 102.377095 358.611818 
L 102.377095 342.323636 
L 111.207639 342.323636 
L 111.207639 326.035455 
L 116.655053 326.035455 
L 116.655053 309.747273 
L 120.325186 309.747273 
L 120.325186 293.459091 
L 120.963842 293.459091 
L 120.963842 277.170909 
L 121.157304 277.170909 
L 121.157304 260.882727 
L 127.595387 260.882727 
L 127.595387 244.594545 
L 129.072542 244.594545 
L 129.072542 228.306364 
L 138.867269 228.306364 
L 138.867269 212.018182 
L 148.597348 212.018182 
L 148.597348 195.73 
L 150.215717 195.73 
L 150.215717 179.441818 
L 153.387446 179.441818 
L 153.387446 163.153636 
L 163.196258 163.153636 
L 163.196258 146.865455 
L 170.945722 146.865455 
L 170.945722 130.577273 
L 186.934386 130.577273 
L 186.934386 114.289091 
L 191.354293 114.289091 
L 191.354293 98.000909 
L 194.363498 98.000909 
L 194.363498 81.712727 
L 200.325087 81.712727 
L 200.325087 65.424545 
L 218.284495 65.424545 
L 218.284495 49.136364 
L 259.7492 49.136364 
L 259.7492 32.848182 
L 296.857804 32.848182 
L 296.857804 16.56 
" style="fill:none;stroke:#1f77b4;stroke-dasharray:6,9.9;stroke-dashoffset:0;stroke-width:6;"/>
   </g>
   <g id="line2d_17">
    <path clip-path="url(#pd6460d50d2)" d="M 6.800424 374.9 
L 6.800424 370.781149 
L 69.408238 370.781149 
L 69.408238 366.662299 
L 76.440119 366.662299 
L 76.440119 362.543448 
L 78.318353 362.543448 
L 78.318353 358.424598 
L 84.025038 358.424598 
L 84.025038 354.305747 
L 90.504321 354.305747 
L 90.504321 350.186897 
L 92.819643 350.186897 
L 92.819643 346.068046 
L 93.171234 346.068046 
L 93.171234 341.949195 
L 97.726047 341.949195 
L 97.726047 337.830345 
L 101.5565 337.830345 
L 101.5565 333.711494 
L 103.293765 333.711494 
L 103.403672 325.473793 
L 105.532077 325.473793 
L 105.532077 321.354943 
L 108.742394 321.354943 
L 108.742394 317.236092 
L 112.976866 317.236092 
L 112.976866 313.117241 
L 116.95535 313.117241 
L 116.95535 308.998391 
L 118.422171 308.998391 
L 118.422171 304.87954 
L 121.904562 304.87954 
L 121.904562 300.76069 
L 122.191793 300.76069 
L 122.191793 296.641839 
L 123.507729 296.641839 
L 123.507729 292.522989 
L 125.849175 292.522989 
L 125.849175 288.404138 
L 126.54538 288.404138 
L 126.54538 284.285287 
L 127.808943 284.285287 
L 127.808943 280.166437 
L 131.471394 280.166437 
L 131.471394 276.047586 
L 131.77591 276.047586 
L 131.77591 271.928736 
L 133.293917 271.928736 
L 133.293917 267.809885 
L 133.450143 267.809885 
L 133.450143 263.691034 
L 134.248731 263.691034 
L 134.248731 259.572184 
L 134.667842 259.572184 
L 134.667842 255.453333 
L 135.432345 255.453333 
L 135.432345 251.334483 
L 136.926321 251.334483 
L 136.926321 247.215632 
L 137.647818 247.215632 
L 137.740187 238.977931 
L 137.900762 238.977931 
L 137.900762 234.85908 
L 138.063863 234.85908 
L 138.063863 230.74023 
L 139.895272 230.74023 
L 139.895272 226.621379 
L 141.311499 226.621379 
L 141.311499 222.502529 
L 145.656475 222.502529 
L 145.656475 218.383678 
L 148.237481 218.383678 
L 148.237481 214.264828 
L 148.735031 214.264828 
L 148.823242 206.027126 
L 149.192116 206.027126 
L 149.192116 201.908276 
L 150.340319 201.908276 
L 150.340319 197.789425 
L 152.280722 197.789425 
L 152.280722 193.670575 
L 153.329692 193.670575 
L 153.329692 189.551724 
L 154.373873 189.551724 
L 154.373873 185.432874 
L 158.176934 185.432874 
L 158.176934 181.314023 
L 158.648923 181.314023 
L 158.648923 177.195172 
L 159.3306 177.195172 
L 159.3306 173.076322 
L 162.731504 173.076322 
L 162.731504 168.957471 
L 163.028794 168.957471 
L 163.028794 164.838621 
L 164.013993 164.838621 
L 164.013993 160.71977 
L 168.091698 160.71977 
L 168.091698 156.60092 
L 170.82238 156.60092 
L 170.82238 152.482069 
L 173.665543 152.482069 
L 173.665543 148.363218 
L 175.415395 148.363218 
L 175.415395 144.244368 
L 175.564154 144.244368 
L 175.564154 140.125517 
L 176.16404 140.125517 
L 176.16404 136.006667 
L 176.811112 136.006667 
L 176.811112 131.887816 
L 177.579629 131.887816 
L 177.579629 127.768966 
L 178.323195 127.768966 
L 178.323195 123.650115 
L 179.559755 123.650115 
L 179.559755 119.531264 
L 183.388352 119.531264 
L 183.388352 115.412414 
L 184.134679 115.412414 
L 184.187338 103.055862 
L 187.60928 103.055862 
L 187.60928 98.937011 
L 190.542721 98.937011 
L 190.542721 94.818161 
L 190.703419 94.818161 
L 190.703419 90.69931 
L 190.965455 90.69931 
L 190.965455 86.58046 
L 192.309316 86.58046 
L 192.309316 82.461609 
L 194.8354 82.461609 
L 194.8354 78.342759 
L 196.256795 78.342759 
L 196.256795 74.223908 
L 198.796239 74.223908 
L 198.796239 70.105057 
L 203.334887 70.105057 
L 203.334887 65.986207 
L 203.98623 65.986207 
L 203.98623 61.867356 
L 205.007098 61.867356 
L 205.007098 57.748506 
L 205.718062 57.748506 
L 205.718062 53.629655 
L 207.365704 53.629655 
L 207.365704 49.510805 
L 208.694822 49.510805 
L 208.694822 45.391954 
L 214.017298 45.391954 
L 214.017298 41.273103 
L 226.316491 41.273103 
L 226.316491 37.154253 
L 229.28218 37.154253 
L 229.28218 33.035402 
L 234.666143 33.035402 
L 234.666143 28.916552 
L 260.415285 28.916552 
L 260.415285 24.797701 
L 288.779408 24.797701 
L 288.779408 20.678851 
L 342.499876 20.678851 
L 342.499876 16.56 
L 342.499876 16.56 
" style="fill:none;stroke:#1f77b4;stroke-linecap:square;stroke-width:4;"/>
   </g>
   <g id="line2d_18">
    <path clip-path="url(#pd6460d50d2)" d="M 194.690471 374.9 
L 194.690471 351.010667 
L 196.906805 351.010667 
L 196.906805 327.121333 
L 204.19073 327.121333 
L 204.19073 303.232 
L 204.808318 303.232 
L 204.808318 279.342667 
L 217.486326 279.342667 
L 217.486326 255.453333 
L 219.137801 255.453333 
L 219.137801 231.564 
L 219.888056 231.564 
L 219.888056 207.674667 
L 227.781142 207.674667 
L 227.781142 183.785333 
L 230.244993 183.785333 
L 230.244993 159.896 
L 241.837587 159.896 
L 241.837587 136.006667 
L 254.388706 136.006667 
L 254.388706 112.117333 
L 276.405172 112.117333 
L 276.405172 88.228 
L 287.040685 88.228 
L 287.040685 64.338667 
L 307.889152 64.338667 
L 307.889152 40.449333 
L 308.93869 40.449333 
L 308.93869 16.56 
" style="fill:none;stroke:#ff7f0e;stroke-dasharray:6,9.9;stroke-dashoffset:0;stroke-width:6;"/>
   </g>
   <g id="line2d_19">
    <path clip-path="url(#pd6460d50d2)" d="M 65.640558 374.9 
L 65.640558 370.781149 
L 132.076141 370.781149 
L 132.076141 366.662299 
L 132.282299 366.662299 
L 132.282299 362.543448 
L 141.80566 362.543448 
L 141.80566 358.424598 
L 145.460278 358.424598 
L 145.460278 354.305747 
L 159.029613 354.305747 
L 159.029613 350.186897 
L 160.412582 350.186897 
L 160.412582 346.068046 
L 161.357501 346.068046 
L 161.357501 341.949195 
L 166.042028 341.949195 
L 166.042028 337.830345 
L 169.605629 337.830345 
L 169.605629 333.711494 
L 171.545149 333.711494 
L 171.545149 329.592644 
L 173.749086 329.592644 
L 173.749086 325.473793 
L 178.963708 325.473793 
L 178.963708 321.354943 
L 181.616716 321.354943 
L 181.616716 317.236092 
L 184.317744 317.236092 
L 184.317744 313.117241 
L 185.7962 313.117241 
L 185.7962 308.998391 
L 188.08929 308.998391 
L 188.08929 304.87954 
L 190.311391 304.87954 
L 190.311391 300.76069 
L 195.664303 300.76069 
L 195.664303 296.641839 
L 203.963763 296.641839 
L 203.963763 292.522989 
L 205.384444 292.522989 
L 205.384444 288.404138 
L 205.939506 288.404138 
L 206.029645 276.047586 
L 212.815833 276.047586 
L 212.815833 271.928736 
L 214.806731 271.928736 
L 214.806731 267.809885 
L 216.464391 267.809885 
L 216.464391 263.691034 
L 217.791583 263.691034 
L 217.791583 259.572184 
L 219.117453 259.572184 
L 219.202801 247.215632 
L 219.242913 247.215632 
L 219.242913 243.096782 
L 222.187269 243.096782 
L 222.187269 238.977931 
L 222.303499 238.977931 
L 222.303499 234.85908 
L 223.45846 234.85908 
L 223.45846 230.74023 
L 224.631728 230.74023 
L 224.631728 226.621379 
L 226.968527 226.621379 
L 226.97085 218.383678 
L 227.079882 218.383678 
L 227.079882 214.264828 
L 227.926323 214.264828 
L 227.926323 210.145977 
L 228.643945 210.145977 
L 228.643945 206.027126 
L 231.957038 206.027126 
L 231.957038 201.908276 
L 232.160182 201.908276 
L 232.160182 197.789425 
L 233.462382 197.789425 
L 233.462382 193.670575 
L 233.724112 193.670575 
L 233.724112 189.551724 
L 235.621872 189.551724 
L 235.621872 185.432874 
L 237.139725 185.432874 
L 237.139725 181.314023 
L 237.280506 181.314023 
L 237.280506 177.195172 
L 237.794255 177.195172 
L 237.794255 173.076322 
L 238.374169 173.076322 
L 238.374169 168.957471 
L 238.709582 168.957471 
L 238.709582 164.838621 
L 240.214811 164.838621 
L 240.214811 160.71977 
L 240.360214 160.71977 
L 240.360214 156.60092 
L 242.780565 156.60092 
L 242.780565 152.482069 
L 243.887204 152.482069 
L 243.887204 148.363218 
L 248.405042 148.363218 
L 248.405042 144.244368 
L 249.781921 144.244368 
L 249.781921 140.125517 
L 252.454317 140.125517 
L 252.454317 136.006667 
L 253.427693 136.006667 
L 253.427693 131.887816 
L 254.517888 131.887816 
L 254.517888 127.768966 
L 256.083565 127.768966 
L 256.083565 123.650115 
L 256.49356 123.650115 
L 256.49356 119.531264 
L 257.848781 119.531264 
L 257.848781 115.412414 
L 259.189009 115.412414 
L 259.189009 111.293563 
L 263.801416 111.293563 
L 263.801416 107.174713 
L 265.078954 107.174713 
L 265.103084 98.937011 
L 266.377789 98.937011 
L 266.377789 94.818161 
L 269.970806 94.818161 
L 269.970806 90.69931 
L 270.85828 90.69931 
L 270.897074 82.461609 
L 271.513773 82.461609 
L 271.513773 78.342759 
L 282.285315 78.342759 
L 282.285315 74.223908 
L 285.877355 74.223908 
L 285.877355 70.105057 
L 286.785295 70.105057 
L 286.785295 65.986207 
L 289.05989 65.986207 
L 289.05989 61.867356 
L 292.921969 61.867356 
L 292.921969 57.748506 
L 297.776378 57.748506 
L 297.876957 49.510805 
L 303.197344 49.510805 
L 303.197344 45.391954 
L 306.783516 45.391954 
L 306.783516 41.273103 
L 314.131102 41.273103 
L 314.131102 37.154253 
L 322.184091 37.154253 
L 322.184091 33.035402 
L 322.305082 33.035402 
L 322.305082 28.916552 
L 326.772204 28.916552 
L 326.772204 24.797701 
L 334.846328 24.797701 
L 334.846328 20.678851 
L 374.272313 20.678851 
L 374.272313 16.56 
L 374.272313 16.56 
" style="fill:none;stroke:#ff7f0e;stroke-linecap:square;stroke-width:4;"/>
   </g>
   <g id="line2d_20">
    <path clip-path="url(#pd6460d50d2)" d="M 203.385579 374.9 
L 203.385579 354.992222 
L 233.148258 354.992222 
L 233.148258 335.084444 
L 235.525911 335.084444 
L 235.525911 315.176667 
L 237.702276 315.176667 
L 237.702276 295.268889 
L 245.597288 295.268889 
L 245.597288 275.361111 
L 248.352356 275.361111 
L 248.352356 255.453333 
L 259.194575 255.453333 
L 259.194575 235.545556 
L 270.874329 235.545556 
L 270.874329 215.637778 
L 274.65233 215.637778 
L 274.65233 195.73 
L 284.526031 195.73 
L 284.526031 175.822222 
L 285.351408 175.822222 
L 285.351408 155.914444 
L 292.386372 155.914444 
L 292.386372 136.006667 
L 300.630267 136.006667 
L 300.630267 116.098889 
L 300.81434 116.098889 
L 300.81434 96.191111 
L 302.675049 96.191111 
L 302.675049 76.283333 
L 309.450096 76.283333 
L 309.450096 56.375556 
L 319.983039 56.375556 
L 319.983039 36.467778 
L 368.600207 36.467778 
L 368.600207 16.56 
" style="fill:none;stroke:#2ca02c;stroke-dasharray:6,9.9;stroke-dashoffset:0;stroke-width:6;"/>
   </g>
   <g id="line2d_21">
    <path clip-path="url(#pd6460d50d2)" d="M 93.644062 374.9 
L 93.644062 370.781149 
L 155.31168 370.781149 
L 155.31168 366.662299 
L 158.746926 366.662299 
L 158.746926 362.543448 
L 170.904874 362.543448 
L 170.904874 358.424598 
L 175.036603 358.424598 
L 175.036603 354.305747 
L 188.119783 354.305747 
L 188.119783 350.186897 
L 189.251543 350.186897 
L 189.251543 346.068046 
L 191.001128 346.068046 
L 191.001128 341.949195 
L 194.938007 341.949195 
L 194.938007 337.830345 
L 197.798976 337.830345 
L 197.798976 333.711494 
L 200.896785 333.711494 
L 200.896785 329.592644 
L 203.01228 329.592644 
L 203.01228 325.473793 
L 203.709885 325.473793 
L 203.709885 321.354943 
L 205.142705 321.354943 
L 205.142705 317.236092 
L 208.175862 317.236092 
L 208.175862 313.117241 
L 215.577093 313.117241 
L 215.577093 308.998391 
L 218.558682 308.998391 
L 218.558682 304.87954 
L 220.877528 304.87954 
L 220.877528 300.76069 
L 222.928299 300.76069 
L 222.928299 296.641839 
L 228.596841 296.641839 
L 228.596841 292.522989 
L 229.021349 292.522989 
L 229.021349 288.404138 
L 229.200949 288.404138 
L 229.200949 284.285287 
L 232.468038 284.285287 
L 232.468038 280.166437 
L 236.871414 280.166437 
L 236.972798 271.928736 
L 247.559948 271.928736 
L 247.559948 267.809885 
L 247.848714 267.809885 
L 247.848714 263.691034 
L 251.178906 263.691034 
L 251.178906 259.572184 
L 252.702539 259.572184 
L 252.702539 255.453333 
L 254.044762 255.453333 
L 254.044762 251.334483 
L 255.77908 251.334483 
L 255.77908 247.215632 
L 256.021813 247.215632 
L 256.021813 243.096782 
L 257.761301 243.096782 
L 257.761301 238.977931 
L 258.110914 238.977931 
L 258.110914 234.85908 
L 258.613966 234.85908 
L 258.613966 230.74023 
L 261.009348 230.74023 
L 261.009348 226.621379 
L 261.562964 226.621379 
L 261.562964 222.502529 
L 262.169721 222.502529 
L 262.169721 218.383678 
L 262.591 218.383678 
L 262.591 214.264828 
L 265.198225 214.264828 
L 265.198225 210.145977 
L 265.370353 210.145977 
L 265.370353 206.027126 
L 268.267867 206.027126 
L 268.267867 201.908276 
L 269.054829 201.908276 
L 269.054829 197.789425 
L 270.617845 197.789425 
L 270.617845 193.670575 
L 271.639344 193.670575 
L 271.67991 185.432874 
L 272.873033 185.432874 
L 272.873033 181.314023 
L 273.016293 181.314023 
L 273.016293 177.195172 
L 273.446815 177.195172 
L 273.446815 173.076322 
L 274.108513 173.076322 
L 274.108513 168.957471 
L 274.790573 168.957471 
L 274.790573 164.838621 
L 275.409756 164.838621 
L 275.409756 160.71977 
L 276.957108 160.71977 
L 276.957108 156.60092 
L 278.853017 156.60092 
L 278.853017 152.482069 
L 279.889015 152.482069 
L 279.889015 148.363218 
L 282.986887 148.363218 
L 282.986887 144.244368 
L 284.830766 144.244368 
L 284.830766 140.125517 
L 285.19051 140.125517 
L 285.19051 136.006667 
L 286.193195 136.006667 
L 286.193195 131.887816 
L 286.91927 131.887816 
L 287.014183 123.650115 
L 289.111849 123.650115 
L 289.111849 119.531264 
L 291.403966 119.531264 
L 291.403966 115.412414 
L 294.642309 115.412414 
L 294.642309 111.293563 
L 295.98157 111.293563 
L 295.98157 107.174713 
L 300.188877 107.174713 
L 300.188877 103.055862 
L 300.645614 103.055862 
L 300.645614 98.937011 
L 304.934175 98.937011 
L 304.934175 94.818161 
L 312.521378 94.818161 
L 312.521378 90.69931 
L 313.127758 90.69931 
L 313.127758 86.58046 
L 313.264512 86.58046 
L 313.264512 82.461609 
L 317.86448 82.461609 
L 317.86448 78.342759 
L 319.911182 78.342759 
L 319.911182 74.223908 
L 324.377075 74.223908 
L 324.377075 70.105057 
L 325.088956 70.105057 
L 325.088956 65.986207 
L 325.327242 65.986207 
L 325.327242 61.867356 
L 329.28779 61.867356 
L 329.28779 57.748506 
L 336.239375 57.748506 
L 336.239375 53.629655 
L 343.548076 53.629655 
L 343.548076 49.510805 
L 344.421205 49.510805 
L 344.421205 45.391954 
L 346.297152 45.391954 
L 346.297152 41.273103 
L 354.027611 41.273103 
L 354.027611 37.154253 
L 355.999905 37.154253 
L 355.999905 33.035402 
L 368.933498 33.035402 
L 368.933498 28.916552 
L 379.415921 28.916552 
L 379.415921 24.797701 
L 386.880996 24.797701 
L 386.880996 20.678851 
L 396.497355 20.678851 
L 396.497355 16.56 
L 396.497355 16.56 
" style="fill:none;stroke:#2ca02c;stroke-linecap:square;stroke-width:4;"/>
   </g>
   <g id="patch_3">
    <path d="M 68.26 374.9 
L 68.26 16.56 
" style="fill:none;stroke:#000000;stroke-linecap:square;stroke-linejoin:miter;stroke-width:0.8;"/>
   </g>
   <g id="patch_4">
    <path d="M 549.81 374.9 
L 549.81 16.56 
" style="fill:none;stroke:#000000;stroke-linecap:square;stroke-linejoin:miter;stroke-width:0.8;"/>
   </g>
   <g id="patch_5">
    <path d="M 68.26 374.9 
L 549.81 374.9 
" style="fill:none;stroke:#000000;stroke-linecap:square;stroke-linejoin:miter;stroke-width:0.8;"/>
   </g>
   <g id="patch_6">
    <path d="M 68.26 16.56 
L 549.81 16.56 
" style="fill:none;stroke:#000000;stroke-linecap:square;stroke-linejoin:miter;stroke-width:0.8;"/>
   </g>
   <g id="legend_1">
    <g id="patch_7">
     <path d="M 350.719062 367.9 
L 540.01 367.9 
Q 542.81 367.9 542.81 365.1 
L 542.81 243.20375 
Q 542.81 240.40375 540.01 240.40375 
L 350.719062 240.40375 
Q 347.919062 240.40375 347.919062 243.20375 
L 347.919062 365.1 
Q 347.919062 367.9 350.719062 367.9 
z
" style="fill:#ffffff;opacity:0.8;stroke:#cccccc;stroke-linejoin:miter;"/>
    </g>
    <g id="line2d_22">
     <path d="M 353.519062 251.741562 
L 381.519062 251.741562 
" style="fill:none;stroke:#1f77b4;stroke-dasharray:6,9.9;stroke-dashoffset:0;stroke-width:6;"/>
    </g>
    <g id="line2d_23"/>
    <g id="text_18">
     <!-- Exp CRSS at 0.0% -->
     <g transform="translate(392.719062 256.641562)scale(0.14 -0.14)">
      <defs>
       <path d="M 628 4666 
L 3578 4666 
L 3578 4134 
L 1259 4134 
L 1259 2753 
L 3481 2753 
L 3481 2222 
L 1259 2222 
L 1259 531 
L 3634 531 
L 3634 0 
L 628 0 
L 628 4666 
z
" id="DejaVuSans-45" transform="scale(0.015625)"/>
       <path d="M 3513 3500 
L 2247 1797 
L 3578 0 
L 2900 0 
L 1881 1375 
L 863 0 
L 184 0 
L 1544 1831 
L 300 3500 
L 978 3500 
L 1906 2253 
L 2834 3500 
L 3513 3500 
z
" id="DejaVuSans-78" transform="scale(0.015625)"/>
       <path d="M 4653 2053 
Q 4381 2053 4226 1822 
Q 4072 1591 4072 1178 
Q 4072 772 4226 539 
Q 4381 306 4653 306 
Q 4919 306 5073 539 
Q 5228 772 5228 1178 
Q 5228 1588 5073 1820 
Q 4919 2053 4653 2053 
z
M 4653 2450 
Q 5147 2450 5437 2106 
Q 5728 1763 5728 1178 
Q 5728 594 5436 251 
Q 5144 -91 4653 -91 
Q 4153 -91 3862 251 
Q 3572 594 3572 1178 
Q 3572 1766 3864 2108 
Q 4156 2450 4653 2450 
z
M 1428 4353 
Q 1159 4353 1004 4120 
Q 850 3888 850 3481 
Q 850 3069 1003 2837 
Q 1156 2606 1428 2606 
Q 1700 2606 1854 2837 
Q 2009 3069 2009 3481 
Q 2009 3884 1853 4118 
Q 1697 4353 1428 4353 
z
M 4250 4750 
L 4750 4750 
L 1831 -91 
L 1331 -91 
L 4250 4750 
z
M 1428 4750 
Q 1922 4750 2215 4408 
Q 2509 4066 2509 3481 
Q 2509 2891 2217 2550 
Q 1925 2209 1428 2209 
Q 931 2209 642 2551 
Q 353 2894 353 3481 
Q 353 4063 643 4406 
Q 934 4750 1428 4750 
z
" id="DejaVuSans-25" transform="scale(0.015625)"/>
      </defs>
      <use xlink:href="#DejaVuSans-45"/>
      <use x="63.183594" xlink:href="#DejaVuSans-78"/>
      <use x="122.363281" xlink:href="#DejaVuSans-70"/>
      <use x="185.839844" xlink:href="#DejaVuSans-20"/>
      <use x="217.626953" xlink:href="#DejaVuSans-43"/>
      <use x="287.451172" xlink:href="#DejaVuSans-52"/>
      <use x="356.933594" xlink:href="#DejaVuSans-53"/>
      <use x="420.410156" xlink:href="#DejaVuSans-53"/>
      <use x="483.886719" xlink:href="#DejaVuSans-20"/>
      <use x="515.673828" xlink:href="#DejaVuSans-61"/>
      <use x="576.953125" xlink:href="#DejaVuSans-74"/>
      <use x="616.162109" xlink:href="#DejaVuSans-20"/>
      <use x="647.949219" xlink:href="#DejaVuSans-30"/>
      <use x="711.572266" xlink:href="#DejaVuSans-2e"/>
      <use x="743.359375" xlink:href="#DejaVuSans-30"/>
      <use x="806.982422" xlink:href="#DejaVuSans-25"/>
     </g>
    </g>
    <g id="line2d_24">
     <path d="M 353.519062 272.290937 
L 381.519062 272.290937 
" style="fill:none;stroke:#1f77b4;stroke-linecap:square;stroke-width:4;"/>
    </g>
    <g id="line2d_25"/>
    <g id="text_19">
     <!-- Sim CRSS at 0.20% -->
     <g transform="translate(392.719062 277.190937)scale(0.14 -0.14)">
      <defs>
       <path d="M 3328 2828 
Q 3544 3216 3844 3400 
Q 4144 3584 4550 3584 
Q 5097 3584 5394 3201 
Q 5691 2819 5691 2113 
L 5691 0 
L 5113 0 
L 5113 2094 
Q 5113 2597 4934 2840 
Q 4756 3084 4391 3084 
Q 3944 3084 3684 2787 
Q 3425 2491 3425 1978 
L 3425 0 
L 2847 0 
L 2847 2094 
Q 2847 2600 2669 2842 
Q 2491 3084 2119 3084 
Q 1678 3084 1418 2786 
Q 1159 2488 1159 1978 
L 1159 0 
L 581 0 
L 581 3500 
L 1159 3500 
L 1159 2956 
Q 1356 3278 1631 3431 
Q 1906 3584 2284 3584 
Q 2666 3584 2933 3390 
Q 3200 3197 3328 2828 
z
" id="DejaVuSans-6d" transform="scale(0.015625)"/>
      </defs>
      <use xlink:href="#DejaVuSans-53"/>
      <use x="63.476562" xlink:href="#DejaVuSans-69"/>
      <use x="91.259766" xlink:href="#DejaVuSans-6d"/>
      <use x="188.671875" xlink:href="#DejaVuSans-20"/>
      <use x="220.458984" xlink:href="#DejaVuSans-43"/>
      <use x="290.283203" xlink:href="#DejaVuSans-52"/>
      <use x="359.765625" xlink:href="#DejaVuSans-53"/>
      <use x="423.242188" xlink:href="#DejaVuSans-53"/>
      <use x="486.71875" xlink:href="#DejaVuSans-20"/>
      <use x="518.505859" xlink:href="#DejaVuSans-61"/>
      <use x="579.785156" xlink:href="#DejaVuSans-74"/>
      <use x="618.994141" xlink:href="#DejaVuSans-20"/>
      <use x="650.78125" xlink:href="#DejaVuSans-30"/>
      <use x="714.404297" xlink:href="#DejaVuSans-2e"/>
      <use x="746.191406" xlink:href="#DejaVuSans-32"/>
      <use x="809.814453" xlink:href="#DejaVuSans-30"/>
      <use x="873.4375" xlink:href="#DejaVuSans-25"/>
     </g>
    </g>
    <g id="line2d_26">
     <path d="M 353.519062 292.840312 
L 381.519062 292.840312 
" style="fill:none;stroke:#ff7f0e;stroke-dasharray:6,9.9;stroke-dashoffset:0;stroke-width:6;"/>
    </g>
    <g id="line2d_27"/>
    <g id="text_20">
     <!-- Exp CRSS at 9.6% -->
     <g transform="translate(392.719062 297.740312)scale(0.14 -0.14)">
      <defs>
       <path d="M 703 97 
L 703 672 
Q 941 559 1184 500 
Q 1428 441 1663 441 
Q 2288 441 2617 861 
Q 2947 1281 2994 2138 
Q 2813 1869 2534 1725 
Q 2256 1581 1919 1581 
Q 1219 1581 811 2004 
Q 403 2428 403 3163 
Q 403 3881 828 4315 
Q 1253 4750 1959 4750 
Q 2769 4750 3195 4129 
Q 3622 3509 3622 2328 
Q 3622 1225 3098 567 
Q 2575 -91 1691 -91 
Q 1453 -91 1209 -44 
Q 966 3 703 97 
z
M 1959 2075 
Q 2384 2075 2632 2365 
Q 2881 2656 2881 3163 
Q 2881 3666 2632 3958 
Q 2384 4250 1959 4250 
Q 1534 4250 1286 3958 
Q 1038 3666 1038 3163 
Q 1038 2656 1286 2365 
Q 1534 2075 1959 2075 
z
" id="DejaVuSans-39" transform="scale(0.015625)"/>
      </defs>
      <use xlink:href="#DejaVuSans-45"/>
      <use x="63.183594" xlink:href="#DejaVuSans-78"/>
      <use x="122.363281" xlink:href="#DejaVuSans-70"/>
      <use x="185.839844" xlink:href="#DejaVuSans-20"/>
      <use x="217.626953" xlink:href="#DejaVuSans-43"/>
      <use x="287.451172" xlink:href="#DejaVuSans-52"/>
      <use x="356.933594" xlink:href="#DejaVuSans-53"/>
      <use x="420.410156" xlink:href="#DejaVuSans-53"/>
      <use x="483.886719" xlink:href="#DejaVuSans-20"/>
      <use x="515.673828" xlink:href="#DejaVuSans-61"/>
      <use x="576.953125" xlink:href="#DejaVuSans-74"/>
      <use x="616.162109" xlink:href="#DejaVuSans-20"/>
      <use x="647.949219" xlink:href="#DejaVuSans-39"/>
      <use x="711.572266" xlink:href="#DejaVuSans-2e"/>
      <use x="743.359375" xlink:href="#DejaVuSans-36"/>
      <use x="806.982422" xlink:href="#DejaVuSans-25"/>
     </g>
    </g>
    <g id="line2d_28">
     <path d="M 353.519062 313.389687 
L 381.519062 313.389687 
" style="fill:none;stroke:#ff7f0e;stroke-linecap:square;stroke-width:4;"/>
    </g>
    <g id="line2d_29"/>
    <g id="text_21">
     <!-- Sim CRSS at 9.63% -->
     <g transform="translate(392.719062 318.289687)scale(0.14 -0.14)">
      <use xlink:href="#DejaVuSans-53"/>
      <use x="63.476562" xlink:href="#DejaVuSans-69"/>
      <use x="91.259766" xlink:href="#DejaVuSans-6d"/>
      <use x="188.671875" xlink:href="#DejaVuSans-20"/>
      <use x="220.458984" xlink:href="#DejaVuSans-43"/>
      <use x="290.283203" xlink:href="#DejaVuSans-52"/>
      <use x="359.765625" xlink:href="#DejaVuSans-53"/>
      <use x="423.242188" xlink:href="#DejaVuSans-53"/>
      <use x="486.71875" xlink:href="#DejaVuSans-20"/>
      <use x="518.505859" xlink:href="#DejaVuSans-61"/>
      <use x="579.785156" xlink:href="#DejaVuSans-74"/>
      <use x="618.994141" xlink:href="#DejaVuSans-20"/>
      <use x="650.78125" xlink:href="#DejaVuSans-39"/>
      <use x="714.404297" xlink:href="#DejaVuSans-2e"/>
      <use x="746.191406" xlink:href="#DejaVuSans-36"/>
      <use x="809.814453" xlink:href="#DejaVuSans-33"/>
      <use x="873.4375" xlink:href="#DejaVuSans-25"/>
     </g>
    </g>
    <g id="line2d_30">
     <path d="M 353.519062 333.939062 
L 381.519062 333.939062 
" style="fill:none;stroke:#2ca02c;stroke-dasharray:6,9.9;stroke-dashoffset:0;stroke-width:6;"/>
    </g>
    <g id="line2d_31"/>
    <g id="text_22">
     <!-- Exp CRSS at 14.6% -->
     <g transform="translate(392.719062 338.839062)scale(0.14 -0.14)">
      <use xlink:href="#DejaVuSans-45"/>
      <use x="63.183594" xlink:href="#DejaVuSans-78"/>
      <use x="122.363281" xlink:href="#DejaVuSans-70"/>
      <use x="185.839844" xlink:href="#DejaVuSans-20"/>
      <use x="217.626953" xlink:href="#DejaVuSans-43"/>
      <use x="287.451172" xlink:href="#DejaVuSans-52"/>
      <use x="356.933594" xlink:href="#DejaVuSans-53"/>
      <use x="420.410156" xlink:href="#DejaVuSans-53"/>
      <use x="483.886719" xlink:href="#DejaVuSans-20"/>
      <use x="515.673828" xlink:href="#DejaVuSans-61"/>
      <use x="576.953125" xlink:href="#DejaVuSans-74"/>
      <use x="616.162109" xlink:href="#DejaVuSans-20"/>
      <use x="647.949219" xlink:href="#DejaVuSans-31"/>
      <use x="711.572266" xlink:href="#DejaVuSans-34"/>
      <use x="775.195312" xlink:href="#DejaVuSans-2e"/>
      <use x="806.982422" xlink:href="#DejaVuSans-36"/>
      <use x="870.605469" xlink:href="#DejaVuSans-25"/>
     </g>
    </g>
    <g id="line2d_32">
     <path d="M 353.519062 354.488437 
L 381.519062 354.488437 
" style="fill:none;stroke:#2ca02c;stroke-linecap:square;stroke-width:4;"/>
    </g>
    <g id="line2d_33"/>
    <g id="text_23">
     <!-- Sim CRSS at 14.46% -->
     <g transform="translate(392.719062 359.388437)scale(0.14 -0.14)">
      <use xlink:href="#DejaVuSans-53"/>
      <use x="63.476562" xlink:href="#DejaVuSans-69"/>
      <use x="91.259766" xlink:href="#DejaVuSans-6d"/>
      <use x="188.671875" xlink:href="#DejaVuSans-20"/>
      <use x="220.458984" xlink:href="#DejaVuSans-43"/>
      <use x="290.283203" xlink:href="#DejaVuSans-52"/>
      <use x="359.765625" xlink:href="#DejaVuSans-53"/>
      <use x="423.242188" xlink:href="#DejaVuSans-53"/>
      <use x="486.71875" xlink:href="#DejaVuSans-20"/>
      <use x="518.505859" xlink:href="#DejaVuSans-61"/>
      <use x="579.785156" xlink:href="#DejaVuSans-74"/>
      <use x="618.994141" xlink:href="#DejaVuSans-20"/>
      <use x="650.78125" xlink:href="#DejaVuSans-31"/>
      <use x="714.404297" xlink:href="#DejaVuSans-34"/>
      <use x="778.027344" xlink:href="#DejaVuSans-2e"/>
      <use x="809.814453" xlink:href="#DejaVuSans-34"/>
      <use x="873.4375" xlink:href="#DejaVuSans-36"/>
      <use x="937.060547" xlink:href="#DejaVuSans-25"/>
     </g>
    </g>
   </g>
  </g>
 </g>
 <defs>
  <clipPath id="pd6460d50d2">
   <rect height="358.34" width="481.55" x="68.26" y="16.56"/>
  </clipPath>
 </defs>
</svg>
