<?xml version="1.0" encoding="utf-8" standalone="no"?>
<!DOCTYPE svg PUBLIC "-//W3C//DTD SVG 1.1//EN"
  "http://www.w3.org/Graphics/SVG/1.1/DTD/svg11.dtd">
<svg height="432pt" version="1.1" viewBox="0 0 576 432" width="576pt" xmlns="http://www.w3.org/2000/svg" xmlns:xlink="http://www.w3.org/1999/xlink">
 <metadata>
  <rdf:RDF xmlns:cc="http://creativecommons.org/ns#" xmlns:dc="http://purl.org/dc/elements/1.1/" xmlns:rdf="http://www.w3.org/1999/02/22-rdf-syntax-ns#">
   <cc:Work>
    <dc:type rdf:resource="http://purl.org/dc/dcmitype/StillImage"/>
    <dc:date>2024-09-12T23:56:30.278192</dc:date>
    <dc:format>image/svg+xml</dc:format>
    <dc:creator>
     <cc:Agent>
      <dc:title>Matplotlib v3.4.2, https://matplotlib.org/</dc:title>
     </cc:Agent>
    </dc:creator>
   </cc:Work>
  </rdf:RDF>
 </metadata>
 <defs>
  <style type="text/css">*{stroke-linecap:butt;stroke-linejoin:round;}</style>
 </defs>
 <g id="figure_1">
  <g id="patch_1">
   <path d="M 0 432 
L 576 432 
L 576 0 
L 0 0 
z
" style="fill:#ffffff;"/>
  </g>
  <g id="axes_1">
   <g id="patch_2">
    <path d="M 68.26 374.9 
L 542.205 374.9 
L 542.205 30.48 
L 68.26 30.48 
z
" style="fill:#ffffff;"/>
   </g>
   <g id="PathCollection_1">
    <defs>
     <path d="M 0 3 
C 0.795609 3 1.55874 2.683901 2.12132 2.12132 
C 2.683901 1.55874 3 0.795609 3 0 
C 3 -0.795609 2.683901 -1.55874 2.12132 -2.12132 
C 1.55874 -2.683901 0.795609 -3 0 -3 
C -0.795609 -3 -1.55874 -2.683901 -2.12132 -2.12132 
C -2.683901 -1.55874 -3 -0.795609 -3 0 
C -3 0.795609 -2.683901 1.55874 -2.12132 2.12132 
C -1.55874 2.683901 -0.795609 3 0 3 
z
" id="m05f4500366" style="stroke:#1f77b4;"/>
    </defs>
    <g clip-path="url(#p8de86412ec)">
     <use style="fill:#1f77b4;stroke:#1f77b4;" x="80.032272" xlink:href="#m05f4500366" y="214.596271"/>
     <use style="fill:#1f77b4;stroke:#1f77b4;" x="84.729276" xlink:href="#m05f4500366" y="198.96607"/>
     <use style="fill:#1f77b4;stroke:#1f77b4;" x="89.421308" xlink:href="#m05f4500366" y="187.938425"/>
     <use style="fill:#1f77b4;stroke:#1f77b4;" x="94.10883" xlink:href="#m05f4500366" y="179.498742"/>
     <use style="fill:#1f77b4;stroke:#1f77b4;" x="98.791853" xlink:href="#m05f4500366" y="172.992154"/>
     <use style="fill:#1f77b4;stroke:#1f77b4;" x="103.470179" xlink:href="#m05f4500366" y="167.914919"/>
     <use style="fill:#1f77b4;stroke:#1f77b4;" x="108.143483" xlink:href="#m05f4500366" y="163.839729"/>
     <use style="fill:#1f77b4;stroke:#1f77b4;" x="112.811401" xlink:href="#m05f4500366" y="160.474839"/>
     <use style="fill:#1f77b4;stroke:#1f77b4;" x="117.473596" xlink:href="#m05f4500366" y="157.600546"/>
     <use style="fill:#1f77b4;stroke:#1f77b4;" x="122.129764" xlink:href="#m05f4500366" y="155.065035"/>
     <use style="fill:#1f77b4;stroke:#1f77b4;" x="126.779643" xlink:href="#m05f4500366" y="152.774386"/>
     <use style="fill:#1f77b4;stroke:#1f77b4;" x="131.42302" xlink:href="#m05f4500366" y="150.663983"/>
     <use style="fill:#1f77b4;stroke:#1f77b4;" x="136.059704" xlink:href="#m05f4500366" y="148.700973"/>
     <use style="fill:#1f77b4;stroke:#1f77b4;" x="140.689508" xlink:href="#m05f4500366" y="146.842431"/>
     <use style="fill:#1f77b4;stroke:#1f77b4;" x="145.312293" xlink:href="#m05f4500366" y="145.075521"/>
     <use style="fill:#1f77b4;stroke:#1f77b4;" x="149.927915" xlink:href="#m05f4500366" y="143.382594"/>
     <use style="fill:#1f77b4;stroke:#1f77b4;" x="154.53624" xlink:href="#m05f4500366" y="141.755024"/>
     <use style="fill:#1f77b4;stroke:#1f77b4;" x="159.137145" xlink:href="#m05f4500366" y="140.178576"/>
     <use style="fill:#1f77b4;stroke:#1f77b4;" x="163.730494" xlink:href="#m05f4500366" y="138.645244"/>
     <use style="fill:#1f77b4;stroke:#1f77b4;" x="168.316208" xlink:href="#m05f4500366" y="137.157714"/>
     <use style="fill:#1f77b4;stroke:#1f77b4;" x="172.894185" xlink:href="#m05f4500366" y="135.708254"/>
     <use style="fill:#1f77b4;stroke:#1f77b4;" x="177.464296" xlink:href="#m05f4500366" y="134.286635"/>
     <use style="fill:#1f77b4;stroke:#1f77b4;" x="182.026508" xlink:href="#m05f4500366" y="132.900884"/>
     <use style="fill:#1f77b4;stroke:#1f77b4;" x="186.580718" xlink:href="#m05f4500366" y="131.54183"/>
     <use style="fill:#1f77b4;stroke:#1f77b4;" x="191.126823" xlink:href="#m05f4500366" y="130.207442"/>
     <use style="fill:#1f77b4;stroke:#1f77b4;" x="195.664778" xlink:href="#m05f4500366" y="128.896331"/>
     <use style="fill:#1f77b4;stroke:#1f77b4;" x="200.194491" xlink:href="#m05f4500366" y="127.606693"/>
     <use style="fill:#1f77b4;stroke:#1f77b4;" x="204.715903" xlink:href="#m05f4500366" y="126.33384"/>
     <use style="fill:#1f77b4;stroke:#1f77b4;" x="209.228989" xlink:href="#m05f4500366" y="125.086364"/>
     <use style="fill:#1f77b4;stroke:#1f77b4;" x="213.733669" xlink:href="#m05f4500366" y="123.86017"/>
     <use style="fill:#1f77b4;stroke:#1f77b4;" x="218.229891" xlink:href="#m05f4500366" y="122.643177"/>
     <use style="fill:#1f77b4;stroke:#1f77b4;" x="222.717659" xlink:href="#m05f4500366" y="121.451104"/>
     <use style="fill:#1f77b4;stroke:#1f77b4;" x="227.196853" xlink:href="#m05f4500366" y="120.271771"/>
     <use style="fill:#1f77b4;stroke:#1f77b4;" x="231.667458" xlink:href="#m05f4500366" y="119.104049"/>
     <use style="fill:#1f77b4;stroke:#1f77b4;" x="236.129472" xlink:href="#m05f4500366" y="117.958758"/>
     <use style="fill:#1f77b4;stroke:#1f77b4;" x="240.58279" xlink:href="#m05f4500366" y="116.824772"/>
     <use style="fill:#1f77b4;stroke:#1f77b4;" x="245.027393" xlink:href="#m05f4500366" y="115.697816"/>
     <use style="fill:#1f77b4;stroke:#1f77b4;" x="249.463266" xlink:href="#m05f4500366" y="114.593525"/>
     <use style="fill:#1f77b4;stroke:#1f77b4;" x="253.890346" xlink:href="#m05f4500366" y="113.498192"/>
     <use style="fill:#1f77b4;stroke:#1f77b4;" x="258.308609" xlink:href="#m05f4500366" y="112.409417"/>
     <use style="fill:#1f77b4;stroke:#1f77b4;" x="262.718048" xlink:href="#m05f4500366" y="111.341201"/>
     <use style="fill:#1f77b4;stroke:#1f77b4;" x="267.118604" xlink:href="#m05f4500366" y="110.280803"/>
     <use style="fill:#1f77b4;stroke:#1f77b4;" x="271.510261" xlink:href="#m05f4500366" y="109.226688"/>
     <use style="fill:#1f77b4;stroke:#1f77b4;" x="275.893026" xlink:href="#m05f4500366" y="108.191951"/>
     <use style="fill:#1f77b4;stroke:#1f77b4;" x="280.266836" xlink:href="#m05f4500366" y="107.164128"/>
     <use style="fill:#1f77b4;stroke:#1f77b4;" x="284.63168" xlink:href="#m05f4500366" y="106.141051"/>
     <use style="fill:#1f77b4;stroke:#1f77b4;" x="288.987573" xlink:href="#m05f4500366" y="105.135933"/>
     <use style="fill:#1f77b4;stroke:#1f77b4;" x="293.334458" xlink:href="#m05f4500366" y="104.137101"/>
     <use style="fill:#1f77b4;stroke:#1f77b4;" x="297.67233" xlink:href="#m05f4500366" y="103.143302"/>
     <use style="fill:#1f77b4;stroke:#1f77b4;" x="302.001205" xlink:href="#m05f4500366" y="102.166228"/>
     <use style="fill:#1f77b4;stroke:#1f77b4;" x="306.321025" xlink:href="#m05f4500366" y="101.194514"/>
     <use style="fill:#1f77b4;stroke:#1f77b4;" x="310.631794" xlink:href="#m05f4500366" y="100.226573"/>
     <use style="fill:#1f77b4;stroke:#1f77b4;" x="314.933558" xlink:href="#m05f4500366" y="99.276358"/>
     <use style="fill:#1f77b4;stroke:#1f77b4;" x="319.226186" xlink:href="#m05f4500366" y="98.313592"/>
     <use style="fill:#1f77b4;stroke:#1f77b4;" x="323.509836" xlink:href="#m05f4500366" y="97.388788"/>
     <use style="fill:#1f77b4;stroke:#1f77b4;" x="327.784435" xlink:href="#m05f4500366" y="96.460862"/>
     <use style="fill:#1f77b4;stroke:#1f77b4;" x="332.049973" xlink:href="#m05f4500366" y="95.539114"/>
     <use style="fill:#1f77b4;stroke:#1f77b4;" x="336.306402" xlink:href="#m05f4500366" y="94.613459"/>
     <use style="fill:#1f77b4;stroke:#1f77b4;" x="340.553854" xlink:href="#m05f4500366" y="93.715095"/>
     <use style="fill:#1f77b4;stroke:#1f77b4;" x="344.792229" xlink:href="#m05f4500366" y="92.810585"/>
     <use style="fill:#1f77b4;stroke:#1f77b4;" x="349.021568" xlink:href="#m05f4500366" y="91.914361"/>
     <use style="fill:#1f77b4;stroke:#1f77b4;" x="353.241917" xlink:href="#m05f4500366" y="91.032402"/>
     <use style="fill:#1f77b4;stroke:#1f77b4;" x="357.453228" xlink:href="#m05f4500366" y="90.14879"/>
     <use style="fill:#1f77b4;stroke:#1f77b4;" x="361.655532" xlink:href="#m05f4500366" y="89.265152"/>
     <use style="fill:#1f77b4;stroke:#1f77b4;" x="365.848887" xlink:href="#m05f4500366" y="88.406839"/>
     <use style="fill:#1f77b4;stroke:#1f77b4;" x="370.033281" xlink:href="#m05f4500366" y="87.554756"/>
     <use style="fill:#1f77b4;stroke:#1f77b4;" x="374.208703" xlink:href="#m05f4500366" y="86.697235"/>
     <use style="fill:#1f77b4;stroke:#1f77b4;" x="378.375186" xlink:href="#m05f4500366" y="85.844893"/>
     <use style="fill:#1f77b4;stroke:#1f77b4;" x="382.532754" xlink:href="#m05f4500366" y="84.998188"/>
     <use style="fill:#1f77b4;stroke:#1f77b4;" x="386.681454" xlink:href="#m05f4500366" y="84.173"/>
     <use style="fill:#1f77b4;stroke:#1f77b4;" x="390.821258" xlink:href="#m05f4500366" y="83.346291"/>
     <use style="fill:#1f77b4;stroke:#1f77b4;" x="394.952183" xlink:href="#m05f4500366" y="82.519901"/>
     <use style="fill:#1f77b4;stroke:#1f77b4;" x="399.074295" xlink:href="#m05f4500366" y="81.706701"/>
     <use style="fill:#1f77b4;stroke:#1f77b4;" x="403.187494" xlink:href="#m05f4500366" y="80.875224"/>
     <use style="fill:#1f77b4;stroke:#1f77b4;" x="407.291969" xlink:href="#m05f4500366" y="80.076139"/>
     <use style="fill:#1f77b4;stroke:#1f77b4;" x="411.387638" xlink:href="#m05f4500366" y="79.286303"/>
     <use style="fill:#1f77b4;stroke:#1f77b4;" x="415.47454" xlink:href="#m05f4500366" y="78.491539"/>
    </g>
   </g>
   <g id="PathCollection_2">
    <defs>
     <path d="M -5 5 
L 5 -5 
M -5 -5 
L 5 5 
" id="mba7505a0b5" style="stroke:#ff7f0e;stroke-width:1.5;"/>
    </defs>
    <g clip-path="url(#p8de86412ec)">
     <use style="fill:#ff7f0e;stroke:#ff7f0e;stroke-width:1.5;" x="80.032272" xlink:href="#mba7505a0b5" y="259.905061"/>
     <use style="fill:#ff7f0e;stroke:#ff7f0e;stroke-width:1.5;" x="84.729276" xlink:href="#mba7505a0b5" y="247.489464"/>
     <use style="fill:#ff7f0e;stroke:#ff7f0e;stroke-width:1.5;" x="89.421308" xlink:href="#mba7505a0b5" y="238.879828"/>
     <use style="fill:#ff7f0e;stroke:#ff7f0e;stroke-width:1.5;" x="94.10883" xlink:href="#mba7505a0b5" y="232.024444"/>
     <use style="fill:#ff7f0e;stroke:#ff7f0e;stroke-width:1.5;" x="98.791853" xlink:href="#mba7505a0b5" y="226.15348"/>
     <use style="fill:#ff7f0e;stroke:#ff7f0e;stroke-width:1.5;" x="103.470179" xlink:href="#mba7505a0b5" y="221.105771"/>
     <use style="fill:#ff7f0e;stroke:#ff7f0e;stroke-width:1.5;" x="108.143483" xlink:href="#mba7505a0b5" y="216.599071"/>
     <use style="fill:#ff7f0e;stroke:#ff7f0e;stroke-width:1.5;" x="112.811401" xlink:href="#mba7505a0b5" y="212.617813"/>
     <use style="fill:#ff7f0e;stroke:#ff7f0e;stroke-width:1.5;" x="117.473596" xlink:href="#mba7505a0b5" y="208.956098"/>
     <use style="fill:#ff7f0e;stroke:#ff7f0e;stroke-width:1.5;" x="122.129764" xlink:href="#mba7505a0b5" y="205.718147"/>
     <use style="fill:#ff7f0e;stroke:#ff7f0e;stroke-width:1.5;" x="126.779643" xlink:href="#mba7505a0b5" y="202.669647"/>
     <use style="fill:#ff7f0e;stroke:#ff7f0e;stroke-width:1.5;" x="131.42302" xlink:href="#mba7505a0b5" y="199.889011"/>
     <use style="fill:#ff7f0e;stroke:#ff7f0e;stroke-width:1.5;" x="136.059704" xlink:href="#mba7505a0b5" y="197.312669"/>
     <use style="fill:#ff7f0e;stroke:#ff7f0e;stroke-width:1.5;" x="140.689508" xlink:href="#mba7505a0b5" y="194.940079"/>
     <use style="fill:#ff7f0e;stroke:#ff7f0e;stroke-width:1.5;" x="145.312293" xlink:href="#mba7505a0b5" y="192.754681"/>
     <use style="fill:#ff7f0e;stroke:#ff7f0e;stroke-width:1.5;" x="149.927915" xlink:href="#mba7505a0b5" y="190.670922"/>
     <use style="fill:#ff7f0e;stroke:#ff7f0e;stroke-width:1.5;" x="154.53624" xlink:href="#mba7505a0b5" y="188.743489"/>
     <use style="fill:#ff7f0e;stroke:#ff7f0e;stroke-width:1.5;" x="159.137145" xlink:href="#mba7505a0b5" y="186.888217"/>
     <use style="fill:#ff7f0e;stroke:#ff7f0e;stroke-width:1.5;" x="163.730494" xlink:href="#mba7505a0b5" y="185.121727"/>
     <use style="fill:#ff7f0e;stroke:#ff7f0e;stroke-width:1.5;" x="168.316208" xlink:href="#mba7505a0b5" y="183.46479"/>
     <use style="fill:#ff7f0e;stroke:#ff7f0e;stroke-width:1.5;" x="172.894185" xlink:href="#mba7505a0b5" y="181.885118"/>
     <use style="fill:#ff7f0e;stroke:#ff7f0e;stroke-width:1.5;" x="177.464296" xlink:href="#mba7505a0b5" y="180.365494"/>
     <use style="fill:#ff7f0e;stroke:#ff7f0e;stroke-width:1.5;" x="182.026508" xlink:href="#mba7505a0b5" y="178.928344"/>
     <use style="fill:#ff7f0e;stroke:#ff7f0e;stroke-width:1.5;" x="186.580718" xlink:href="#mba7505a0b5" y="177.567662"/>
     <use style="fill:#ff7f0e;stroke:#ff7f0e;stroke-width:1.5;" x="191.126823" xlink:href="#mba7505a0b5" y="176.2275"/>
     <use style="fill:#ff7f0e;stroke:#ff7f0e;stroke-width:1.5;" x="195.664778" xlink:href="#mba7505a0b5" y="174.967054"/>
     <use style="fill:#ff7f0e;stroke:#ff7f0e;stroke-width:1.5;" x="200.194491" xlink:href="#mba7505a0b5" y="173.742692"/>
     <use style="fill:#ff7f0e;stroke:#ff7f0e;stroke-width:1.5;" x="204.715903" xlink:href="#mba7505a0b5" y="172.576561"/>
     <use style="fill:#ff7f0e;stroke:#ff7f0e;stroke-width:1.5;" x="209.228989" xlink:href="#mba7505a0b5" y="171.438269"/>
     <use style="fill:#ff7f0e;stroke:#ff7f0e;stroke-width:1.5;" x="213.733669" xlink:href="#mba7505a0b5" y="170.378858"/>
     <use style="fill:#ff7f0e;stroke:#ff7f0e;stroke-width:1.5;" x="218.229891" xlink:href="#mba7505a0b5" y="169.337562"/>
     <use style="fill:#ff7f0e;stroke:#ff7f0e;stroke-width:1.5;" x="222.717659" xlink:href="#mba7505a0b5" y="168.310102"/>
     <use style="fill:#ff7f0e;stroke:#ff7f0e;stroke-width:1.5;" x="227.196853" xlink:href="#mba7505a0b5" y="167.35471"/>
     <use style="fill:#ff7f0e;stroke:#ff7f0e;stroke-width:1.5;" x="231.667458" xlink:href="#mba7505a0b5" y="166.404986"/>
     <use style="fill:#ff7f0e;stroke:#ff7f0e;stroke-width:1.5;" x="236.129472" xlink:href="#mba7505a0b5" y="165.50116"/>
     <use style="fill:#ff7f0e;stroke:#ff7f0e;stroke-width:1.5;" x="240.58279" xlink:href="#mba7505a0b5" y="164.588676"/>
     <use style="fill:#ff7f0e;stroke:#ff7f0e;stroke-width:1.5;" x="245.027393" xlink:href="#mba7505a0b5" y="163.740764"/>
     <use style="fill:#ff7f0e;stroke:#ff7f0e;stroke-width:1.5;" x="249.463266" xlink:href="#mba7505a0b5" y="162.88581"/>
     <use style="fill:#ff7f0e;stroke:#ff7f0e;stroke-width:1.5;" x="253.890346" xlink:href="#mba7505a0b5" y="162.084179"/>
     <use style="fill:#ff7f0e;stroke:#ff7f0e;stroke-width:1.5;" x="258.308609" xlink:href="#mba7505a0b5" y="161.30358"/>
     <use style="fill:#ff7f0e;stroke:#ff7f0e;stroke-width:1.5;" x="262.718048" xlink:href="#mba7505a0b5" y="160.516642"/>
     <use style="fill:#ff7f0e;stroke:#ff7f0e;stroke-width:1.5;" x="267.118604" xlink:href="#mba7505a0b5" y="159.795605"/>
     <use style="fill:#ff7f0e;stroke:#ff7f0e;stroke-width:1.5;" x="271.510261" xlink:href="#mba7505a0b5" y="159.065078"/>
     <use style="fill:#ff7f0e;stroke:#ff7f0e;stroke-width:1.5;" x="275.893026" xlink:href="#mba7505a0b5" y="158.360969"/>
     <use style="fill:#ff7f0e;stroke:#ff7f0e;stroke-width:1.5;" x="280.266836" xlink:href="#mba7505a0b5" y="157.663114"/>
     <use style="fill:#ff7f0e;stroke:#ff7f0e;stroke-width:1.5;" x="284.63168" xlink:href="#mba7505a0b5" y="157.019655"/>
     <use style="fill:#ff7f0e;stroke:#ff7f0e;stroke-width:1.5;" x="288.987573" xlink:href="#mba7505a0b5" y="156.378538"/>
     <use style="fill:#ff7f0e;stroke:#ff7f0e;stroke-width:1.5;" x="293.334458" xlink:href="#mba7505a0b5" y="155.713651"/>
     <use style="fill:#ff7f0e;stroke:#ff7f0e;stroke-width:1.5;" x="297.67233" xlink:href="#mba7505a0b5" y="155.089893"/>
     <use style="fill:#ff7f0e;stroke:#ff7f0e;stroke-width:1.5;" x="302.001205" xlink:href="#mba7505a0b5" y="154.479471"/>
     <use style="fill:#ff7f0e;stroke:#ff7f0e;stroke-width:1.5;" x="306.321025" xlink:href="#mba7505a0b5" y="153.873906"/>
     <use style="fill:#ff7f0e;stroke:#ff7f0e;stroke-width:1.5;" x="310.631794" xlink:href="#mba7505a0b5" y="153.31808"/>
     <use style="fill:#ff7f0e;stroke:#ff7f0e;stroke-width:1.5;" x="314.933558" xlink:href="#mba7505a0b5" y="152.709398"/>
     <use style="fill:#ff7f0e;stroke:#ff7f0e;stroke-width:1.5;" x="319.226186" xlink:href="#mba7505a0b5" y="152.18519"/>
     <use style="fill:#ff7f0e;stroke:#ff7f0e;stroke-width:1.5;" x="323.509836" xlink:href="#mba7505a0b5" y="151.611292"/>
     <use style="fill:#ff7f0e;stroke:#ff7f0e;stroke-width:1.5;" x="327.784435" xlink:href="#mba7505a0b5" y="151.099884"/>
     <use style="fill:#ff7f0e;stroke:#ff7f0e;stroke-width:1.5;" x="332.049973" xlink:href="#mba7505a0b5" y="150.594506"/>
     <use style="fill:#ff7f0e;stroke:#ff7f0e;stroke-width:1.5;" x="336.306402" xlink:href="#mba7505a0b5" y="150.059776"/>
     <use style="fill:#ff7f0e;stroke:#ff7f0e;stroke-width:1.5;" x="340.553854" xlink:href="#mba7505a0b5" y="149.547582"/>
     <use style="fill:#ff7f0e;stroke:#ff7f0e;stroke-width:1.5;" x="344.792229" xlink:href="#mba7505a0b5" y="149.053426"/>
     <use style="fill:#ff7f0e;stroke:#ff7f0e;stroke-width:1.5;" x="349.021568" xlink:href="#mba7505a0b5" y="148.576112"/>
     <use style="fill:#ff7f0e;stroke:#ff7f0e;stroke-width:1.5;" x="353.241917" xlink:href="#mba7505a0b5" y="148.094146"/>
     <use style="fill:#ff7f0e;stroke:#ff7f0e;stroke-width:1.5;" x="357.453228" xlink:href="#mba7505a0b5" y="147.622329"/>
     <use style="fill:#ff7f0e;stroke:#ff7f0e;stroke-width:1.5;" x="361.655532" xlink:href="#mba7505a0b5" y="147.161008"/>
     <use style="fill:#ff7f0e;stroke:#ff7f0e;stroke-width:1.5;" x="365.848887" xlink:href="#mba7505a0b5" y="146.718675"/>
     <use style="fill:#ff7f0e;stroke:#ff7f0e;stroke-width:1.5;" x="370.033281" xlink:href="#mba7505a0b5" y="146.285051"/>
     <use style="fill:#ff7f0e;stroke:#ff7f0e;stroke-width:1.5;" x="374.208703" xlink:href="#mba7505a0b5" y="145.826478"/>
     <use style="fill:#ff7f0e;stroke:#ff7f0e;stroke-width:1.5;" x="378.375186" xlink:href="#mba7505a0b5" y="145.435453"/>
     <use style="fill:#ff7f0e;stroke:#ff7f0e;stroke-width:1.5;" x="382.532754" xlink:href="#mba7505a0b5" y="145.022378"/>
     <use style="fill:#ff7f0e;stroke:#ff7f0e;stroke-width:1.5;" x="386.681454" xlink:href="#mba7505a0b5" y="144.636171"/>
     <use style="fill:#ff7f0e;stroke:#ff7f0e;stroke-width:1.5;" x="390.821258" xlink:href="#mba7505a0b5" y="144.215662"/>
     <use style="fill:#ff7f0e;stroke:#ff7f0e;stroke-width:1.5;" x="394.952183" xlink:href="#mba7505a0b5" y="143.842568"/>
     <use style="fill:#ff7f0e;stroke:#ff7f0e;stroke-width:1.5;" x="399.074295" xlink:href="#mba7505a0b5" y="143.479124"/>
     <use style="fill:#ff7f0e;stroke:#ff7f0e;stroke-width:1.5;" x="403.187494" xlink:href="#mba7505a0b5" y="143.139388"/>
     <use style="fill:#ff7f0e;stroke:#ff7f0e;stroke-width:1.5;" x="407.291969" xlink:href="#mba7505a0b5" y="142.784805"/>
     <use style="fill:#ff7f0e;stroke:#ff7f0e;stroke-width:1.5;" x="411.387638" xlink:href="#mba7505a0b5" y="142.437393"/>
     <use style="fill:#ff7f0e;stroke:#ff7f0e;stroke-width:1.5;" x="415.47454" xlink:href="#mba7505a0b5" y="142.131506"/>
    </g>
   </g>
   <g id="matplotlib.axis_1">
    <g id="xtick_1">
     <g id="line2d_1">
      <defs>
       <path d="M 0 0 
L 0 10 
" id="mb5f134de70" style="stroke:#000000;stroke-width:0.8;"/>
      </defs>
      <g>
       <use style="stroke:#000000;stroke-width:0.8;" x="70.617935" xlink:href="#mb5f134de70" y="374.9"/>
      </g>
     </g>
     <g id="text_1">
      <!-- 0.000 -->
      <g transform="translate(47.715435 400.5575)scale(0.16 -0.16)">
       <defs>
        <path d="M 2034 4250 
Q 1547 4250 1301 3770 
Q 1056 3291 1056 2328 
Q 1056 1369 1301 889 
Q 1547 409 2034 409 
Q 2525 409 2770 889 
Q 3016 1369 3016 2328 
Q 3016 3291 2770 3770 
Q 2525 4250 2034 4250 
z
M 2034 4750 
Q 2819 4750 3233 4129 
Q 3647 3509 3647 2328 
Q 3647 1150 3233 529 
Q 2819 -91 2034 -91 
Q 1250 -91 836 529 
Q 422 1150 422 2328 
Q 422 3509 836 4129 
Q 1250 4750 2034 4750 
z
" id="DejaVuSans-30" transform="scale(0.015625)"/>
        <path d="M 684 794 
L 1344 794 
L 1344 0 
L 684 0 
L 684 794 
z
" id="DejaVuSans-2e" transform="scale(0.015625)"/>
       </defs>
       <use xlink:href="#DejaVuSans-30"/>
       <use x="63.623047" xlink:href="#DejaVuSans-2e"/>
       <use x="95.410156" xlink:href="#DejaVuSans-30"/>
       <use x="159.033203" xlink:href="#DejaVuSans-30"/>
       <use x="222.65625" xlink:href="#DejaVuSans-30"/>
      </g>
     </g>
    </g>
    <g id="xtick_2">
     <g id="line2d_2">
      <g>
       <use style="stroke:#000000;stroke-width:0.8;" x="129.566318" xlink:href="#mb5f134de70" y="374.9"/>
      </g>
     </g>
     <g id="text_2">
      <!-- 0.025 -->
      <g transform="translate(106.663818 400.5575)scale(0.16 -0.16)">
       <defs>
        <path d="M 1228 531 
L 3431 531 
L 3431 0 
L 469 0 
L 469 531 
Q 828 903 1448 1529 
Q 2069 2156 2228 2338 
Q 2531 2678 2651 2914 
Q 2772 3150 2772 3378 
Q 2772 3750 2511 3984 
Q 2250 4219 1831 4219 
Q 1534 4219 1204 4116 
Q 875 4013 500 3803 
L 500 4441 
Q 881 4594 1212 4672 
Q 1544 4750 1819 4750 
Q 2544 4750 2975 4387 
Q 3406 4025 3406 3419 
Q 3406 3131 3298 2873 
Q 3191 2616 2906 2266 
Q 2828 2175 2409 1742 
Q 1991 1309 1228 531 
z
" id="DejaVuSans-32" transform="scale(0.015625)"/>
        <path d="M 691 4666 
L 3169 4666 
L 3169 4134 
L 1269 4134 
L 1269 2991 
Q 1406 3038 1543 3061 
Q 1681 3084 1819 3084 
Q 2600 3084 3056 2656 
Q 3513 2228 3513 1497 
Q 3513 744 3044 326 
Q 2575 -91 1722 -91 
Q 1428 -91 1123 -41 
Q 819 9 494 109 
L 494 744 
Q 775 591 1075 516 
Q 1375 441 1709 441 
Q 2250 441 2565 725 
Q 2881 1009 2881 1497 
Q 2881 1984 2565 2268 
Q 2250 2553 1709 2553 
Q 1456 2553 1204 2497 
Q 953 2441 691 2322 
L 691 4666 
z
" id="DejaVuSans-35" transform="scale(0.015625)"/>
       </defs>
       <use xlink:href="#DejaVuSans-30"/>
       <use x="63.623047" xlink:href="#DejaVuSans-2e"/>
       <use x="95.410156" xlink:href="#DejaVuSans-30"/>
       <use x="159.033203" xlink:href="#DejaVuSans-32"/>
       <use x="222.65625" xlink:href="#DejaVuSans-35"/>
      </g>
     </g>
    </g>
    <g id="xtick_3">
     <g id="line2d_3">
      <g>
       <use style="stroke:#000000;stroke-width:0.8;" x="188.514701" xlink:href="#mb5f134de70" y="374.9"/>
      </g>
     </g>
     <g id="text_3">
      <!-- 0.050 -->
      <g transform="translate(165.612201 400.5575)scale(0.16 -0.16)">
       <use xlink:href="#DejaVuSans-30"/>
       <use x="63.623047" xlink:href="#DejaVuSans-2e"/>
       <use x="95.410156" xlink:href="#DejaVuSans-30"/>
       <use x="159.033203" xlink:href="#DejaVuSans-35"/>
       <use x="222.65625" xlink:href="#DejaVuSans-30"/>
      </g>
     </g>
    </g>
    <g id="xtick_4">
     <g id="line2d_4">
      <g>
       <use style="stroke:#000000;stroke-width:0.8;" x="247.463085" xlink:href="#mb5f134de70" y="374.9"/>
      </g>
     </g>
     <g id="text_4">
      <!-- 0.075 -->
      <g transform="translate(224.560585 400.5575)scale(0.16 -0.16)">
       <defs>
        <path d="M 525 4666 
L 3525 4666 
L 3525 4397 
L 1831 0 
L 1172 0 
L 2766 4134 
L 525 4134 
L 525 4666 
z
" id="DejaVuSans-37" transform="scale(0.015625)"/>
       </defs>
       <use xlink:href="#DejaVuSans-30"/>
       <use x="63.623047" xlink:href="#DejaVuSans-2e"/>
       <use x="95.410156" xlink:href="#DejaVuSans-30"/>
       <use x="159.033203" xlink:href="#DejaVuSans-37"/>
       <use x="222.65625" xlink:href="#DejaVuSans-35"/>
      </g>
     </g>
    </g>
    <g id="xtick_5">
     <g id="line2d_5">
      <g>
       <use style="stroke:#000000;stroke-width:0.8;" x="306.411468" xlink:href="#mb5f134de70" y="374.9"/>
      </g>
     </g>
     <g id="text_5">
      <!-- 0.100 -->
      <g transform="translate(283.508968 400.5575)scale(0.16 -0.16)">
       <defs>
        <path d="M 794 531 
L 1825 531 
L 1825 4091 
L 703 3866 
L 703 4441 
L 1819 4666 
L 2450 4666 
L 2450 531 
L 3481 531 
L 3481 0 
L 794 0 
L 794 531 
z
" id="DejaVuSans-31" transform="scale(0.015625)"/>
       </defs>
       <use xlink:href="#DejaVuSans-30"/>
       <use x="63.623047" xlink:href="#DejaVuSans-2e"/>
       <use x="95.410156" xlink:href="#DejaVuSans-31"/>
       <use x="159.033203" xlink:href="#DejaVuSans-30"/>
       <use x="222.65625" xlink:href="#DejaVuSans-30"/>
      </g>
     </g>
    </g>
    <g id="xtick_6">
     <g id="line2d_6">
      <g>
       <use style="stroke:#000000;stroke-width:0.8;" x="365.359851" xlink:href="#mb5f134de70" y="374.9"/>
      </g>
     </g>
     <g id="text_6">
      <!-- 0.125 -->
      <g transform="translate(342.457351 400.5575)scale(0.16 -0.16)">
       <use xlink:href="#DejaVuSans-30"/>
       <use x="63.623047" xlink:href="#DejaVuSans-2e"/>
       <use x="95.410156" xlink:href="#DejaVuSans-31"/>
       <use x="159.033203" xlink:href="#DejaVuSans-32"/>
       <use x="222.65625" xlink:href="#DejaVuSans-35"/>
      </g>
     </g>
    </g>
    <g id="xtick_7">
     <g id="line2d_7">
      <g>
       <use style="stroke:#000000;stroke-width:0.8;" x="424.308234" xlink:href="#mb5f134de70" y="374.9"/>
      </g>
     </g>
     <g id="text_7">
      <!-- 0.150 -->
      <g transform="translate(401.405734 400.5575)scale(0.16 -0.16)">
       <use xlink:href="#DejaVuSans-30"/>
       <use x="63.623047" xlink:href="#DejaVuSans-2e"/>
       <use x="95.410156" xlink:href="#DejaVuSans-31"/>
       <use x="159.033203" xlink:href="#DejaVuSans-35"/>
       <use x="222.65625" xlink:href="#DejaVuSans-30"/>
      </g>
     </g>
    </g>
    <g id="xtick_8">
     <g id="line2d_8">
      <g>
       <use style="stroke:#000000;stroke-width:0.8;" x="483.256617" xlink:href="#mb5f134de70" y="374.9"/>
      </g>
     </g>
     <g id="text_8">
      <!-- 0.175 -->
      <g transform="translate(460.354117 400.5575)scale(0.16 -0.16)">
       <use xlink:href="#DejaVuSans-30"/>
       <use x="63.623047" xlink:href="#DejaVuSans-2e"/>
       <use x="95.410156" xlink:href="#DejaVuSans-31"/>
       <use x="159.033203" xlink:href="#DejaVuSans-37"/>
       <use x="222.65625" xlink:href="#DejaVuSans-35"/>
      </g>
     </g>
    </g>
    <g id="xtick_9">
     <g id="line2d_9">
      <g>
       <use style="stroke:#000000;stroke-width:0.8;" x="542.205" xlink:href="#mb5f134de70" y="374.9"/>
      </g>
     </g>
     <g id="text_9">
      <!-- 0.200 -->
      <g transform="translate(519.3025 400.5575)scale(0.16 -0.16)">
       <use xlink:href="#DejaVuSans-30"/>
       <use x="63.623047" xlink:href="#DejaVuSans-2e"/>
       <use x="95.410156" xlink:href="#DejaVuSans-32"/>
       <use x="159.033203" xlink:href="#DejaVuSans-30"/>
       <use x="222.65625" xlink:href="#DejaVuSans-30"/>
      </g>
     </g>
    </g>
    <g id="text_10">
     <!-- True Strain (-) -->
     <g transform="translate(250.3325 420.0425)scale(0.16 -0.16)">
      <defs>
       <path d="M -19 4666 
L 3928 4666 
L 3928 4134 
L 2272 4134 
L 2272 0 
L 1638 0 
L 1638 4134 
L -19 4134 
L -19 4666 
z
" id="DejaVuSans-54" transform="scale(0.015625)"/>
       <path d="M 2631 2963 
Q 2534 3019 2420 3045 
Q 2306 3072 2169 3072 
Q 1681 3072 1420 2755 
Q 1159 2438 1159 1844 
L 1159 0 
L 581 0 
L 581 3500 
L 1159 3500 
L 1159 2956 
Q 1341 3275 1631 3429 
Q 1922 3584 2338 3584 
Q 2397 3584 2469 3576 
Q 2541 3569 2628 3553 
L 2631 2963 
z
" id="DejaVuSans-72" transform="scale(0.015625)"/>
       <path d="M 544 1381 
L 544 3500 
L 1119 3500 
L 1119 1403 
Q 1119 906 1312 657 
Q 1506 409 1894 409 
Q 2359 409 2629 706 
Q 2900 1003 2900 1516 
L 2900 3500 
L 3475 3500 
L 3475 0 
L 2900 0 
L 2900 538 
Q 2691 219 2414 64 
Q 2138 -91 1772 -91 
Q 1169 -91 856 284 
Q 544 659 544 1381 
z
M 1991 3584 
L 1991 3584 
z
" id="DejaVuSans-75" transform="scale(0.015625)"/>
       <path d="M 3597 1894 
L 3597 1613 
L 953 1613 
Q 991 1019 1311 708 
Q 1631 397 2203 397 
Q 2534 397 2845 478 
Q 3156 559 3463 722 
L 3463 178 
Q 3153 47 2828 -22 
Q 2503 -91 2169 -91 
Q 1331 -91 842 396 
Q 353 884 353 1716 
Q 353 2575 817 3079 
Q 1281 3584 2069 3584 
Q 2775 3584 3186 3129 
Q 3597 2675 3597 1894 
z
M 3022 2063 
Q 3016 2534 2758 2815 
Q 2500 3097 2075 3097 
Q 1594 3097 1305 2825 
Q 1016 2553 972 2059 
L 3022 2063 
z
" id="DejaVuSans-65" transform="scale(0.015625)"/>
       <path id="DejaVuSans-20" transform="scale(0.015625)"/>
       <path d="M 3425 4513 
L 3425 3897 
Q 3066 4069 2747 4153 
Q 2428 4238 2131 4238 
Q 1616 4238 1336 4038 
Q 1056 3838 1056 3469 
Q 1056 3159 1242 3001 
Q 1428 2844 1947 2747 
L 2328 2669 
Q 3034 2534 3370 2195 
Q 3706 1856 3706 1288 
Q 3706 609 3251 259 
Q 2797 -91 1919 -91 
Q 1588 -91 1214 -16 
Q 841 59 441 206 
L 441 856 
Q 825 641 1194 531 
Q 1563 422 1919 422 
Q 2459 422 2753 634 
Q 3047 847 3047 1241 
Q 3047 1584 2836 1778 
Q 2625 1972 2144 2069 
L 1759 2144 
Q 1053 2284 737 2584 
Q 422 2884 422 3419 
Q 422 4038 858 4394 
Q 1294 4750 2059 4750 
Q 2388 4750 2728 4690 
Q 3069 4631 3425 4513 
z
" id="DejaVuSans-53" transform="scale(0.015625)"/>
       <path d="M 1172 4494 
L 1172 3500 
L 2356 3500 
L 2356 3053 
L 1172 3053 
L 1172 1153 
Q 1172 725 1289 603 
Q 1406 481 1766 481 
L 2356 481 
L 2356 0 
L 1766 0 
Q 1100 0 847 248 
Q 594 497 594 1153 
L 594 3053 
L 172 3053 
L 172 3500 
L 594 3500 
L 594 4494 
L 1172 4494 
z
" id="DejaVuSans-74" transform="scale(0.015625)"/>
       <path d="M 2194 1759 
Q 1497 1759 1228 1600 
Q 959 1441 959 1056 
Q 959 750 1161 570 
Q 1363 391 1709 391 
Q 2188 391 2477 730 
Q 2766 1069 2766 1631 
L 2766 1759 
L 2194 1759 
z
M 3341 1997 
L 3341 0 
L 2766 0 
L 2766 531 
Q 2569 213 2275 61 
Q 1981 -91 1556 -91 
Q 1019 -91 701 211 
Q 384 513 384 1019 
Q 384 1609 779 1909 
Q 1175 2209 1959 2209 
L 2766 2209 
L 2766 2266 
Q 2766 2663 2505 2880 
Q 2244 3097 1772 3097 
Q 1472 3097 1187 3025 
Q 903 2953 641 2809 
L 641 3341 
Q 956 3463 1253 3523 
Q 1550 3584 1831 3584 
Q 2591 3584 2966 3190 
Q 3341 2797 3341 1997 
z
" id="DejaVuSans-61" transform="scale(0.015625)"/>
       <path d="M 603 3500 
L 1178 3500 
L 1178 0 
L 603 0 
L 603 3500 
z
M 603 4863 
L 1178 4863 
L 1178 4134 
L 603 4134 
L 603 4863 
z
" id="DejaVuSans-69" transform="scale(0.015625)"/>
       <path d="M 3513 2113 
L 3513 0 
L 2938 0 
L 2938 2094 
Q 2938 2591 2744 2837 
Q 2550 3084 2163 3084 
Q 1697 3084 1428 2787 
Q 1159 2491 1159 1978 
L 1159 0 
L 581 0 
L 581 3500 
L 1159 3500 
L 1159 2956 
Q 1366 3272 1645 3428 
Q 1925 3584 2291 3584 
Q 2894 3584 3203 3211 
Q 3513 2838 3513 2113 
z
" id="DejaVuSans-6e" transform="scale(0.015625)"/>
       <path d="M 1984 4856 
Q 1566 4138 1362 3434 
Q 1159 2731 1159 2009 
Q 1159 1288 1364 580 
Q 1569 -128 1984 -844 
L 1484 -844 
Q 1016 -109 783 600 
Q 550 1309 550 2009 
Q 550 2706 781 3412 
Q 1013 4119 1484 4856 
L 1984 4856 
z
" id="DejaVuSans-28" transform="scale(0.015625)"/>
       <path d="M 313 2009 
L 1997 2009 
L 1997 1497 
L 313 1497 
L 313 2009 
z
" id="DejaVuSans-2d" transform="scale(0.015625)"/>
       <path d="M 513 4856 
L 1013 4856 
Q 1481 4119 1714 3412 
Q 1947 2706 1947 2009 
Q 1947 1309 1714 600 
Q 1481 -109 1013 -844 
L 513 -844 
Q 928 -128 1133 580 
Q 1338 1288 1338 2009 
Q 1338 2731 1133 3434 
Q 928 4138 513 4856 
z
" id="DejaVuSans-29" transform="scale(0.015625)"/>
      </defs>
      <use xlink:href="#DejaVuSans-54"/>
      <use x="46.333984" xlink:href="#DejaVuSans-72"/>
      <use x="87.447266" xlink:href="#DejaVuSans-75"/>
      <use x="150.826172" xlink:href="#DejaVuSans-65"/>
      <use x="212.349609" xlink:href="#DejaVuSans-20"/>
      <use x="244.136719" xlink:href="#DejaVuSans-53"/>
      <use x="307.613281" xlink:href="#DejaVuSans-74"/>
      <use x="346.822266" xlink:href="#DejaVuSans-72"/>
      <use x="387.935547" xlink:href="#DejaVuSans-61"/>
      <use x="449.214844" xlink:href="#DejaVuSans-69"/>
      <use x="476.998047" xlink:href="#DejaVuSans-6e"/>
      <use x="540.376953" xlink:href="#DejaVuSans-20"/>
      <use x="572.164062" xlink:href="#DejaVuSans-28"/>
      <use x="611.177734" xlink:href="#DejaVuSans-2d"/>
      <use x="647.261719" xlink:href="#DejaVuSans-29"/>
     </g>
    </g>
   </g>
   <g id="matplotlib.axis_2">
    <g id="ytick_1">
     <g id="line2d_10">
      <defs>
       <path d="M 0 0 
L -10 0 
" id="m314bc14034" style="stroke:#000000;stroke-width:0.8;"/>
      </defs>
      <g>
       <use style="stroke:#000000;stroke-width:0.8;" x="68.26" xlink:href="#m314bc14034" y="374.9"/>
      </g>
     </g>
     <g id="text_11">
      <!-- 0.0 -->
      <g transform="translate(29.315 380.97875)scale(0.16 -0.16)">
       <use xlink:href="#DejaVuSans-30"/>
       <use x="63.623047" xlink:href="#DejaVuSans-2e"/>
       <use x="95.410156" xlink:href="#DejaVuSans-30"/>
      </g>
     </g>
    </g>
    <g id="ytick_2">
     <g id="line2d_11">
      <g>
       <use style="stroke:#000000;stroke-width:0.8;" x="68.26" xlink:href="#m314bc14034" y="325.697143"/>
      </g>
     </g>
     <g id="text_12">
      <!-- 0.2 -->
      <g transform="translate(29.315 331.775893)scale(0.16 -0.16)">
       <use xlink:href="#DejaVuSans-30"/>
       <use x="63.623047" xlink:href="#DejaVuSans-2e"/>
       <use x="95.410156" xlink:href="#DejaVuSans-32"/>
      </g>
     </g>
    </g>
    <g id="ytick_3">
     <g id="line2d_12">
      <g>
       <use style="stroke:#000000;stroke-width:0.8;" x="68.26" xlink:href="#m314bc14034" y="276.494286"/>
      </g>
     </g>
     <g id="text_13">
      <!-- 0.4 -->
      <g transform="translate(29.315 282.573036)scale(0.16 -0.16)">
       <defs>
        <path d="M 2419 4116 
L 825 1625 
L 2419 1625 
L 2419 4116 
z
M 2253 4666 
L 3047 4666 
L 3047 1625 
L 3713 1625 
L 3713 1100 
L 3047 1100 
L 3047 0 
L 2419 0 
L 2419 1100 
L 313 1100 
L 313 1709 
L 2253 4666 
z
" id="DejaVuSans-34" transform="scale(0.015625)"/>
       </defs>
       <use xlink:href="#DejaVuSans-30"/>
       <use x="63.623047" xlink:href="#DejaVuSans-2e"/>
       <use x="95.410156" xlink:href="#DejaVuSans-34"/>
      </g>
     </g>
    </g>
    <g id="ytick_4">
     <g id="line2d_13">
      <g>
       <use style="stroke:#000000;stroke-width:0.8;" x="68.26" xlink:href="#m314bc14034" y="227.291429"/>
      </g>
     </g>
     <g id="text_14">
      <!-- 0.6 -->
      <g transform="translate(29.315 233.370179)scale(0.16 -0.16)">
       <defs>
        <path d="M 2113 2584 
Q 1688 2584 1439 2293 
Q 1191 2003 1191 1497 
Q 1191 994 1439 701 
Q 1688 409 2113 409 
Q 2538 409 2786 701 
Q 3034 994 3034 1497 
Q 3034 2003 2786 2293 
Q 2538 2584 2113 2584 
z
M 3366 4563 
L 3366 3988 
Q 3128 4100 2886 4159 
Q 2644 4219 2406 4219 
Q 1781 4219 1451 3797 
Q 1122 3375 1075 2522 
Q 1259 2794 1537 2939 
Q 1816 3084 2150 3084 
Q 2853 3084 3261 2657 
Q 3669 2231 3669 1497 
Q 3669 778 3244 343 
Q 2819 -91 2113 -91 
Q 1303 -91 875 529 
Q 447 1150 447 2328 
Q 447 3434 972 4092 
Q 1497 4750 2381 4750 
Q 2619 4750 2861 4703 
Q 3103 4656 3366 4563 
z
" id="DejaVuSans-36" transform="scale(0.015625)"/>
       </defs>
       <use xlink:href="#DejaVuSans-30"/>
       <use x="63.623047" xlink:href="#DejaVuSans-2e"/>
       <use x="95.410156" xlink:href="#DejaVuSans-36"/>
      </g>
     </g>
    </g>
    <g id="ytick_5">
     <g id="line2d_14">
      <g>
       <use style="stroke:#000000;stroke-width:0.8;" x="68.26" xlink:href="#m314bc14034" y="178.088571"/>
      </g>
     </g>
     <g id="text_15">
      <!-- 0.8 -->
      <g transform="translate(29.315 184.167321)scale(0.16 -0.16)">
       <defs>
        <path d="M 2034 2216 
Q 1584 2216 1326 1975 
Q 1069 1734 1069 1313 
Q 1069 891 1326 650 
Q 1584 409 2034 409 
Q 2484 409 2743 651 
Q 3003 894 3003 1313 
Q 3003 1734 2745 1975 
Q 2488 2216 2034 2216 
z
M 1403 2484 
Q 997 2584 770 2862 
Q 544 3141 544 3541 
Q 544 4100 942 4425 
Q 1341 4750 2034 4750 
Q 2731 4750 3128 4425 
Q 3525 4100 3525 3541 
Q 3525 3141 3298 2862 
Q 3072 2584 2669 2484 
Q 3125 2378 3379 2068 
Q 3634 1759 3634 1313 
Q 3634 634 3220 271 
Q 2806 -91 2034 -91 
Q 1263 -91 848 271 
Q 434 634 434 1313 
Q 434 1759 690 2068 
Q 947 2378 1403 2484 
z
M 1172 3481 
Q 1172 3119 1398 2916 
Q 1625 2713 2034 2713 
Q 2441 2713 2670 2916 
Q 2900 3119 2900 3481 
Q 2900 3844 2670 4047 
Q 2441 4250 2034 4250 
Q 1625 4250 1398 4047 
Q 1172 3844 1172 3481 
z
" id="DejaVuSans-38" transform="scale(0.015625)"/>
       </defs>
       <use xlink:href="#DejaVuSans-30"/>
       <use x="63.623047" xlink:href="#DejaVuSans-2e"/>
       <use x="95.410156" xlink:href="#DejaVuSans-38"/>
      </g>
     </g>
    </g>
    <g id="ytick_6">
     <g id="line2d_15">
      <g>
       <use style="stroke:#000000;stroke-width:0.8;" x="68.26" xlink:href="#m314bc14034" y="128.885714"/>
      </g>
     </g>
     <g id="text_16">
      <!-- 1.0 -->
      <g transform="translate(29.315 134.964464)scale(0.16 -0.16)">
       <use xlink:href="#DejaVuSans-31"/>
       <use x="63.623047" xlink:href="#DejaVuSans-2e"/>
       <use x="95.410156" xlink:href="#DejaVuSans-30"/>
      </g>
     </g>
    </g>
    <g id="ytick_7">
     <g id="line2d_16">
      <g>
       <use style="stroke:#000000;stroke-width:0.8;" x="68.26" xlink:href="#m314bc14034" y="79.682857"/>
      </g>
     </g>
     <g id="text_17">
      <!-- 1.2 -->
      <g transform="translate(29.315 85.761607)scale(0.16 -0.16)">
       <use xlink:href="#DejaVuSans-31"/>
       <use x="63.623047" xlink:href="#DejaVuSans-2e"/>
       <use x="95.410156" xlink:href="#DejaVuSans-32"/>
      </g>
     </g>
    </g>
    <g id="ytick_8">
     <g id="line2d_17">
      <g>
       <use style="stroke:#000000;stroke-width:0.8;" x="68.26" xlink:href="#m314bc14034" y="30.48"/>
      </g>
     </g>
     <g id="text_18">
      <!-- 1.4 -->
      <g transform="translate(29.315 36.55875)scale(0.16 -0.16)">
       <use xlink:href="#DejaVuSans-31"/>
       <use x="63.623047" xlink:href="#DejaVuSans-2e"/>
       <use x="95.410156" xlink:href="#DejaVuSans-34"/>
      </g>
     </g>
    </g>
    <g id="text_19">
     <!-- Stress (MPa) -->
     <g transform="translate(21.9875 252.325)rotate(-90)scale(0.16 -0.16)">
      <defs>
       <path d="M 2834 3397 
L 2834 2853 
Q 2591 2978 2328 3040 
Q 2066 3103 1784 3103 
Q 1356 3103 1142 2972 
Q 928 2841 928 2578 
Q 928 2378 1081 2264 
Q 1234 2150 1697 2047 
L 1894 2003 
Q 2506 1872 2764 1633 
Q 3022 1394 3022 966 
Q 3022 478 2636 193 
Q 2250 -91 1575 -91 
Q 1294 -91 989 -36 
Q 684 19 347 128 
L 347 722 
Q 666 556 975 473 
Q 1284 391 1588 391 
Q 1994 391 2212 530 
Q 2431 669 2431 922 
Q 2431 1156 2273 1281 
Q 2116 1406 1581 1522 
L 1381 1569 
Q 847 1681 609 1914 
Q 372 2147 372 2553 
Q 372 3047 722 3315 
Q 1072 3584 1716 3584 
Q 2034 3584 2315 3537 
Q 2597 3491 2834 3397 
z
" id="DejaVuSans-73" transform="scale(0.015625)"/>
       <path d="M 628 4666 
L 1569 4666 
L 2759 1491 
L 3956 4666 
L 4897 4666 
L 4897 0 
L 4281 0 
L 4281 4097 
L 3078 897 
L 2444 897 
L 1241 4097 
L 1241 0 
L 628 0 
L 628 4666 
z
" id="DejaVuSans-4d" transform="scale(0.015625)"/>
       <path d="M 1259 4147 
L 1259 2394 
L 2053 2394 
Q 2494 2394 2734 2622 
Q 2975 2850 2975 3272 
Q 2975 3691 2734 3919 
Q 2494 4147 2053 4147 
L 1259 4147 
z
M 628 4666 
L 2053 4666 
Q 2838 4666 3239 4311 
Q 3641 3956 3641 3272 
Q 3641 2581 3239 2228 
Q 2838 1875 2053 1875 
L 1259 1875 
L 1259 0 
L 628 0 
L 628 4666 
z
" id="DejaVuSans-50" transform="scale(0.015625)"/>
      </defs>
      <use xlink:href="#DejaVuSans-53"/>
      <use x="63.476562" xlink:href="#DejaVuSans-74"/>
      <use x="102.685547" xlink:href="#DejaVuSans-72"/>
      <use x="141.548828" xlink:href="#DejaVuSans-65"/>
      <use x="203.072266" xlink:href="#DejaVuSans-73"/>
      <use x="255.171875" xlink:href="#DejaVuSans-73"/>
      <use x="307.271484" xlink:href="#DejaVuSans-20"/>
      <use x="339.058594" xlink:href="#DejaVuSans-28"/>
      <use x="378.072266" xlink:href="#DejaVuSans-4d"/>
      <use x="464.351562" xlink:href="#DejaVuSans-50"/>
      <use x="520.154297" xlink:href="#DejaVuSans-61"/>
      <use x="581.433594" xlink:href="#DejaVuSans-29"/>
     </g>
    </g>
    <g id="text_20">
     <!-- 1e9 -->
     <g transform="translate(68.26 27.48)scale(0.1 -0.1)">
      <defs>
       <path d="M 703 97 
L 703 672 
Q 941 559 1184 500 
Q 1428 441 1663 441 
Q 2288 441 2617 861 
Q 2947 1281 2994 2138 
Q 2813 1869 2534 1725 
Q 2256 1581 1919 1581 
Q 1219 1581 811 2004 
Q 403 2428 403 3163 
Q 403 3881 828 4315 
Q 1253 4750 1959 4750 
Q 2769 4750 3195 4129 
Q 3622 3509 3622 2328 
Q 3622 1225 3098 567 
Q 2575 -91 1691 -91 
Q 1453 -91 1209 -44 
Q 966 3 703 97 
z
M 1959 2075 
Q 2384 2075 2632 2365 
Q 2881 2656 2881 3163 
Q 2881 3666 2632 3958 
Q 2384 4250 1959 4250 
Q 1534 4250 1286 3958 
Q 1038 3666 1038 3163 
Q 1038 2656 1286 2365 
Q 1534 2075 1959 2075 
z
" id="DejaVuSans-39" transform="scale(0.015625)"/>
      </defs>
      <use xlink:href="#DejaVuSans-31"/>
      <use x="63.623047" xlink:href="#DejaVuSans-65"/>
      <use x="125.146484" xlink:href="#DejaVuSans-39"/>
     </g>
    </g>
   </g>
   <g id="line2d_18">
    <path clip-path="url(#p8de86412ec)" d="M 70.617935 374.9 
L 75.329167 252.058297 
L 80.032272 214.596271 
L 84.729276 198.96607 
L 89.421308 187.938425 
L 94.10883 179.498742 
L 98.791853 172.992154 
L 103.470179 167.914919 
L 108.143483 163.839729 
L 112.811401 160.474839 
L 117.473596 157.600546 
L 122.129764 155.065035 
L 126.779643 152.774386 
L 131.42302 150.663983 
L 136.059704 148.700973 
L 140.689508 146.842431 
L 145.312293 145.075521 
L 149.927915 143.382594 
L 154.53624 141.755024 
L 159.137145 140.178576 
L 163.730494 138.645244 
L 168.316208 137.157714 
L 172.894185 135.708254 
L 177.464296 134.286635 
L 182.026508 132.900884 
L 186.580718 131.54183 
L 191.126823 130.207442 
L 195.664778 128.896331 
L 200.194491 127.606693 
L 204.715903 126.33384 
L 209.228989 125.086364 
L 213.733669 123.86017 
L 218.229891 122.643177 
L 222.717659 121.451104 
L 227.196853 120.271771 
L 231.667458 119.104049 
L 236.129472 117.958758 
L 240.58279 116.824772 
L 245.027393 115.697816 
L 249.463266 114.593525 
L 253.890346 113.498192 
L 258.308609 112.409417 
L 262.718048 111.341201 
L 267.118604 110.280803 
L 271.510261 109.226688 
L 275.893026 108.191951 
L 280.266836 107.164128 
L 284.63168 106.141051 
L 288.987573 105.135933 
L 293.334458 104.137101 
L 297.67233 103.143302 
L 302.001205 102.166228 
L 306.321025 101.194514 
L 310.631794 100.226573 
L 314.933558 99.276358 
L 319.226186 98.313592 
L 323.509836 97.388788 
L 327.784435 96.460862 
L 332.049973 95.539114 
L 336.306402 94.613459 
L 340.553854 93.715095 
L 344.792229 92.810585 
L 349.021568 91.914361 
L 353.241917 91.032402 
L 357.453228 90.14879 
L 361.655532 89.265152 
L 365.848887 88.406839 
L 370.033281 87.554756 
L 374.208703 86.697235 
L 378.375186 85.844893 
L 382.532754 84.998188 
L 386.681454 84.173 
L 390.821258 83.346291 
L 394.952183 82.519901 
L 399.074295 81.706701 
L 403.187494 80.875224 
L 407.291969 80.076139 
L 411.387638 79.286303 
L 415.47454 78.491539 
" style="fill:none;stroke:#1f77b4;stroke-linecap:square;stroke-width:3;"/>
   </g>
   <g id="line2d_19">
    <path clip-path="url(#p8de86412ec)" d="M 70.617935 372.622687 
L 70.57769 372.494089 
L 71.050421 361.373995 
L 71.08413 359.394732 
L 71.266155 356.846337 
L 71.504703 350.541812 
L 71.790388 342.293888 
L 71.96952 339.763216 
L 72.089061 336.574795 
L 73.89397 300.897734 
L 74.012256 300.782922 
L 74.042553 299.079672 
L 74.039672 298.52267 
L 74.158198 297.945448 
L 74.241299 296.272301 
L 74.695973 290.462186 
L 76.282314 276.807979 
L 76.838687 273.562052 
L 76.826799 273.232479 
L 77.075714 272.191438 
L 79.638014 261.145797 
L 79.983065 260.054891 
L 82.573981 252.383925 
L 82.817105 251.82411 
L 85.285269 246.366639 
L 85.295463 246.217996 
L 85.412659 246.154983 
L 85.62153 245.732626 
L 86.239111 244.454795 
L 86.862344 243.254523 
L 87.834549 241.515848 
L 88.73632 239.997586 
L 89.401552 238.914065 
L 90.854932 236.578575 
L 91.387005 235.909456 
L 91.268853 235.860721 
L 91.572388 235.567348 
L 91.72933 235.41765 
L 93.25411 233.140675 
L 94.587131 231.332926 
L 94.820585 231.019283 
L 95.161394 230.589772 
L 95.776719 229.751637 
L 95.940713 229.621142 
L 97.083618 228.215824 
L 102.025037 222.55856 
L 102.299777 222.310549 
L 102.431541 222.142624 
L 104.574428 220.001399 
L 104.970398 219.590577 
L 107.452901 217.243303 
L 107.974325 216.771058 
L 108.529673 216.257434 
L 108.767971 216.04192 
L 109.111076 215.739101 
L 110.644802 214.371003 
L 112.151018 213.160129 
L 112.703009 212.720874 
L 114.049086 211.580722 
L 116.151789 210.00782 
L 119.010045 207.867199 
L 119.427097 207.570451 
L 120.71918 206.680701 
L 121.730972 205.959802 
L 125.28075 203.656895 
L 125.164164 203.649232 
L 125.357272 203.575776 
L 126.610748 202.78168 
L 126.933672 202.578623 
L 127.623224 202.148193 
L 128.16683 201.830808 
L 129.610572 200.963962 
L 130.051237 200.688955 
L 130.738736 200.292569 
L 131.414857 199.893042 
L 133.276518 198.851114 
L 137.090841 196.748599 
L 139.235204 195.660003 
L 140.028579 195.263209 
L 142.404821 194.097703 
L 147.995238 191.541877 
L 148.645276 191.271513 
L 150.424081 190.477706 
L 153.056487 189.390752 
L 154.592284 188.728552 
L 155.115859 188.498208 
L 156.513744 187.968166 
L 157.273487 187.628836 
L 159.173436 186.870515 
L 160.831355 186.208627 
L 162.076724 185.750753 
L 164.075919 185.002543 
L 165.159963 184.596325 
L 168.074227 183.551994 
L 175.32141 181.074885 
L 182.573506 178.763032 
L 183.391813 178.50359 
L 185.862154 177.76515 
L 187.064505 177.427366 
L 188.342082 177.05007 
L 189.769102 176.617595 
L 194.365515 175.294368 
L 194.986149 175.138415 
L 196.198317 174.810113 
L 197.456278 174.496749 
L 201.617451 173.378961 
L 202.77681 173.107057 
L 206.207752 172.210668 
L 207.413027 171.91282 
L 208.237394 171.722959 
L 217.414634 169.511203 
L 218.514802 169.261094 
L 220.839498 168.718555 
L 221.865954 168.516166 
L 223.177947 168.232216 
L 223.804427 168.086667 
L 225.737491 167.658716 
L 227.398208 167.308821 
L 229.557563 166.838771 
L 230.140487 166.72016 
L 232.276637 166.276261 
L 234.179863 165.872536 
L 234.945917 165.728944 
L 236.164252 165.498523 
L 239.095659 164.908553 
L 239.717321 164.761483 
L 240.95482 164.53229 
L 242.649671 164.211504 
L 244.741865 163.778006 
L 260.352177 160.930872 
L 261.674962 160.724863 
L 290.021676 156.219059 
L 294.044502 155.61282 
L 294.637507 155.535183 
L 298.983285 154.89898 
L 303.955183 154.210065 
L 305.013486 154.088737 
L 306.305481 153.878477 
L 306.89733 153.800198 
L 307.939572 153.6693 
L 309.251431 153.485696 
L 310.322113 153.346855 
L 315.293369 152.690087 
L 320.460912 152.013861 
L 321.657571 151.851553 
L 323.139163 151.664612 
L 335.693603 150.135016 
L 336.590894 150.038455 
L 338.767789 149.757432 
L 347.620422 148.730279 
L 348.020455 148.678796 
L 349.537973 148.493819 
L 350.612562 148.387359 
L 385.419071 144.761332 
L 386.440092 144.655953 
L 389.101013 144.389988 
L 391.672905 144.14055 
L 393.049163 144.00685 
L 395.313849 143.791838 
L 402.931961 143.151375 
L 404.460867 142.994868 
L 405.078321 142.952959 
L 408.094118 142.691079 
L 408.607407 142.641263 
L 410.139917 142.57199 
L 412.009743 142.357667 
L 413.950312 142.23891 
L 414.849409 142.150933 
L 418.119995 141.884812 
L 418.736576 141.831094 
L 419.35307 141.832621 
L 420.071489 141.790263 
L 423.437394 141.561358 
L 424.241188 141.503709 
L 424.241188 141.503709 
" style="fill:none;stroke:#ff7f0e;stroke-linecap:square;stroke-width:3;"/>
   </g>
   <g id="line2d_20">
    <path clip-path="url(#p8de86412ec)" d="M 70.617935 374.9 
L 75.329167 252.199493 
L 80.032272 215.050899 
L 84.729276 199.783211 
L 89.421308 189.148308 
L 94.10883 181.122895 
L 98.791853 175.044951 
L 103.470179 170.405884 
L 108.143483 166.775613 
L 112.811401 163.860773 
L 117.473596 161.440941 
L 122.129764 159.363986 
L 126.779643 157.535735 
L 131.42302 155.891434 
L 136.059704 154.397939 
L 140.689508 153.012262 
L 145.312293 151.721378 
L 149.927915 150.50749 
L 154.53624 149.361939 
L 159.137145 148.270169 
L 163.730494 147.224381 
L 168.316208 146.227108 
L 172.894185 145.270032 
L 177.464296 144.343545 
L 182.026508 143.455309 
L 186.580718 142.595976 
L 191.126823 141.762922 
L 195.664778 140.955703 
L 200.194491 140.172105 
L 204.715903 139.407443 
L 209.228989 138.669623 
L 213.733669 137.954065 
L 218.229891 137.250661 
L 222.717659 136.573403 
L 227.196853 135.910078 
L 231.667458 135.260759 
L 236.129472 134.635326 
L 240.58279 134.021494 
L 245.027393 133.417236 
L 249.463266 132.836827 
L 253.890346 132.265559 
L 258.308609 131.703366 
L 262.718048 131.16286 
L 267.118604 130.630052 
L 271.510261 130.106011 
L 275.893026 129.602315 
L 280.266836 129.105067 
L 284.63168 128.615198 
L 288.987573 128.144205 
L 293.334458 127.678812 
L 297.67233 127.220961 
L 302.001205 126.780685 
L 306.321025 126.344838 
L 310.631794 125.915488 
L 314.933558 125.504329 
L 319.226186 125.080355 
L 323.509836 124.695839 
L 327.784435 124.306723 
L 332.049973 123.928118 
L 336.306402 123.543043 
L 340.553854 123.187398 
L 344.792229 122.826388 
L 349.021568 122.474048 
L 353.241917 122.133735 
L 357.453228 121.796566 
L 361.655532 121.458041 
L 365.848887 121.144177 
L 370.033281 120.837792 
L 374.208703 120.526351 
L 378.375186 120.221174 
L 382.532754 119.922113 
L 386.681454 119.6419 
L 390.821258 119.363324 
L 394.952183 119.085016 
L 399.074295 118.819074 
L 403.187494 118.534907 
L 407.291969 118.284179 
L 411.387638 118.043085 
L 415.47454 117.796598 
" style="fill:none;stroke:#2ca02c;stroke-linecap:square;stroke-width:3;"/>
   </g>
   <g id="patch_3">
    <path d="M 68.26 374.9 
L 68.26 30.48 
" style="fill:none;stroke:#000000;stroke-linecap:square;stroke-linejoin:miter;stroke-width:0.8;"/>
   </g>
   <g id="patch_4">
    <path d="M 542.205 374.9 
L 542.205 30.48 
" style="fill:none;stroke:#000000;stroke-linecap:square;stroke-linejoin:miter;stroke-width:0.8;"/>
   </g>
   <g id="patch_5">
    <path d="M 68.26 374.9 
L 542.205 374.9 
" style="fill:none;stroke:#000000;stroke-linecap:square;stroke-linejoin:miter;stroke-width:0.8;"/>
   </g>
   <g id="patch_6">
    <path d="M 68.26 30.48 
L 542.205 30.48 
" style="fill:none;stroke:#000000;stroke-linecap:square;stroke-linejoin:miter;stroke-width:0.8;"/>
   </g>
   <g id="text_21">
    <!-- Comp with DP800 Flowcurve - Loss:  211.12 -->
    <g transform="translate(107.038437 24.48)scale(0.18 -0.18)">
     <defs>
      <path d="M 4122 4306 
L 4122 3641 
Q 3803 3938 3442 4084 
Q 3081 4231 2675 4231 
Q 1875 4231 1450 3742 
Q 1025 3253 1025 2328 
Q 1025 1406 1450 917 
Q 1875 428 2675 428 
Q 3081 428 3442 575 
Q 3803 722 4122 1019 
L 4122 359 
Q 3791 134 3420 21 
Q 3050 -91 2638 -91 
Q 1578 -91 968 557 
Q 359 1206 359 2328 
Q 359 3453 968 4101 
Q 1578 4750 2638 4750 
Q 3056 4750 3426 4639 
Q 3797 4528 4122 4306 
z
" id="DejaVuSans-43" transform="scale(0.015625)"/>
      <path d="M 1959 3097 
Q 1497 3097 1228 2736 
Q 959 2375 959 1747 
Q 959 1119 1226 758 
Q 1494 397 1959 397 
Q 2419 397 2687 759 
Q 2956 1122 2956 1747 
Q 2956 2369 2687 2733 
Q 2419 3097 1959 3097 
z
M 1959 3584 
Q 2709 3584 3137 3096 
Q 3566 2609 3566 1747 
Q 3566 888 3137 398 
Q 2709 -91 1959 -91 
Q 1206 -91 779 398 
Q 353 888 353 1747 
Q 353 2609 779 3096 
Q 1206 3584 1959 3584 
z
" id="DejaVuSans-6f" transform="scale(0.015625)"/>
      <path d="M 3328 2828 
Q 3544 3216 3844 3400 
Q 4144 3584 4550 3584 
Q 5097 3584 5394 3201 
Q 5691 2819 5691 2113 
L 5691 0 
L 5113 0 
L 5113 2094 
Q 5113 2597 4934 2840 
Q 4756 3084 4391 3084 
Q 3944 3084 3684 2787 
Q 3425 2491 3425 1978 
L 3425 0 
L 2847 0 
L 2847 2094 
Q 2847 2600 2669 2842 
Q 2491 3084 2119 3084 
Q 1678 3084 1418 2786 
Q 1159 2488 1159 1978 
L 1159 0 
L 581 0 
L 581 3500 
L 1159 3500 
L 1159 2956 
Q 1356 3278 1631 3431 
Q 1906 3584 2284 3584 
Q 2666 3584 2933 3390 
Q 3200 3197 3328 2828 
z
" id="DejaVuSans-6d" transform="scale(0.015625)"/>
      <path d="M 1159 525 
L 1159 -1331 
L 581 -1331 
L 581 3500 
L 1159 3500 
L 1159 2969 
Q 1341 3281 1617 3432 
Q 1894 3584 2278 3584 
Q 2916 3584 3314 3078 
Q 3713 2572 3713 1747 
Q 3713 922 3314 415 
Q 2916 -91 2278 -91 
Q 1894 -91 1617 61 
Q 1341 213 1159 525 
z
M 3116 1747 
Q 3116 2381 2855 2742 
Q 2594 3103 2138 3103 
Q 1681 3103 1420 2742 
Q 1159 2381 1159 1747 
Q 1159 1113 1420 752 
Q 1681 391 2138 391 
Q 2594 391 2855 752 
Q 3116 1113 3116 1747 
z
" id="DejaVuSans-70" transform="scale(0.015625)"/>
      <path d="M 269 3500 
L 844 3500 
L 1563 769 
L 2278 3500 
L 2956 3500 
L 3675 769 
L 4391 3500 
L 4966 3500 
L 4050 0 
L 3372 0 
L 2619 2869 
L 1863 0 
L 1184 0 
L 269 3500 
z
" id="DejaVuSans-77" transform="scale(0.015625)"/>
      <path d="M 3513 2113 
L 3513 0 
L 2938 0 
L 2938 2094 
Q 2938 2591 2744 2837 
Q 2550 3084 2163 3084 
Q 1697 3084 1428 2787 
Q 1159 2491 1159 1978 
L 1159 0 
L 581 0 
L 581 4863 
L 1159 4863 
L 1159 2956 
Q 1366 3272 1645 3428 
Q 1925 3584 2291 3584 
Q 2894 3584 3203 3211 
Q 3513 2838 3513 2113 
z
" id="DejaVuSans-68" transform="scale(0.015625)"/>
      <path d="M 1259 4147 
L 1259 519 
L 2022 519 
Q 2988 519 3436 956 
Q 3884 1394 3884 2338 
Q 3884 3275 3436 3711 
Q 2988 4147 2022 4147 
L 1259 4147 
z
M 628 4666 
L 1925 4666 
Q 3281 4666 3915 4102 
Q 4550 3538 4550 2338 
Q 4550 1131 3912 565 
Q 3275 0 1925 0 
L 628 0 
L 628 4666 
z
" id="DejaVuSans-44" transform="scale(0.015625)"/>
      <path d="M 628 4666 
L 3309 4666 
L 3309 4134 
L 1259 4134 
L 1259 2759 
L 3109 2759 
L 3109 2228 
L 1259 2228 
L 1259 0 
L 628 0 
L 628 4666 
z
" id="DejaVuSans-46" transform="scale(0.015625)"/>
      <path d="M 603 4863 
L 1178 4863 
L 1178 0 
L 603 0 
L 603 4863 
z
" id="DejaVuSans-6c" transform="scale(0.015625)"/>
      <path d="M 3122 3366 
L 3122 2828 
Q 2878 2963 2633 3030 
Q 2388 3097 2138 3097 
Q 1578 3097 1268 2742 
Q 959 2388 959 1747 
Q 959 1106 1268 751 
Q 1578 397 2138 397 
Q 2388 397 2633 464 
Q 2878 531 3122 666 
L 3122 134 
Q 2881 22 2623 -34 
Q 2366 -91 2075 -91 
Q 1284 -91 818 406 
Q 353 903 353 1747 
Q 353 2603 823 3093 
Q 1294 3584 2113 3584 
Q 2378 3584 2631 3529 
Q 2884 3475 3122 3366 
z
" id="DejaVuSans-63" transform="scale(0.015625)"/>
      <path d="M 191 3500 
L 800 3500 
L 1894 563 
L 2988 3500 
L 3597 3500 
L 2284 0 
L 1503 0 
L 191 3500 
z
" id="DejaVuSans-76" transform="scale(0.015625)"/>
      <path d="M 628 4666 
L 1259 4666 
L 1259 531 
L 3531 531 
L 3531 0 
L 628 0 
L 628 4666 
z
" id="DejaVuSans-4c" transform="scale(0.015625)"/>
      <path d="M 750 794 
L 1409 794 
L 1409 0 
L 750 0 
L 750 794 
z
M 750 3309 
L 1409 3309 
L 1409 2516 
L 750 2516 
L 750 3309 
z
" id="DejaVuSans-3a" transform="scale(0.015625)"/>
     </defs>
     <use xlink:href="#DejaVuSans-43"/>
     <use x="69.824219" xlink:href="#DejaVuSans-6f"/>
     <use x="131.005859" xlink:href="#DejaVuSans-6d"/>
     <use x="228.417969" xlink:href="#DejaVuSans-70"/>
     <use x="291.894531" xlink:href="#DejaVuSans-20"/>
     <use x="323.681641" xlink:href="#DejaVuSans-77"/>
     <use x="405.46875" xlink:href="#DejaVuSans-69"/>
     <use x="433.251953" xlink:href="#DejaVuSans-74"/>
     <use x="472.460938" xlink:href="#DejaVuSans-68"/>
     <use x="535.839844" xlink:href="#DejaVuSans-20"/>
     <use x="567.626953" xlink:href="#DejaVuSans-44"/>
     <use x="644.628906" xlink:href="#DejaVuSans-50"/>
     <use x="704.931641" xlink:href="#DejaVuSans-38"/>
     <use x="768.554688" xlink:href="#DejaVuSans-30"/>
     <use x="832.177734" xlink:href="#DejaVuSans-30"/>
     <use x="895.800781" xlink:href="#DejaVuSans-20"/>
     <use x="927.587891" xlink:href="#DejaVuSans-46"/>
     <use x="985.107422" xlink:href="#DejaVuSans-6c"/>
     <use x="1012.890625" xlink:href="#DejaVuSans-6f"/>
     <use x="1074.072266" xlink:href="#DejaVuSans-77"/>
     <use x="1155.859375" xlink:href="#DejaVuSans-63"/>
     <use x="1210.839844" xlink:href="#DejaVuSans-75"/>
     <use x="1274.21875" xlink:href="#DejaVuSans-72"/>
     <use x="1315.332031" xlink:href="#DejaVuSans-76"/>
     <use x="1374.511719" xlink:href="#DejaVuSans-65"/>
     <use x="1436.035156" xlink:href="#DejaVuSans-20"/>
     <use x="1467.822266" xlink:href="#DejaVuSans-2d"/>
     <use x="1503.90625" xlink:href="#DejaVuSans-20"/>
     <use x="1535.693359" xlink:href="#DejaVuSans-4c"/>
     <use x="1589.65625" xlink:href="#DejaVuSans-6f"/>
     <use x="1650.837891" xlink:href="#DejaVuSans-73"/>
     <use x="1702.9375" xlink:href="#DejaVuSans-73"/>
     <use x="1755.037109" xlink:href="#DejaVuSans-3a"/>
     <use x="1788.728516" xlink:href="#DejaVuSans-20"/>
     <use x="1820.515625" xlink:href="#DejaVuSans-20"/>
     <use x="1852.302734" xlink:href="#DejaVuSans-32"/>
     <use x="1915.925781" xlink:href="#DejaVuSans-31"/>
     <use x="1979.548828" xlink:href="#DejaVuSans-31"/>
     <use x="2043.171875" xlink:href="#DejaVuSans-2e"/>
     <use x="2074.958984" xlink:href="#DejaVuSans-31"/>
     <use x="2138.582031" xlink:href="#DejaVuSans-32"/>
    </g>
   </g>
   <g id="legend_1">
    <g id="patch_7">
     <path d="M 80.86 365.9 
L 294.773125 365.9 
Q 298.373125 365.9 298.373125 362.3 
L 298.373125 284.838125 
Q 298.373125 281.238125 294.773125 281.238125 
L 80.86 281.238125 
Q 77.26 281.238125 77.26 284.838125 
L 77.26 362.3 
Q 77.26 365.9 80.86 365.9 
z
" style="fill:#ffffff;opacity:0.8;stroke:#cccccc;stroke-linejoin:miter;"/>
    </g>
    <g id="line2d_21">
     <path d="M 84.46 295.815312 
L 120.46 295.815312 
" style="fill:none;stroke:#1f77b4;stroke-linecap:square;stroke-width:3;"/>
    </g>
    <g id="line2d_22"/>
    <g id="text_22">
     <!-- True Stress RVE -->
     <g transform="translate(134.86 302.115312)scale(0.18 -0.18)">
      <defs>
       <path d="M 2841 2188 
Q 3044 2119 3236 1894 
Q 3428 1669 3622 1275 
L 4263 0 
L 3584 0 
L 2988 1197 
Q 2756 1666 2539 1819 
Q 2322 1972 1947 1972 
L 1259 1972 
L 1259 0 
L 628 0 
L 628 4666 
L 2053 4666 
Q 2853 4666 3247 4331 
Q 3641 3997 3641 3322 
Q 3641 2881 3436 2590 
Q 3231 2300 2841 2188 
z
M 1259 4147 
L 1259 2491 
L 2053 2491 
Q 2509 2491 2742 2702 
Q 2975 2913 2975 3322 
Q 2975 3731 2742 3939 
Q 2509 4147 2053 4147 
L 1259 4147 
z
" id="DejaVuSans-52" transform="scale(0.015625)"/>
       <path d="M 1831 0 
L 50 4666 
L 709 4666 
L 2188 738 
L 3669 4666 
L 4325 4666 
L 2547 0 
L 1831 0 
z
" id="DejaVuSans-56" transform="scale(0.015625)"/>
       <path d="M 628 4666 
L 3578 4666 
L 3578 4134 
L 1259 4134 
L 1259 2753 
L 3481 2753 
L 3481 2222 
L 1259 2222 
L 1259 531 
L 3634 531 
L 3634 0 
L 628 0 
L 628 4666 
z
" id="DejaVuSans-45" transform="scale(0.015625)"/>
      </defs>
      <use xlink:href="#DejaVuSans-54"/>
      <use x="46.333984" xlink:href="#DejaVuSans-72"/>
      <use x="87.447266" xlink:href="#DejaVuSans-75"/>
      <use x="150.826172" xlink:href="#DejaVuSans-65"/>
      <use x="212.349609" xlink:href="#DejaVuSans-20"/>
      <use x="244.136719" xlink:href="#DejaVuSans-53"/>
      <use x="307.613281" xlink:href="#DejaVuSans-74"/>
      <use x="346.822266" xlink:href="#DejaVuSans-72"/>
      <use x="385.685547" xlink:href="#DejaVuSans-65"/>
      <use x="447.208984" xlink:href="#DejaVuSans-73"/>
      <use x="499.308594" xlink:href="#DejaVuSans-73"/>
      <use x="551.408203" xlink:href="#DejaVuSans-20"/>
      <use x="583.195312" xlink:href="#DejaVuSans-52"/>
      <use x="647.177734" xlink:href="#DejaVuSans-56"/>
      <use x="715.585938" xlink:href="#DejaVuSans-45"/>
     </g>
    </g>
    <g id="line2d_23">
     <path d="M 84.46 322.235937 
L 120.46 322.235937 
" style="fill:none;stroke:#ff7f0e;stroke-linecap:square;stroke-width:3;"/>
    </g>
    <g id="line2d_24"/>
    <g id="text_23">
     <!-- DP800 Flowcurve -->
     <g transform="translate(134.86 328.535937)scale(0.18 -0.18)">
      <use xlink:href="#DejaVuSans-44"/>
      <use x="77.001953" xlink:href="#DejaVuSans-50"/>
      <use x="137.304688" xlink:href="#DejaVuSans-38"/>
      <use x="200.927734" xlink:href="#DejaVuSans-30"/>
      <use x="264.550781" xlink:href="#DejaVuSans-30"/>
      <use x="328.173828" xlink:href="#DejaVuSans-20"/>
      <use x="359.960938" xlink:href="#DejaVuSans-46"/>
      <use x="417.480469" xlink:href="#DejaVuSans-6c"/>
      <use x="445.263672" xlink:href="#DejaVuSans-6f"/>
      <use x="506.445312" xlink:href="#DejaVuSans-77"/>
      <use x="588.232422" xlink:href="#DejaVuSans-63"/>
      <use x="643.212891" xlink:href="#DejaVuSans-75"/>
      <use x="706.591797" xlink:href="#DejaVuSans-72"/>
      <use x="747.705078" xlink:href="#DejaVuSans-76"/>
      <use x="806.884766" xlink:href="#DejaVuSans-65"/>
     </g>
    </g>
    <g id="line2d_25">
     <path d="M 84.46 348.656562 
L 120.46 348.656562 
" style="fill:none;stroke:#2ca02c;stroke-linecap:square;stroke-width:3;"/>
    </g>
    <g id="line2d_26"/>
    <g id="text_24">
     <!-- Eng. Stress RVE -->
     <g transform="translate(134.86 354.956562)scale(0.18 -0.18)">
      <defs>
       <path d="M 2906 1791 
Q 2906 2416 2648 2759 
Q 2391 3103 1925 3103 
Q 1463 3103 1205 2759 
Q 947 2416 947 1791 
Q 947 1169 1205 825 
Q 1463 481 1925 481 
Q 2391 481 2648 825 
Q 2906 1169 2906 1791 
z
M 3481 434 
Q 3481 -459 3084 -895 
Q 2688 -1331 1869 -1331 
Q 1566 -1331 1297 -1286 
Q 1028 -1241 775 -1147 
L 775 -588 
Q 1028 -725 1275 -790 
Q 1522 -856 1778 -856 
Q 2344 -856 2625 -561 
Q 2906 -266 2906 331 
L 2906 616 
Q 2728 306 2450 153 
Q 2172 0 1784 0 
Q 1141 0 747 490 
Q 353 981 353 1791 
Q 353 2603 747 3093 
Q 1141 3584 1784 3584 
Q 2172 3584 2450 3431 
Q 2728 3278 2906 2969 
L 2906 3500 
L 3481 3500 
L 3481 434 
z
" id="DejaVuSans-67" transform="scale(0.015625)"/>
      </defs>
      <use xlink:href="#DejaVuSans-45"/>
      <use x="63.183594" xlink:href="#DejaVuSans-6e"/>
      <use x="126.5625" xlink:href="#DejaVuSans-67"/>
      <use x="190.039062" xlink:href="#DejaVuSans-2e"/>
      <use x="221.826172" xlink:href="#DejaVuSans-20"/>
      <use x="253.613281" xlink:href="#DejaVuSans-53"/>
      <use x="317.089844" xlink:href="#DejaVuSans-74"/>
      <use x="356.298828" xlink:href="#DejaVuSans-72"/>
      <use x="395.162109" xlink:href="#DejaVuSans-65"/>
      <use x="456.685547" xlink:href="#DejaVuSans-73"/>
      <use x="508.785156" xlink:href="#DejaVuSans-73"/>
      <use x="560.884766" xlink:href="#DejaVuSans-20"/>
      <use x="592.671875" xlink:href="#DejaVuSans-52"/>
      <use x="656.654297" xlink:href="#DejaVuSans-56"/>
      <use x="725.0625" xlink:href="#DejaVuSans-45"/>
     </g>
    </g>
   </g>
  </g>
 </g>
 <defs>
  <clipPath id="p8de86412ec">
   <rect height="344.42" width="473.945" x="68.26" y="30.48"/>
  </clipPath>
 </defs>
</svg>
