<?xml version="1.0" encoding="utf-8" standalone="no"?>
<!DOCTYPE svg PUBLIC "-//W3C//DTD SVG 1.1//EN"
  "http://www.w3.org/Graphics/SVG/1.1/DTD/svg11.dtd">
<svg height="432pt" version="1.1" viewBox="0 0 576 432" width="576pt" xmlns="http://www.w3.org/2000/svg" xmlns:xlink="http://www.w3.org/1999/xlink">
 <metadata>
  <rdf:RDF xmlns:cc="http://creativecommons.org/ns#" xmlns:dc="http://purl.org/dc/elements/1.1/" xmlns:rdf="http://www.w3.org/1999/02/22-rdf-syntax-ns#">
   <cc:Work>
    <dc:type rdf:resource="http://purl.org/dc/dcmitype/StillImage"/>
    <dc:date>2024-09-12T23:56:32.979075</dc:date>
    <dc:format>image/svg+xml</dc:format>
    <dc:creator>
     <cc:Agent>
      <dc:title>Matplotlib v3.4.2, https://matplotlib.org/</dc:title>
     </cc:Agent>
    </dc:creator>
   </cc:Work>
  </rdf:RDF>
 </metadata>
 <defs>
  <style type="text/css">*{stroke-linecap:butt;stroke-linejoin:round;}</style>
 </defs>
 <g id="figure_1">
  <g id="patch_1">
   <path d="M 0 432 
L 576 432 
L 576 0 
L 0 0 
z
" style="fill:#ffffff;"/>
  </g>
  <g id="axes_1">
   <g id="patch_2">
    <path d="M 68.26 374.9 
L 549.81 374.9 
L 549.81 16.56 
L 68.26 16.56 
z
" style="fill:#ffffff;"/>
   </g>
   <g id="matplotlib.axis_1">
    <g id="xtick_1">
     <g id="line2d_1">
      <defs>
       <path d="M 0 0 
L 0 10 
" id="m1b0dd111ee" style="stroke:#000000;stroke-width:0.8;"/>
      </defs>
      <g>
       <use style="stroke:#000000;stroke-width:0.8;" x="68.26" xlink:href="#m1b0dd111ee" y="374.9"/>
      </g>
     </g>
     <g id="text_1">
      <!-- 150 -->
      <g transform="translate(52.99 400.5575)scale(0.16 -0.16)">
       <defs>
        <path d="M 794 531 
L 1825 531 
L 1825 4091 
L 703 3866 
L 703 4441 
L 1819 4666 
L 2450 4666 
L 2450 531 
L 3481 531 
L 3481 0 
L 794 0 
L 794 531 
z
" id="DejaVuSans-31" transform="scale(0.015625)"/>
        <path d="M 691 4666 
L 3169 4666 
L 3169 4134 
L 1269 4134 
L 1269 2991 
Q 1406 3038 1543 3061 
Q 1681 3084 1819 3084 
Q 2600 3084 3056 2656 
Q 3513 2228 3513 1497 
Q 3513 744 3044 326 
Q 2575 -91 1722 -91 
Q 1428 -91 1123 -41 
Q 819 9 494 109 
L 494 744 
Q 775 591 1075 516 
Q 1375 441 1709 441 
Q 2250 441 2565 725 
Q 2881 1009 2881 1497 
Q 2881 1984 2565 2268 
Q 2250 2553 1709 2553 
Q 1456 2553 1204 2497 
Q 953 2441 691 2322 
L 691 4666 
z
" id="DejaVuSans-35" transform="scale(0.015625)"/>
        <path d="M 2034 4250 
Q 1547 4250 1301 3770 
Q 1056 3291 1056 2328 
Q 1056 1369 1301 889 
Q 1547 409 2034 409 
Q 2525 409 2770 889 
Q 3016 1369 3016 2328 
Q 3016 3291 2770 3770 
Q 2525 4250 2034 4250 
z
M 2034 4750 
Q 2819 4750 3233 4129 
Q 3647 3509 3647 2328 
Q 3647 1150 3233 529 
Q 2819 -91 2034 -91 
Q 1250 -91 836 529 
Q 422 1150 422 2328 
Q 422 3509 836 4129 
Q 1250 4750 2034 4750 
z
" id="DejaVuSans-30" transform="scale(0.015625)"/>
       </defs>
       <use xlink:href="#DejaVuSans-31"/>
       <use x="63.623047" xlink:href="#DejaVuSans-35"/>
       <use x="127.246094" xlink:href="#DejaVuSans-30"/>
      </g>
     </g>
    </g>
    <g id="xtick_2">
     <g id="line2d_2">
      <g>
       <use style="stroke:#000000;stroke-width:0.8;" x="128.45375" xlink:href="#m1b0dd111ee" y="374.9"/>
      </g>
     </g>
     <g id="text_2">
      <!-- 200 -->
      <g transform="translate(113.18375 400.5575)scale(0.16 -0.16)">
       <defs>
        <path d="M 1228 531 
L 3431 531 
L 3431 0 
L 469 0 
L 469 531 
Q 828 903 1448 1529 
Q 2069 2156 2228 2338 
Q 2531 2678 2651 2914 
Q 2772 3150 2772 3378 
Q 2772 3750 2511 3984 
Q 2250 4219 1831 4219 
Q 1534 4219 1204 4116 
Q 875 4013 500 3803 
L 500 4441 
Q 881 4594 1212 4672 
Q 1544 4750 1819 4750 
Q 2544 4750 2975 4387 
Q 3406 4025 3406 3419 
Q 3406 3131 3298 2873 
Q 3191 2616 2906 2266 
Q 2828 2175 2409 1742 
Q 1991 1309 1228 531 
z
" id="DejaVuSans-32" transform="scale(0.015625)"/>
       </defs>
       <use xlink:href="#DejaVuSans-32"/>
       <use x="63.623047" xlink:href="#DejaVuSans-30"/>
       <use x="127.246094" xlink:href="#DejaVuSans-30"/>
      </g>
     </g>
    </g>
    <g id="xtick_3">
     <g id="line2d_3">
      <g>
       <use style="stroke:#000000;stroke-width:0.8;" x="188.6475" xlink:href="#m1b0dd111ee" y="374.9"/>
      </g>
     </g>
     <g id="text_3">
      <!-- 250 -->
      <g transform="translate(173.3775 400.5575)scale(0.16 -0.16)">
       <use xlink:href="#DejaVuSans-32"/>
       <use x="63.623047" xlink:href="#DejaVuSans-35"/>
       <use x="127.246094" xlink:href="#DejaVuSans-30"/>
      </g>
     </g>
    </g>
    <g id="xtick_4">
     <g id="line2d_4">
      <g>
       <use style="stroke:#000000;stroke-width:0.8;" x="248.84125" xlink:href="#m1b0dd111ee" y="374.9"/>
      </g>
     </g>
     <g id="text_4">
      <!-- 300 -->
      <g transform="translate(233.57125 400.5575)scale(0.16 -0.16)">
       <defs>
        <path d="M 2597 2516 
Q 3050 2419 3304 2112 
Q 3559 1806 3559 1356 
Q 3559 666 3084 287 
Q 2609 -91 1734 -91 
Q 1441 -91 1130 -33 
Q 819 25 488 141 
L 488 750 
Q 750 597 1062 519 
Q 1375 441 1716 441 
Q 2309 441 2620 675 
Q 2931 909 2931 1356 
Q 2931 1769 2642 2001 
Q 2353 2234 1838 2234 
L 1294 2234 
L 1294 2753 
L 1863 2753 
Q 2328 2753 2575 2939 
Q 2822 3125 2822 3475 
Q 2822 3834 2567 4026 
Q 2313 4219 1838 4219 
Q 1578 4219 1281 4162 
Q 984 4106 628 3988 
L 628 4550 
Q 988 4650 1302 4700 
Q 1616 4750 1894 4750 
Q 2613 4750 3031 4423 
Q 3450 4097 3450 3541 
Q 3450 3153 3228 2886 
Q 3006 2619 2597 2516 
z
" id="DejaVuSans-33" transform="scale(0.015625)"/>
       </defs>
       <use xlink:href="#DejaVuSans-33"/>
       <use x="63.623047" xlink:href="#DejaVuSans-30"/>
       <use x="127.246094" xlink:href="#DejaVuSans-30"/>
      </g>
     </g>
    </g>
    <g id="xtick_5">
     <g id="line2d_5">
      <g>
       <use style="stroke:#000000;stroke-width:0.8;" x="309.035" xlink:href="#m1b0dd111ee" y="374.9"/>
      </g>
     </g>
     <g id="text_5">
      <!-- 350 -->
      <g transform="translate(293.765 400.5575)scale(0.16 -0.16)">
       <use xlink:href="#DejaVuSans-33"/>
       <use x="63.623047" xlink:href="#DejaVuSans-35"/>
       <use x="127.246094" xlink:href="#DejaVuSans-30"/>
      </g>
     </g>
    </g>
    <g id="xtick_6">
     <g id="line2d_6">
      <g>
       <use style="stroke:#000000;stroke-width:0.8;" x="369.22875" xlink:href="#m1b0dd111ee" y="374.9"/>
      </g>
     </g>
     <g id="text_6">
      <!-- 400 -->
      <g transform="translate(353.95875 400.5575)scale(0.16 -0.16)">
       <defs>
        <path d="M 2419 4116 
L 825 1625 
L 2419 1625 
L 2419 4116 
z
M 2253 4666 
L 3047 4666 
L 3047 1625 
L 3713 1625 
L 3713 1100 
L 3047 1100 
L 3047 0 
L 2419 0 
L 2419 1100 
L 313 1100 
L 313 1709 
L 2253 4666 
z
" id="DejaVuSans-34" transform="scale(0.015625)"/>
       </defs>
       <use xlink:href="#DejaVuSans-34"/>
       <use x="63.623047" xlink:href="#DejaVuSans-30"/>
       <use x="127.246094" xlink:href="#DejaVuSans-30"/>
      </g>
     </g>
    </g>
    <g id="xtick_7">
     <g id="line2d_7">
      <g>
       <use style="stroke:#000000;stroke-width:0.8;" x="429.4225" xlink:href="#m1b0dd111ee" y="374.9"/>
      </g>
     </g>
     <g id="text_7">
      <!-- 450 -->
      <g transform="translate(414.1525 400.5575)scale(0.16 -0.16)">
       <use xlink:href="#DejaVuSans-34"/>
       <use x="63.623047" xlink:href="#DejaVuSans-35"/>
       <use x="127.246094" xlink:href="#DejaVuSans-30"/>
      </g>
     </g>
    </g>
    <g id="xtick_8">
     <g id="line2d_8">
      <g>
       <use style="stroke:#000000;stroke-width:0.8;" x="489.61625" xlink:href="#m1b0dd111ee" y="374.9"/>
      </g>
     </g>
     <g id="text_8">
      <!-- 500 -->
      <g transform="translate(474.34625 400.5575)scale(0.16 -0.16)">
       <use xlink:href="#DejaVuSans-35"/>
       <use x="63.623047" xlink:href="#DejaVuSans-30"/>
       <use x="127.246094" xlink:href="#DejaVuSans-30"/>
      </g>
     </g>
    </g>
    <g id="xtick_9">
     <g id="line2d_9">
      <g>
       <use style="stroke:#000000;stroke-width:0.8;" x="549.81" xlink:href="#m1b0dd111ee" y="374.9"/>
      </g>
     </g>
     <g id="text_9">
      <!-- 550 -->
      <g transform="translate(534.54 400.5575)scale(0.16 -0.16)">
       <use xlink:href="#DejaVuSans-35"/>
       <use x="63.623047" xlink:href="#DejaVuSans-35"/>
       <use x="127.246094" xlink:href="#DejaVuSans-30"/>
      </g>
     </g>
    </g>
    <g id="text_10">
     <!-- CRSS (MPa) -->
     <g transform="translate(262.67875 420.0425)scale(0.16 -0.16)">
      <defs>
       <path d="M 4122 4306 
L 4122 3641 
Q 3803 3938 3442 4084 
Q 3081 4231 2675 4231 
Q 1875 4231 1450 3742 
Q 1025 3253 1025 2328 
Q 1025 1406 1450 917 
Q 1875 428 2675 428 
Q 3081 428 3442 575 
Q 3803 722 4122 1019 
L 4122 359 
Q 3791 134 3420 21 
Q 3050 -91 2638 -91 
Q 1578 -91 968 557 
Q 359 1206 359 2328 
Q 359 3453 968 4101 
Q 1578 4750 2638 4750 
Q 3056 4750 3426 4639 
Q 3797 4528 4122 4306 
z
" id="DejaVuSans-43" transform="scale(0.015625)"/>
       <path d="M 2841 2188 
Q 3044 2119 3236 1894 
Q 3428 1669 3622 1275 
L 4263 0 
L 3584 0 
L 2988 1197 
Q 2756 1666 2539 1819 
Q 2322 1972 1947 1972 
L 1259 1972 
L 1259 0 
L 628 0 
L 628 4666 
L 2053 4666 
Q 2853 4666 3247 4331 
Q 3641 3997 3641 3322 
Q 3641 2881 3436 2590 
Q 3231 2300 2841 2188 
z
M 1259 4147 
L 1259 2491 
L 2053 2491 
Q 2509 2491 2742 2702 
Q 2975 2913 2975 3322 
Q 2975 3731 2742 3939 
Q 2509 4147 2053 4147 
L 1259 4147 
z
" id="DejaVuSans-52" transform="scale(0.015625)"/>
       <path d="M 3425 4513 
L 3425 3897 
Q 3066 4069 2747 4153 
Q 2428 4238 2131 4238 
Q 1616 4238 1336 4038 
Q 1056 3838 1056 3469 
Q 1056 3159 1242 3001 
Q 1428 2844 1947 2747 
L 2328 2669 
Q 3034 2534 3370 2195 
Q 3706 1856 3706 1288 
Q 3706 609 3251 259 
Q 2797 -91 1919 -91 
Q 1588 -91 1214 -16 
Q 841 59 441 206 
L 441 856 
Q 825 641 1194 531 
Q 1563 422 1919 422 
Q 2459 422 2753 634 
Q 3047 847 3047 1241 
Q 3047 1584 2836 1778 
Q 2625 1972 2144 2069 
L 1759 2144 
Q 1053 2284 737 2584 
Q 422 2884 422 3419 
Q 422 4038 858 4394 
Q 1294 4750 2059 4750 
Q 2388 4750 2728 4690 
Q 3069 4631 3425 4513 
z
" id="DejaVuSans-53" transform="scale(0.015625)"/>
       <path id="DejaVuSans-20" transform="scale(0.015625)"/>
       <path d="M 1984 4856 
Q 1566 4138 1362 3434 
Q 1159 2731 1159 2009 
Q 1159 1288 1364 580 
Q 1569 -128 1984 -844 
L 1484 -844 
Q 1016 -109 783 600 
Q 550 1309 550 2009 
Q 550 2706 781 3412 
Q 1013 4119 1484 4856 
L 1984 4856 
z
" id="DejaVuSans-28" transform="scale(0.015625)"/>
       <path d="M 628 4666 
L 1569 4666 
L 2759 1491 
L 3956 4666 
L 4897 4666 
L 4897 0 
L 4281 0 
L 4281 4097 
L 3078 897 
L 2444 897 
L 1241 4097 
L 1241 0 
L 628 0 
L 628 4666 
z
" id="DejaVuSans-4d" transform="scale(0.015625)"/>
       <path d="M 1259 4147 
L 1259 2394 
L 2053 2394 
Q 2494 2394 2734 2622 
Q 2975 2850 2975 3272 
Q 2975 3691 2734 3919 
Q 2494 4147 2053 4147 
L 1259 4147 
z
M 628 4666 
L 2053 4666 
Q 2838 4666 3239 4311 
Q 3641 3956 3641 3272 
Q 3641 2581 3239 2228 
Q 2838 1875 2053 1875 
L 1259 1875 
L 1259 0 
L 628 0 
L 628 4666 
z
" id="DejaVuSans-50" transform="scale(0.015625)"/>
       <path d="M 2194 1759 
Q 1497 1759 1228 1600 
Q 959 1441 959 1056 
Q 959 750 1161 570 
Q 1363 391 1709 391 
Q 2188 391 2477 730 
Q 2766 1069 2766 1631 
L 2766 1759 
L 2194 1759 
z
M 3341 1997 
L 3341 0 
L 2766 0 
L 2766 531 
Q 2569 213 2275 61 
Q 1981 -91 1556 -91 
Q 1019 -91 701 211 
Q 384 513 384 1019 
Q 384 1609 779 1909 
Q 1175 2209 1959 2209 
L 2766 2209 
L 2766 2266 
Q 2766 2663 2505 2880 
Q 2244 3097 1772 3097 
Q 1472 3097 1187 3025 
Q 903 2953 641 2809 
L 641 3341 
Q 956 3463 1253 3523 
Q 1550 3584 1831 3584 
Q 2591 3584 2966 3190 
Q 3341 2797 3341 1997 
z
" id="DejaVuSans-61" transform="scale(0.015625)"/>
       <path d="M 513 4856 
L 1013 4856 
Q 1481 4119 1714 3412 
Q 1947 2706 1947 2009 
Q 1947 1309 1714 600 
Q 1481 -109 1013 -844 
L 513 -844 
Q 928 -128 1133 580 
Q 1338 1288 1338 2009 
Q 1338 2731 1133 3434 
Q 928 4138 513 4856 
z
" id="DejaVuSans-29" transform="scale(0.015625)"/>
      </defs>
      <use xlink:href="#DejaVuSans-43"/>
      <use x="69.824219" xlink:href="#DejaVuSans-52"/>
      <use x="139.306641" xlink:href="#DejaVuSans-53"/>
      <use x="202.783203" xlink:href="#DejaVuSans-53"/>
      <use x="266.259766" xlink:href="#DejaVuSans-20"/>
      <use x="298.046875" xlink:href="#DejaVuSans-28"/>
      <use x="337.060547" xlink:href="#DejaVuSans-4d"/>
      <use x="423.339844" xlink:href="#DejaVuSans-50"/>
      <use x="479.142578" xlink:href="#DejaVuSans-61"/>
      <use x="540.421875" xlink:href="#DejaVuSans-29"/>
     </g>
    </g>
   </g>
   <g id="matplotlib.axis_2">
    <g id="ytick_1">
     <g id="line2d_10">
      <defs>
       <path d="M 0 0 
L -10 0 
" id="m2db9c0752f" style="stroke:#000000;stroke-width:0.8;"/>
      </defs>
      <g>
       <use style="stroke:#000000;stroke-width:0.8;" x="68.26" xlink:href="#m2db9c0752f" y="374.9"/>
      </g>
     </g>
     <g id="text_11">
      <!-- 0.0 -->
      <g transform="translate(29.315 380.97875)scale(0.16 -0.16)">
       <defs>
        <path d="M 684 794 
L 1344 794 
L 1344 0 
L 684 0 
L 684 794 
z
" id="DejaVuSans-2e" transform="scale(0.015625)"/>
       </defs>
       <use xlink:href="#DejaVuSans-30"/>
       <use x="63.623047" xlink:href="#DejaVuSans-2e"/>
       <use x="95.410156" xlink:href="#DejaVuSans-30"/>
      </g>
     </g>
    </g>
    <g id="ytick_2">
     <g id="line2d_11">
      <g>
       <use style="stroke:#000000;stroke-width:0.8;" x="68.26" xlink:href="#m2db9c0752f" y="303.232"/>
      </g>
     </g>
     <g id="text_12">
      <!-- 0.2 -->
      <g transform="translate(29.315 309.31075)scale(0.16 -0.16)">
       <use xlink:href="#DejaVuSans-30"/>
       <use x="63.623047" xlink:href="#DejaVuSans-2e"/>
       <use x="95.410156" xlink:href="#DejaVuSans-32"/>
      </g>
     </g>
    </g>
    <g id="ytick_3">
     <g id="line2d_12">
      <g>
       <use style="stroke:#000000;stroke-width:0.8;" x="68.26" xlink:href="#m2db9c0752f" y="231.564"/>
      </g>
     </g>
     <g id="text_13">
      <!-- 0.4 -->
      <g transform="translate(29.315 237.64275)scale(0.16 -0.16)">
       <use xlink:href="#DejaVuSans-30"/>
       <use x="63.623047" xlink:href="#DejaVuSans-2e"/>
       <use x="95.410156" xlink:href="#DejaVuSans-34"/>
      </g>
     </g>
    </g>
    <g id="ytick_4">
     <g id="line2d_13">
      <g>
       <use style="stroke:#000000;stroke-width:0.8;" x="68.26" xlink:href="#m2db9c0752f" y="159.896"/>
      </g>
     </g>
     <g id="text_14">
      <!-- 0.6 -->
      <g transform="translate(29.315 165.97475)scale(0.16 -0.16)">
       <defs>
        <path d="M 2113 2584 
Q 1688 2584 1439 2293 
Q 1191 2003 1191 1497 
Q 1191 994 1439 701 
Q 1688 409 2113 409 
Q 2538 409 2786 701 
Q 3034 994 3034 1497 
Q 3034 2003 2786 2293 
Q 2538 2584 2113 2584 
z
M 3366 4563 
L 3366 3988 
Q 3128 4100 2886 4159 
Q 2644 4219 2406 4219 
Q 1781 4219 1451 3797 
Q 1122 3375 1075 2522 
Q 1259 2794 1537 2939 
Q 1816 3084 2150 3084 
Q 2853 3084 3261 2657 
Q 3669 2231 3669 1497 
Q 3669 778 3244 343 
Q 2819 -91 2113 -91 
Q 1303 -91 875 529 
Q 447 1150 447 2328 
Q 447 3434 972 4092 
Q 1497 4750 2381 4750 
Q 2619 4750 2861 4703 
Q 3103 4656 3366 4563 
z
" id="DejaVuSans-36" transform="scale(0.015625)"/>
       </defs>
       <use xlink:href="#DejaVuSans-30"/>
       <use x="63.623047" xlink:href="#DejaVuSans-2e"/>
       <use x="95.410156" xlink:href="#DejaVuSans-36"/>
      </g>
     </g>
    </g>
    <g id="ytick_5">
     <g id="line2d_14">
      <g>
       <use style="stroke:#000000;stroke-width:0.8;" x="68.26" xlink:href="#m2db9c0752f" y="88.228"/>
      </g>
     </g>
     <g id="text_15">
      <!-- 0.8 -->
      <g transform="translate(29.315 94.30675)scale(0.16 -0.16)">
       <defs>
        <path d="M 2034 2216 
Q 1584 2216 1326 1975 
Q 1069 1734 1069 1313 
Q 1069 891 1326 650 
Q 1584 409 2034 409 
Q 2484 409 2743 651 
Q 3003 894 3003 1313 
Q 3003 1734 2745 1975 
Q 2488 2216 2034 2216 
z
M 1403 2484 
Q 997 2584 770 2862 
Q 544 3141 544 3541 
Q 544 4100 942 4425 
Q 1341 4750 2034 4750 
Q 2731 4750 3128 4425 
Q 3525 4100 3525 3541 
Q 3525 3141 3298 2862 
Q 3072 2584 2669 2484 
Q 3125 2378 3379 2068 
Q 3634 1759 3634 1313 
Q 3634 634 3220 271 
Q 2806 -91 2034 -91 
Q 1263 -91 848 271 
Q 434 634 434 1313 
Q 434 1759 690 2068 
Q 947 2378 1403 2484 
z
M 1172 3481 
Q 1172 3119 1398 2916 
Q 1625 2713 2034 2713 
Q 2441 2713 2670 2916 
Q 2900 3119 2900 3481 
Q 2900 3844 2670 4047 
Q 2441 4250 2034 4250 
Q 1625 4250 1398 4047 
Q 1172 3844 1172 3481 
z
" id="DejaVuSans-38" transform="scale(0.015625)"/>
       </defs>
       <use xlink:href="#DejaVuSans-30"/>
       <use x="63.623047" xlink:href="#DejaVuSans-2e"/>
       <use x="95.410156" xlink:href="#DejaVuSans-38"/>
      </g>
     </g>
    </g>
    <g id="ytick_6">
     <g id="line2d_15">
      <g>
       <use style="stroke:#000000;stroke-width:0.8;" x="68.26" xlink:href="#m2db9c0752f" y="16.56"/>
      </g>
     </g>
     <g id="text_16">
      <!-- 1.0 -->
      <g transform="translate(29.315 22.63875)scale(0.16 -0.16)">
       <use xlink:href="#DejaVuSans-31"/>
       <use x="63.623047" xlink:href="#DejaVuSans-2e"/>
       <use x="95.410156" xlink:href="#DejaVuSans-30"/>
      </g>
     </g>
    </g>
    <g id="text_17">
     <!-- Proportion -->
     <g transform="translate(21.9875 237.00375)rotate(-90)scale(0.16 -0.16)">
      <defs>
       <path d="M 2631 2963 
Q 2534 3019 2420 3045 
Q 2306 3072 2169 3072 
Q 1681 3072 1420 2755 
Q 1159 2438 1159 1844 
L 1159 0 
L 581 0 
L 581 3500 
L 1159 3500 
L 1159 2956 
Q 1341 3275 1631 3429 
Q 1922 3584 2338 3584 
Q 2397 3584 2469 3576 
Q 2541 3569 2628 3553 
L 2631 2963 
z
" id="DejaVuSans-72" transform="scale(0.015625)"/>
       <path d="M 1959 3097 
Q 1497 3097 1228 2736 
Q 959 2375 959 1747 
Q 959 1119 1226 758 
Q 1494 397 1959 397 
Q 2419 397 2687 759 
Q 2956 1122 2956 1747 
Q 2956 2369 2687 2733 
Q 2419 3097 1959 3097 
z
M 1959 3584 
Q 2709 3584 3137 3096 
Q 3566 2609 3566 1747 
Q 3566 888 3137 398 
Q 2709 -91 1959 -91 
Q 1206 -91 779 398 
Q 353 888 353 1747 
Q 353 2609 779 3096 
Q 1206 3584 1959 3584 
z
" id="DejaVuSans-6f" transform="scale(0.015625)"/>
       <path d="M 1159 525 
L 1159 -1331 
L 581 -1331 
L 581 3500 
L 1159 3500 
L 1159 2969 
Q 1341 3281 1617 3432 
Q 1894 3584 2278 3584 
Q 2916 3584 3314 3078 
Q 3713 2572 3713 1747 
Q 3713 922 3314 415 
Q 2916 -91 2278 -91 
Q 1894 -91 1617 61 
Q 1341 213 1159 525 
z
M 3116 1747 
Q 3116 2381 2855 2742 
Q 2594 3103 2138 3103 
Q 1681 3103 1420 2742 
Q 1159 2381 1159 1747 
Q 1159 1113 1420 752 
Q 1681 391 2138 391 
Q 2594 391 2855 752 
Q 3116 1113 3116 1747 
z
" id="DejaVuSans-70" transform="scale(0.015625)"/>
       <path d="M 1172 4494 
L 1172 3500 
L 2356 3500 
L 2356 3053 
L 1172 3053 
L 1172 1153 
Q 1172 725 1289 603 
Q 1406 481 1766 481 
L 2356 481 
L 2356 0 
L 1766 0 
Q 1100 0 847 248 
Q 594 497 594 1153 
L 594 3053 
L 172 3053 
L 172 3500 
L 594 3500 
L 594 4494 
L 1172 4494 
z
" id="DejaVuSans-74" transform="scale(0.015625)"/>
       <path d="M 603 3500 
L 1178 3500 
L 1178 0 
L 603 0 
L 603 3500 
z
M 603 4863 
L 1178 4863 
L 1178 4134 
L 603 4134 
L 603 4863 
z
" id="DejaVuSans-69" transform="scale(0.015625)"/>
       <path d="M 3513 2113 
L 3513 0 
L 2938 0 
L 2938 2094 
Q 2938 2591 2744 2837 
Q 2550 3084 2163 3084 
Q 1697 3084 1428 2787 
Q 1159 2491 1159 1978 
L 1159 0 
L 581 0 
L 581 3500 
L 1159 3500 
L 1159 2956 
Q 1366 3272 1645 3428 
Q 1925 3584 2291 3584 
Q 2894 3584 3203 3211 
Q 3513 2838 3513 2113 
z
" id="DejaVuSans-6e" transform="scale(0.015625)"/>
      </defs>
      <use xlink:href="#DejaVuSans-50"/>
      <use x="58.552734" xlink:href="#DejaVuSans-72"/>
      <use x="97.416016" xlink:href="#DejaVuSans-6f"/>
      <use x="158.597656" xlink:href="#DejaVuSans-70"/>
      <use x="222.074219" xlink:href="#DejaVuSans-6f"/>
      <use x="283.255859" xlink:href="#DejaVuSans-72"/>
      <use x="324.369141" xlink:href="#DejaVuSans-74"/>
      <use x="363.578125" xlink:href="#DejaVuSans-69"/>
      <use x="391.361328" xlink:href="#DejaVuSans-6f"/>
      <use x="452.542969" xlink:href="#DejaVuSans-6e"/>
     </g>
    </g>
   </g>
   <g id="line2d_16">
    <path clip-path="url(#pfca0bc44f5)" d="M 80.22411 374.9 
L 80.22411 358.611818 
L 102.377095 358.611818 
L 102.377095 342.323636 
L 111.207639 342.323636 
L 111.207639 326.035455 
L 116.655053 326.035455 
L 116.655053 309.747273 
L 120.325186 309.747273 
L 120.325186 293.459091 
L 120.963842 293.459091 
L 120.963842 277.170909 
L 121.157304 277.170909 
L 121.157304 260.882727 
L 127.595387 260.882727 
L 127.595387 244.594545 
L 129.072542 244.594545 
L 129.072542 228.306364 
L 138.867269 228.306364 
L 138.867269 212.018182 
L 148.597348 212.018182 
L 148.597348 195.73 
L 150.215717 195.73 
L 150.215717 179.441818 
L 153.387446 179.441818 
L 153.387446 163.153636 
L 163.196258 163.153636 
L 163.196258 146.865455 
L 170.945722 146.865455 
L 170.945722 130.577273 
L 186.934386 130.577273 
L 186.934386 114.289091 
L 191.354293 114.289091 
L 191.354293 98.000909 
L 194.363498 98.000909 
L 194.363498 81.712727 
L 200.325087 81.712727 
L 200.325087 65.424545 
L 218.284495 65.424545 
L 218.284495 49.136364 
L 259.7492 49.136364 
L 259.7492 32.848182 
L 296.857804 32.848182 
L 296.857804 16.56 
" style="fill:none;stroke:#1f77b4;stroke-dasharray:6,9.9;stroke-dashoffset:0;stroke-width:6;"/>
   </g>
   <g id="line2d_17">
    <path clip-path="url(#pfca0bc44f5)" d="M 32.699005 374.9 
L 32.699005 370.781149 
L 34.745954 370.781149 
L 34.745954 366.662299 
L 61.236007 366.662299 
L 61.236007 362.543448 
L 78.964015 362.543448 
L 78.964015 358.424598 
L 79.856558 358.424598 
L 79.856558 354.305747 
L 81.984457 354.305747 
L 81.984457 350.186897 
L 86.49154 350.186897 
L 86.49154 346.068046 
L 90.037833 346.068046 
L 90.037833 341.949195 
L 93.38671 341.949195 
L 93.399101 333.711494 
L 94.808464 333.711494 
L 94.808464 329.592644 
L 98.686898 329.592644 
L 98.686898 325.473793 
L 98.916699 325.473793 
L 98.916699 321.354943 
L 100.680937 321.354943 
L 100.680937 317.236092 
L 106.710012 317.236092 
L 106.710012 313.117241 
L 111.862528 313.117241 
L 111.862528 308.998391 
L 112.221103 308.998391 
L 112.221103 304.87954 
L 113.031776 304.87954 
L 113.031776 300.76069 
L 113.676369 300.76069 
L 113.676369 296.641839 
L 122.523532 296.641839 
L 122.543095 288.404138 
L 123.25022 288.404138 
L 123.25022 284.285287 
L 123.62978 284.285287 
L 123.62978 280.166437 
L 124.411785 280.166437 
L 124.411785 276.047586 
L 130.300112 276.047586 
L 130.300112 271.928736 
L 131.034305 271.928736 
L 131.034305 267.809885 
L 132.869678 267.809885 
L 132.869678 263.691034 
L 133.969864 263.691034 
L 133.969864 259.572184 
L 135.03461 259.572184 
L 135.03461 255.453333 
L 135.733075 255.453333 
L 135.733075 251.334483 
L 136.60477 251.334483 
L 136.60477 247.215632 
L 139.192971 247.215632 
L 139.192971 243.096782 
L 139.637852 243.096782 
L 139.637852 238.977931 
L 139.846823 238.977931 
L 139.846823 234.85908 
L 142.050612 234.85908 
L 142.050612 230.74023 
L 143.626995 230.74023 
L 143.626995 226.621379 
L 143.960637 226.621379 
L 143.960637 222.502529 
L 146.519966 222.502529 
L 146.519966 218.383678 
L 147.212178 218.383678 
L 147.212178 214.264828 
L 147.549537 214.264828 
L 147.549537 210.145977 
L 147.770429 210.145977 
L 147.770429 206.027126 
L 148.367547 206.027126 
L 148.367547 201.908276 
L 149.206876 201.908276 
L 149.206876 197.789425 
L 154.023743 197.789425 
L 154.023743 193.670575 
L 155.248867 193.670575 
L 155.248867 189.551724 
L 156.524999 189.551724 
L 156.524999 185.432874 
L 156.706131 185.432874 
L 156.706131 181.314023 
L 157.193551 181.314023 
L 157.193551 177.195172 
L 158.051383 177.195172 
L 158.051383 173.076322 
L 158.291652 173.076322 
L 158.291652 168.957471 
L 161.173903 168.957471 
L 161.173903 164.838621 
L 162.503188 164.838621 
L 162.503188 160.71977 
L 164.922822 160.71977 
L 164.922822 156.60092 
L 167.987828 156.60092 
L 167.987828 152.482069 
L 168.643172 152.482069 
L 168.643172 148.363218 
L 169.382233 148.363218 
L 169.382233 144.244368 
L 171.928792 144.244368 
L 171.928792 140.125517 
L 172.680118 140.125517 
L 172.680118 136.006667 
L 174.368491 136.006667 
L 174.368491 131.887816 
L 175.283909 131.887816 
L 175.283909 127.768966 
L 176.287197 127.768966 
L 176.287197 123.650115 
L 179.197284 123.650115 
L 179.197284 119.531264 
L 182.17969 119.531264 
L 182.17969 115.412414 
L 182.990554 115.412414 
L 182.990554 111.293563 
L 184.339046 111.293563 
L 184.339046 107.174713 
L 189.250049 107.174713 
L 189.261137 98.937011 
L 192.974567 98.937011 
L 192.974567 94.818161 
L 204.182319 94.818161 
L 204.182319 90.69931 
L 205.909047 90.69931 
L 205.909047 86.58046 
L 206.489906 86.58046 
L 206.489906 82.461609 
L 209.553154 82.461609 
L 209.553154 78.342759 
L 211.118623 78.342759 
L 211.118623 74.223908 
L 211.530295 74.223908 
L 211.530295 70.105057 
L 212.088219 70.105057 
L 212.088219 65.986207 
L 232.308423 65.986207 
L 232.308423 61.867356 
L 233.401881 61.867356 
L 233.401881 57.748506 
L 235.32719 57.748506 
L 235.32719 53.629655 
L 238.780286 53.629655 
L 238.780286 49.510805 
L 240.224526 49.510805 
L 240.224526 45.391954 
L 242.989934 45.391954 
L 242.989934 41.273103 
L 243.757979 41.273103 
L 243.757979 37.154253 
L 247.460995 37.154253 
L 247.460995 33.035402 
L 249.035084 33.035402 
L 249.035084 28.916552 
L 276.215956 28.916552 
L 276.215956 24.797701 
L 281.186567 24.797701 
L 281.186567 20.678851 
L 281.816061 20.678851 
L 281.816061 16.56 
L 281.816061 16.56 
" style="fill:none;stroke:#1f77b4;stroke-linecap:square;stroke-width:4;"/>
   </g>
   <g id="line2d_18">
    <path clip-path="url(#pfca0bc44f5)" d="M 194.690471 374.9 
L 194.690471 351.010667 
L 196.906805 351.010667 
L 196.906805 327.121333 
L 204.19073 327.121333 
L 204.19073 303.232 
L 204.808318 303.232 
L 204.808318 279.342667 
L 217.486326 279.342667 
L 217.486326 255.453333 
L 219.137801 255.453333 
L 219.137801 231.564 
L 219.888056 231.564 
L 219.888056 207.674667 
L 227.781142 207.674667 
L 227.781142 183.785333 
L 230.244993 183.785333 
L 230.244993 159.896 
L 241.837587 159.896 
L 241.837587 136.006667 
L 254.388706 136.006667 
L 254.388706 112.117333 
L 276.405172 112.117333 
L 276.405172 88.228 
L 287.040685 88.228 
L 287.040685 64.338667 
L 307.889152 64.338667 
L 307.889152 40.449333 
L 308.93869 40.449333 
L 308.93869 16.56 
" style="fill:none;stroke:#ff7f0e;stroke-dasharray:6,9.9;stroke-dashoffset:0;stroke-width:6;"/>
   </g>
   <g id="line2d_19">
    <path clip-path="url(#pfca0bc44f5)" d="M 87.400955 374.9 
L 87.400955 370.781149 
L 103.622535 370.781149 
L 103.622535 366.662299 
L 110.52131 366.662299 
L 110.52131 362.543448 
L 142.549362 362.543448 
L 142.549362 358.424598 
L 152.19559 358.424598 
L 152.19559 354.305747 
L 157.940747 354.305747 
L 157.940747 350.186897 
L 159.883179 350.186897 
L 159.883179 346.068046 
L 161.77907 346.068046 
L 161.77907 341.949195 
L 169.460163 341.949195 
L 169.460163 337.830345 
L 171.447144 337.830345 
L 171.447144 333.711494 
L 172.314886 333.711494 
L 172.356196 325.473793 
L 173.338071 325.473793 
L 173.338071 321.354943 
L 177.941744 321.354943 
L 177.941744 317.236092 
L 182.012532 317.236092 
L 182.012532 313.117241 
L 184.100266 313.117241 
L 184.100266 308.998391 
L 186.620803 308.998391 
L 186.620803 304.87954 
L 191.676726 304.87954 
L 191.676726 300.76069 
L 194.871162 300.76069 
L 194.871162 296.641839 
L 196.135593 296.641839 
L 196.135593 292.522989 
L 197.255229 292.522989 
L 197.324926 284.285287 
L 198.282537 284.285287 
L 198.282537 280.166437 
L 199.229505 280.166437 
L 199.229505 276.047586 
L 201.424334 276.047586 
L 201.424334 271.928736 
L 202.452273 271.928736 
L 202.452273 267.809885 
L 204.881025 267.809885 
L 204.881025 263.691034 
L 207.247609 263.691034 
L 207.247609 259.572184 
L 208.801891 259.572184 
L 208.801891 255.453333 
L 211.533311 255.453333 
L 211.533311 251.334483 
L 212.896745 251.334483 
L 212.896745 247.215632 
L 213.46345 247.215632 
L 213.46345 243.096782 
L 214.542989 243.096782 
L 214.542989 238.977931 
L 215.272604 238.977931 
L 215.272604 234.85908 
L 222.723483 234.85908 
L 222.723483 230.74023 
L 224.432006 230.74023 
L 224.432006 226.621379 
L 224.600029 226.621379 
L 224.600029 222.502529 
L 225.12064 222.502529 
L 225.12064 218.383678 
L 225.48999 218.383678 
L 225.48999 214.264828 
L 225.789466 214.264828 
L 225.789466 210.145977 
L 226.608106 210.145977 
L 226.608106 206.027126 
L 229.73569 206.027126 
L 229.73569 201.908276 
L 232.992487 201.908276 
L 233.091616 189.551724 
L 233.210024 189.551724 
L 233.210024 185.432874 
L 233.538399 185.432874 
L 233.538399 181.314023 
L 234.015825 181.314023 
L 234.015825 177.195172 
L 235.919369 177.195172 
L 235.919369 173.076322 
L 240.017392 173.076322 
L 240.017392 168.957471 
L 240.528018 168.957471 
L 240.528018 164.838621 
L 243.411866 164.838621 
L 243.411866 160.71977 
L 244.982735 160.71977 
L 244.982735 156.60092 
L 246.827768 156.60092 
L 246.827768 152.482069 
L 248.538408 152.482069 
L 248.538408 148.363218 
L 250.934454 148.363218 
L 250.934454 144.244368 
L 251.319036 144.244368 
L 251.319036 140.125517 
L 251.630996 140.125517 
L 251.630996 136.006667 
L 252.361626 136.006667 
L 252.361626 131.887816 
L 252.717761 131.887816 
L 252.717761 127.768966 
L 254.833003 127.768966 
L 254.833003 123.650115 
L 255.584741 123.650115 
L 255.584741 119.531264 
L 256.819662 119.531264 
L 256.819662 115.412414 
L 257.121466 115.412414 
L 257.121466 111.293563 
L 258.831543 111.293563 
L 258.831543 107.174713 
L 263.269308 107.174713 
L 263.269308 103.055862 
L 265.575471 103.055862 
L 265.575471 98.937011 
L 279.891321 98.937011 
L 279.891321 94.818161 
L 280.015362 94.818161 
L 280.015362 90.69931 
L 283.09285 90.69931 
L 283.09285 86.58046 
L 285.038728 86.58046 
L 285.038728 82.461609 
L 291.188543 82.461609 
L 291.188543 78.342759 
L 291.591839 78.342759 
L 291.591839 74.223908 
L 297.100538 74.223908 
L 297.100538 70.105057 
L 298.079626 70.105057 
L 298.079626 65.986207 
L 302.612359 65.986207 
L 302.612359 61.867356 
L 311.203399 61.867356 
L 311.203399 57.748506 
L 311.395258 57.748506 
L 311.395258 53.629655 
L 311.556614 53.629655 
L 311.556614 49.510805 
L 312.890936 49.510805 
L 312.890936 45.391954 
L 314.188789 45.391954 
L 314.188789 41.273103 
L 316.804344 41.273103 
L 316.804344 37.154253 
L 318.806242 37.154253 
L 318.806242 33.035402 
L 331.681237 33.035402 
L 331.681237 28.916552 
L 332.398647 28.916552 
L 332.398647 24.797701 
L 334.165818 24.797701 
L 334.165818 20.678851 
L 337.240972 20.678851 
L 337.240972 16.56 
L 337.240972 16.56 
" style="fill:none;stroke:#ff7f0e;stroke-linecap:square;stroke-width:4;"/>
   </g>
   <g id="line2d_20">
    <path clip-path="url(#pfca0bc44f5)" d="M 203.385579 374.9 
L 203.385579 354.992222 
L 233.148258 354.992222 
L 233.148258 335.084444 
L 235.525911 335.084444 
L 235.525911 315.176667 
L 237.702276 315.176667 
L 237.702276 295.268889 
L 245.597288 295.268889 
L 245.597288 275.361111 
L 248.352356 275.361111 
L 248.352356 255.453333 
L 259.194575 255.453333 
L 259.194575 235.545556 
L 270.874329 235.545556 
L 270.874329 215.637778 
L 274.65233 215.637778 
L 274.65233 195.73 
L 284.526031 195.73 
L 284.526031 175.822222 
L 285.351408 175.822222 
L 285.351408 155.914444 
L 292.386372 155.914444 
L 292.386372 136.006667 
L 300.630267 136.006667 
L 300.630267 116.098889 
L 300.81434 116.098889 
L 300.81434 96.191111 
L 302.675049 96.191111 
L 302.675049 76.283333 
L 309.450096 76.283333 
L 309.450096 56.375556 
L 319.983039 56.375556 
L 319.983039 36.467778 
L 368.600207 36.467778 
L 368.600207 16.56 
" style="fill:none;stroke:#2ca02c;stroke-dasharray:6,9.9;stroke-dashoffset:0;stroke-width:6;"/>
   </g>
   <g id="line2d_21">
    <path clip-path="url(#pfca0bc44f5)" d="M 112.482196 374.9 
L 112.482196 370.781149 
L 131.160031 370.781149 
L 131.160031 366.662299 
L 132.700924 366.662299 
L 132.700924 362.543448 
L 156.781585 362.543448 
L 156.781585 358.424598 
L 177.377028 358.424598 
L 177.377028 354.305747 
L 179.02051 354.305747 
L 179.02051 350.186897 
L 185.751371 350.186897 
L 185.751371 346.068046 
L 188.718888 346.068046 
L 188.718888 341.949195 
L 196.775066 341.949195 
L 196.775066 337.830345 
L 199.361209 337.830345 
L 199.361209 333.711494 
L 200.465199 333.711494 
L 200.465199 329.592644 
L 202.154196 329.592644 
L 202.154196 325.473793 
L 203.685107 325.473793 
L 203.685107 321.354943 
L 208.943992 321.354943 
L 208.943992 317.236092 
L 214.942497 317.236092 
L 214.942497 313.117241 
L 215.510302 313.117241 
L 215.510302 308.998391 
L 218.350225 308.998391 
L 218.350225 304.87954 
L 220.770688 304.87954 
L 220.770688 300.76069 
L 224.048163 300.76069 
L 224.048163 296.641839 
L 226.24088 296.641839 
L 226.24088 292.522989 
L 228.22238 292.522989 
L 228.22238 288.404138 
L 229.828081 288.404138 
L 229.828081 284.285287 
L 230.859878 284.285287 
L 230.859878 280.166437 
L 231.505479 280.166437 
L 231.505479 276.047586 
L 234.327512 276.047586 
L 234.327512 271.928736 
L 234.599659 271.928736 
L 234.599659 267.809885 
L 235.173569 267.809885 
L 235.173569 263.691034 
L 235.550959 263.691034 
L 235.550959 259.572184 
L 239.388338 259.572184 
L 239.388338 255.453333 
L 240.722923 255.453333 
L 240.722923 251.334483 
L 242.196012 251.334483 
L 242.196012 247.215632 
L 244.679533 247.215632 
L 244.679533 243.096782 
L 248.870241 243.096782 
L 248.870241 238.977931 
L 252.901997 238.977931 
L 252.901997 234.85908 
L 256.643354 234.85908 
L 256.643354 230.74023 
L 258.960573 230.74023 
L 258.960573 226.621379 
L 259.974866 226.621379 
L 259.974866 222.502529 
L 260.939467 222.502529 
L 260.939467 218.383678 
L 261.110443 218.383678 
L 261.110443 214.264828 
L 261.405442 214.264828 
L 261.500776 206.027126 
L 263.442598 206.027126 
L 263.442598 201.908276 
L 263.738812 201.908276 
L 263.738812 197.789425 
L 266.464316 197.789425 
L 266.464316 193.670575 
L 268.464342 193.670575 
L 268.464342 189.551724 
L 269.489674 189.551724 
L 269.489674 185.432874 
L 270.127223 185.432874 
L 270.127223 181.314023 
L 274.283333 181.314023 
L 274.365056 173.076322 
L 278.057835 173.076322 
L 278.057835 168.957471 
L 281.447345 168.957471 
L 281.447345 164.838621 
L 282.309078 164.838621 
L 282.309078 160.71977 
L 283.748351 160.71977 
L 283.748351 156.60092 
L 285.310627 156.60092 
L 285.310627 152.482069 
L 285.463453 152.482069 
L 285.463453 148.363218 
L 288.879899 148.363218 
L 288.879899 144.244368 
L 289.081382 144.244368 
L 289.151137 136.006667 
L 289.51587 136.006667 
L 289.51587 131.887816 
L 290.377295 131.887816 
L 290.377295 127.768966 
L 290.718296 127.768966 
L 290.718296 123.650115 
L 292.690669 123.650115 
L 292.690669 119.531264 
L 294.727016 119.531264 
L 294.727016 115.412414 
L 298.769159 115.412414 
L 298.769159 111.293563 
L 299.188695 111.293563 
L 299.188695 107.174713 
L 299.341582 107.174713 
L 299.341582 103.055862 
L 299.976623 103.055862 
L 299.976623 98.937011 
L 306.424378 98.937011 
L 306.424378 94.818161 
L 311.669088 94.818161 
L 311.669088 90.69931 
L 313.551218 90.69931 
L 313.551218 86.58046 
L 316.096526 86.58046 
L 316.096526 82.461609 
L 316.855281 82.461609 
L 316.855281 78.342759 
L 326.452175 78.342759 
L 326.452175 74.223908 
L 334.5336 74.223908 
L 334.5336 70.105057 
L 341.282034 70.105057 
L 341.282034 65.986207 
L 342.862272 65.986207 
L 342.862272 61.867356 
L 345.709055 61.867356 
L 345.709055 57.748506 
L 348.021869 57.748506 
L 348.021869 53.629655 
L 349.465808 53.629655 
L 349.465808 49.510805 
L 350.753147 49.510805 
L 350.788701 41.273103 
L 356.674314 41.273103 
L 356.674314 37.154253 
L 359.045477 37.154253 
L 359.045477 33.035402 
L 360.827575 33.035402 
L 360.827575 28.916552 
L 360.941404 28.916552 
L 360.941404 24.797701 
L 383.09679 24.797701 
L 383.09679 20.678851 
L 396.604404 20.678851 
L 396.604404 16.56 
L 396.604404 16.56 
" style="fill:none;stroke:#2ca02c;stroke-linecap:square;stroke-width:4;"/>
   </g>
   <g id="patch_3">
    <path d="M 68.26 374.9 
L 68.26 16.56 
" style="fill:none;stroke:#000000;stroke-linecap:square;stroke-linejoin:miter;stroke-width:0.8;"/>
   </g>
   <g id="patch_4">
    <path d="M 549.81 374.9 
L 549.81 16.56 
" style="fill:none;stroke:#000000;stroke-linecap:square;stroke-linejoin:miter;stroke-width:0.8;"/>
   </g>
   <g id="patch_5">
    <path d="M 68.26 374.9 
L 549.81 374.9 
" style="fill:none;stroke:#000000;stroke-linecap:square;stroke-linejoin:miter;stroke-width:0.8;"/>
   </g>
   <g id="patch_6">
    <path d="M 68.26 16.56 
L 549.81 16.56 
" style="fill:none;stroke:#000000;stroke-linecap:square;stroke-linejoin:miter;stroke-width:0.8;"/>
   </g>
   <g id="legend_1">
    <g id="patch_7">
     <path d="M 350.719062 367.9 
L 540.01 367.9 
Q 542.81 367.9 542.81 365.1 
L 542.81 243.20375 
Q 542.81 240.40375 540.01 240.40375 
L 350.719062 240.40375 
Q 347.919062 240.40375 347.919062 243.20375 
L 347.919062 365.1 
Q 347.919062 367.9 350.719062 367.9 
z
" style="fill:#ffffff;opacity:0.8;stroke:#cccccc;stroke-linejoin:miter;"/>
    </g>
    <g id="line2d_22">
     <path d="M 353.519062 251.741562 
L 381.519062 251.741562 
" style="fill:none;stroke:#1f77b4;stroke-dasharray:6,9.9;stroke-dashoffset:0;stroke-width:6;"/>
    </g>
    <g id="line2d_23"/>
    <g id="text_18">
     <!-- Exp CRSS at 0.0% -->
     <g transform="translate(392.719062 256.641562)scale(0.14 -0.14)">
      <defs>
       <path d="M 628 4666 
L 3578 4666 
L 3578 4134 
L 1259 4134 
L 1259 2753 
L 3481 2753 
L 3481 2222 
L 1259 2222 
L 1259 531 
L 3634 531 
L 3634 0 
L 628 0 
L 628 4666 
z
" id="DejaVuSans-45" transform="scale(0.015625)"/>
       <path d="M 3513 3500 
L 2247 1797 
L 3578 0 
L 2900 0 
L 1881 1375 
L 863 0 
L 184 0 
L 1544 1831 
L 300 3500 
L 978 3500 
L 1906 2253 
L 2834 3500 
L 3513 3500 
z
" id="DejaVuSans-78" transform="scale(0.015625)"/>
       <path d="M 4653 2053 
Q 4381 2053 4226 1822 
Q 4072 1591 4072 1178 
Q 4072 772 4226 539 
Q 4381 306 4653 306 
Q 4919 306 5073 539 
Q 5228 772 5228 1178 
Q 5228 1588 5073 1820 
Q 4919 2053 4653 2053 
z
M 4653 2450 
Q 5147 2450 5437 2106 
Q 5728 1763 5728 1178 
Q 5728 594 5436 251 
Q 5144 -91 4653 -91 
Q 4153 -91 3862 251 
Q 3572 594 3572 1178 
Q 3572 1766 3864 2108 
Q 4156 2450 4653 2450 
z
M 1428 4353 
Q 1159 4353 1004 4120 
Q 850 3888 850 3481 
Q 850 3069 1003 2837 
Q 1156 2606 1428 2606 
Q 1700 2606 1854 2837 
Q 2009 3069 2009 3481 
Q 2009 3884 1853 4118 
Q 1697 4353 1428 4353 
z
M 4250 4750 
L 4750 4750 
L 1831 -91 
L 1331 -91 
L 4250 4750 
z
M 1428 4750 
Q 1922 4750 2215 4408 
Q 2509 4066 2509 3481 
Q 2509 2891 2217 2550 
Q 1925 2209 1428 2209 
Q 931 2209 642 2551 
Q 353 2894 353 3481 
Q 353 4063 643 4406 
Q 934 4750 1428 4750 
z
" id="DejaVuSans-25" transform="scale(0.015625)"/>
      </defs>
      <use xlink:href="#DejaVuSans-45"/>
      <use x="63.183594" xlink:href="#DejaVuSans-78"/>
      <use x="122.363281" xlink:href="#DejaVuSans-70"/>
      <use x="185.839844" xlink:href="#DejaVuSans-20"/>
      <use x="217.626953" xlink:href="#DejaVuSans-43"/>
      <use x="287.451172" xlink:href="#DejaVuSans-52"/>
      <use x="356.933594" xlink:href="#DejaVuSans-53"/>
      <use x="420.410156" xlink:href="#DejaVuSans-53"/>
      <use x="483.886719" xlink:href="#DejaVuSans-20"/>
      <use x="515.673828" xlink:href="#DejaVuSans-61"/>
      <use x="576.953125" xlink:href="#DejaVuSans-74"/>
      <use x="616.162109" xlink:href="#DejaVuSans-20"/>
      <use x="647.949219" xlink:href="#DejaVuSans-30"/>
      <use x="711.572266" xlink:href="#DejaVuSans-2e"/>
      <use x="743.359375" xlink:href="#DejaVuSans-30"/>
      <use x="806.982422" xlink:href="#DejaVuSans-25"/>
     </g>
    </g>
    <g id="line2d_24">
     <path d="M 353.519062 272.290937 
L 381.519062 272.290937 
" style="fill:none;stroke:#1f77b4;stroke-linecap:square;stroke-width:4;"/>
    </g>
    <g id="line2d_25"/>
    <g id="text_19">
     <!-- Sim CRSS at 0.20% -->
     <g transform="translate(392.719062 277.190937)scale(0.14 -0.14)">
      <defs>
       <path d="M 3328 2828 
Q 3544 3216 3844 3400 
Q 4144 3584 4550 3584 
Q 5097 3584 5394 3201 
Q 5691 2819 5691 2113 
L 5691 0 
L 5113 0 
L 5113 2094 
Q 5113 2597 4934 2840 
Q 4756 3084 4391 3084 
Q 3944 3084 3684 2787 
Q 3425 2491 3425 1978 
L 3425 0 
L 2847 0 
L 2847 2094 
Q 2847 2600 2669 2842 
Q 2491 3084 2119 3084 
Q 1678 3084 1418 2786 
Q 1159 2488 1159 1978 
L 1159 0 
L 581 0 
L 581 3500 
L 1159 3500 
L 1159 2956 
Q 1356 3278 1631 3431 
Q 1906 3584 2284 3584 
Q 2666 3584 2933 3390 
Q 3200 3197 3328 2828 
z
" id="DejaVuSans-6d" transform="scale(0.015625)"/>
      </defs>
      <use xlink:href="#DejaVuSans-53"/>
      <use x="63.476562" xlink:href="#DejaVuSans-69"/>
      <use x="91.259766" xlink:href="#DejaVuSans-6d"/>
      <use x="188.671875" xlink:href="#DejaVuSans-20"/>
      <use x="220.458984" xlink:href="#DejaVuSans-43"/>
      <use x="290.283203" xlink:href="#DejaVuSans-52"/>
      <use x="359.765625" xlink:href="#DejaVuSans-53"/>
      <use x="423.242188" xlink:href="#DejaVuSans-53"/>
      <use x="486.71875" xlink:href="#DejaVuSans-20"/>
      <use x="518.505859" xlink:href="#DejaVuSans-61"/>
      <use x="579.785156" xlink:href="#DejaVuSans-74"/>
      <use x="618.994141" xlink:href="#DejaVuSans-20"/>
      <use x="650.78125" xlink:href="#DejaVuSans-30"/>
      <use x="714.404297" xlink:href="#DejaVuSans-2e"/>
      <use x="746.191406" xlink:href="#DejaVuSans-32"/>
      <use x="809.814453" xlink:href="#DejaVuSans-30"/>
      <use x="873.4375" xlink:href="#DejaVuSans-25"/>
     </g>
    </g>
    <g id="line2d_26">
     <path d="M 353.519062 292.840312 
L 381.519062 292.840312 
" style="fill:none;stroke:#ff7f0e;stroke-dasharray:6,9.9;stroke-dashoffset:0;stroke-width:6;"/>
    </g>
    <g id="line2d_27"/>
    <g id="text_20">
     <!-- Exp CRSS at 9.6% -->
     <g transform="translate(392.719062 297.740312)scale(0.14 -0.14)">
      <defs>
       <path d="M 703 97 
L 703 672 
Q 941 559 1184 500 
Q 1428 441 1663 441 
Q 2288 441 2617 861 
Q 2947 1281 2994 2138 
Q 2813 1869 2534 1725 
Q 2256 1581 1919 1581 
Q 1219 1581 811 2004 
Q 403 2428 403 3163 
Q 403 3881 828 4315 
Q 1253 4750 1959 4750 
Q 2769 4750 3195 4129 
Q 3622 3509 3622 2328 
Q 3622 1225 3098 567 
Q 2575 -91 1691 -91 
Q 1453 -91 1209 -44 
Q 966 3 703 97 
z
M 1959 2075 
Q 2384 2075 2632 2365 
Q 2881 2656 2881 3163 
Q 2881 3666 2632 3958 
Q 2384 4250 1959 4250 
Q 1534 4250 1286 3958 
Q 1038 3666 1038 3163 
Q 1038 2656 1286 2365 
Q 1534 2075 1959 2075 
z
" id="DejaVuSans-39" transform="scale(0.015625)"/>
      </defs>
      <use xlink:href="#DejaVuSans-45"/>
      <use x="63.183594" xlink:href="#DejaVuSans-78"/>
      <use x="122.363281" xlink:href="#DejaVuSans-70"/>
      <use x="185.839844" xlink:href="#DejaVuSans-20"/>
      <use x="217.626953" xlink:href="#DejaVuSans-43"/>
      <use x="287.451172" xlink:href="#DejaVuSans-52"/>
      <use x="356.933594" xlink:href="#DejaVuSans-53"/>
      <use x="420.410156" xlink:href="#DejaVuSans-53"/>
      <use x="483.886719" xlink:href="#DejaVuSans-20"/>
      <use x="515.673828" xlink:href="#DejaVuSans-61"/>
      <use x="576.953125" xlink:href="#DejaVuSans-74"/>
      <use x="616.162109" xlink:href="#DejaVuSans-20"/>
      <use x="647.949219" xlink:href="#DejaVuSans-39"/>
      <use x="711.572266" xlink:href="#DejaVuSans-2e"/>
      <use x="743.359375" xlink:href="#DejaVuSans-36"/>
      <use x="806.982422" xlink:href="#DejaVuSans-25"/>
     </g>
    </g>
    <g id="line2d_28">
     <path d="M 353.519062 313.389687 
L 381.519062 313.389687 
" style="fill:none;stroke:#ff7f0e;stroke-linecap:square;stroke-width:4;"/>
    </g>
    <g id="line2d_29"/>
    <g id="text_21">
     <!-- Sim CRSS at 9.63% -->
     <g transform="translate(392.719062 318.289687)scale(0.14 -0.14)">
      <use xlink:href="#DejaVuSans-53"/>
      <use x="63.476562" xlink:href="#DejaVuSans-69"/>
      <use x="91.259766" xlink:href="#DejaVuSans-6d"/>
      <use x="188.671875" xlink:href="#DejaVuSans-20"/>
      <use x="220.458984" xlink:href="#DejaVuSans-43"/>
      <use x="290.283203" xlink:href="#DejaVuSans-52"/>
      <use x="359.765625" xlink:href="#DejaVuSans-53"/>
      <use x="423.242188" xlink:href="#DejaVuSans-53"/>
      <use x="486.71875" xlink:href="#DejaVuSans-20"/>
      <use x="518.505859" xlink:href="#DejaVuSans-61"/>
      <use x="579.785156" xlink:href="#DejaVuSans-74"/>
      <use x="618.994141" xlink:href="#DejaVuSans-20"/>
      <use x="650.78125" xlink:href="#DejaVuSans-39"/>
      <use x="714.404297" xlink:href="#DejaVuSans-2e"/>
      <use x="746.191406" xlink:href="#DejaVuSans-36"/>
      <use x="809.814453" xlink:href="#DejaVuSans-33"/>
      <use x="873.4375" xlink:href="#DejaVuSans-25"/>
     </g>
    </g>
    <g id="line2d_30">
     <path d="M 353.519062 333.939062 
L 381.519062 333.939062 
" style="fill:none;stroke:#2ca02c;stroke-dasharray:6,9.9;stroke-dashoffset:0;stroke-width:6;"/>
    </g>
    <g id="line2d_31"/>
    <g id="text_22">
     <!-- Exp CRSS at 14.6% -->
     <g transform="translate(392.719062 338.839062)scale(0.14 -0.14)">
      <use xlink:href="#DejaVuSans-45"/>
      <use x="63.183594" xlink:href="#DejaVuSans-78"/>
      <use x="122.363281" xlink:href="#DejaVuSans-70"/>
      <use x="185.839844" xlink:href="#DejaVuSans-20"/>
      <use x="217.626953" xlink:href="#DejaVuSans-43"/>
      <use x="287.451172" xlink:href="#DejaVuSans-52"/>
      <use x="356.933594" xlink:href="#DejaVuSans-53"/>
      <use x="420.410156" xlink:href="#DejaVuSans-53"/>
      <use x="483.886719" xlink:href="#DejaVuSans-20"/>
      <use x="515.673828" xlink:href="#DejaVuSans-61"/>
      <use x="576.953125" xlink:href="#DejaVuSans-74"/>
      <use x="616.162109" xlink:href="#DejaVuSans-20"/>
      <use x="647.949219" xlink:href="#DejaVuSans-31"/>
      <use x="711.572266" xlink:href="#DejaVuSans-34"/>
      <use x="775.195312" xlink:href="#DejaVuSans-2e"/>
      <use x="806.982422" xlink:href="#DejaVuSans-36"/>
      <use x="870.605469" xlink:href="#DejaVuSans-25"/>
     </g>
    </g>
    <g id="line2d_32">
     <path d="M 353.519062 354.488437 
L 381.519062 354.488437 
" style="fill:none;stroke:#2ca02c;stroke-linecap:square;stroke-width:4;"/>
    </g>
    <g id="line2d_33"/>
    <g id="text_23">
     <!-- Sim CRSS at 14.45% -->
     <g transform="translate(392.719062 359.388437)scale(0.14 -0.14)">
      <use xlink:href="#DejaVuSans-53"/>
      <use x="63.476562" xlink:href="#DejaVuSans-69"/>
      <use x="91.259766" xlink:href="#DejaVuSans-6d"/>
      <use x="188.671875" xlink:href="#DejaVuSans-20"/>
      <use x="220.458984" xlink:href="#DejaVuSans-43"/>
      <use x="290.283203" xlink:href="#DejaVuSans-52"/>
      <use x="359.765625" xlink:href="#DejaVuSans-53"/>
      <use x="423.242188" xlink:href="#DejaVuSans-53"/>
      <use x="486.71875" xlink:href="#DejaVuSans-20"/>
      <use x="518.505859" xlink:href="#DejaVuSans-61"/>
      <use x="579.785156" xlink:href="#DejaVuSans-74"/>
      <use x="618.994141" xlink:href="#DejaVuSans-20"/>
      <use x="650.78125" xlink:href="#DejaVuSans-31"/>
      <use x="714.404297" xlink:href="#DejaVuSans-34"/>
      <use x="778.027344" xlink:href="#DejaVuSans-2e"/>
      <use x="809.814453" xlink:href="#DejaVuSans-34"/>
      <use x="873.4375" xlink:href="#DejaVuSans-35"/>
      <use x="937.060547" xlink:href="#DejaVuSans-25"/>
     </g>
    </g>
   </g>
  </g>
 </g>
 <defs>
  <clipPath id="pfca0bc44f5">
   <rect height="358.34" width="481.55" x="68.26" y="16.56"/>
  </clipPath>
 </defs>
</svg>
